<svg xmlns="http://www.w3.org/2000/svg" width="1536.000000pt" height="1536.000000pt" viewBox="0 0 1536.000000 1536.000000" preserveAspectRatio="xMidYMid meet"><metadata>
Created by potrace 1.16, written by Peter Selinger 2001-2019
</metadata><g transform="translate(0.000000,1536.000000) scale(0.100000,-0.100000)" fill="#000000" stroke="none"><path d="M615 14861 c-72 -32 -130 -114 -136 -191 -1 -14 -1 -1106 -1 -2427 l2 -2403 240 0 240 0 0 2280 0 2280 6720 0 6720 0 0 -2640 0 -2640 -4200 0 -4200 0 0 -240 0 -240 4353 0 c4188 0 4354 1 4392 19 46 20 101 79 121 127 12 28 14 501 14 2972 0 2589 -2 2944 -15 2975 -21 52 -73 107 -120 128 -39 18 -291 19 -7065 19 -6775 0 -7026 -1 -7065 -19z"></path><path d="M3845 13900 c-186 -38 -344 -108 -486 -215 -243 -182 -410 -447 -464 -737 -20 -111 -24 -192 -14 -319 16 -194 75 -376 175 -535 30 -47 54 -87 54 -89 0 -1 -48 -5 -107 -8 -458 -24 -921 -278 -1203 -658 -124 -167 -190 -302 -255 -527 -26 -86 -172 -589 -326 -1117 -153 -528 -285 -982 -293 -1010 -67 -228 -34 -472 89 -660 171 -261 490 -391 810 -330 195 37 400 184 503 362 45 77 50 93 162 448 45 143 97 305 115 360 l33 100 1 -1717 1 -1718 -47 34 c-186 131 -433 206 -682 206 -197 0 -362 -39 -536 -126 -336 -170 -571 -482 -641 -854 -21 -108 -20 -322 1 -436 41 -219 144 -429 289 -591 l46 -51 -47 -28 c-273 -158 -469 -435 -528 -747 -13 -68 -15 -239 -15 -1178 0 -1213 -4 -1137 63 -1208 18 -18 50 -42 72 -52 38 -18 94 -19 1305 -19 1208 0 1267 1 1306 19 48 22 111 92 125 141 7 23 9 404 7 1155 -4 1113 -4 1120 -25 1201 -53 196 -160 382 -300 522 l-83 82 890 0 890 0 -83 -82 c-162 -161 -270 -362 -311 -578 -14 -71 -16 -228 -16 -1181 0 -1213 -4 -1137 63 -1208 18 -18 50 -42 72 -52 38 -18 94 -19 1305 -19 1208 0 1267 1 1306 19 48 22 111 92 125 141 7 23 9 406 7 1155 l-3 1120 -28 100 c-78 280 -266 528 -509 669 l-47 28 62 74 c121 144 206 309 254 493 34 129 43 354 19 487 -68 391 -305 709 -661 887 -82 41 -240 91 -338 108 -72 12 -378 8 -409 -6 -17 -7 -18 113 -18 2443 l0 2450 143 75 c78 41 214 112 302 157 160 82 344 178 570 295 202 105 383 198 550 285 88 46 187 97 220 115 33 17 175 91 315 163 280 145 347 194 435 317 168 235 195 555 68 808 -26 51 -111 169 -146 202 -96 91 -232 168 -352 201 -94 25 -302 26 -395 2 -72 -19 -243 -103 -855 -421 -426 -221 -641 -333 -930 -482 -93 -48 -193 -100 -222 -116 l-52 -28 26 57 c94 212 109 530 37 780 -109 378 -410 689 -779 806 -188 59 -427 73 -610 36z m391 -486 c91 -19 211 -77 290 -139 290 -232 351 -657 137 -961 -243 -349 -743 -409 -1053 -126 -162 147 -240 320 -240 533 0 364 275 670 638 708 80 8 133 5 228 -15z m3287 -630 c62 -21 130 -83 162 -149 21 -42 27 -68 26 -119 -1 -131 -61 -211 -221 -294 -52 -27 -180 -93 -285 -147 -436 -224 -525 -270 -620 -320 -55 -29 -172 -90 -260 -135 -88 -45 -200 -104 -250 -130 -49 -26 -162 -85 -250 -130 -743 -384 -731 -377 -766 -455 -18 -38 -19 -149 -19 -2706 l0 -2666 -67 -59 c-243 -210 -382 -479 -414 -801 -17 -173 11 -376 76 -535 l24 -58 -170 0 -169 0 0 2040 0 2040 -240 0 -240 0 0 -2040 0 -2040 -411 0 c-388 0 -411 1 -403 18 4 9 20 53 35 97 63 181 59 -42 59 3340 0 3398 6 3114 -62 3191 -81 92 -239 101 -336 19 -49 -41 -67 -79 -125 -265 -65 -205 -292 -924 -377 -1190 -52 -166 -151 -480 -271 -859 -36 -116 -48 -140 -81 -173 -178 -178 -467 -72 -485 177 -4 62 -4 63 80 350 71 241 280 956 342 1170 200 686 245 837 274 899 123 272 386 504 679 600 179 60 155 58 1187 65 l950 6 190 99 c105 54 231 120 280 146 50 26 167 87 260 135 94 48 224 116 290 150 145 75 342 178 525 273 74 38 191 99 260 134 69 36 197 103 285 148 88 46 196 102 240 125 44 23 94 47 110 53 45 16 135 14 188 -4z m-5447 -7520 c91 -19 211 -77 290 -139 290 -232 351 -657 137 -961 -134 -193 -349 -305 -583 -305 -537 0 -876 564 -628 1044 58 113 181 236 293 294 166 86 308 105 491 67z m3842 0 c248 -52 467 -267 532 -520 24 -94 26 -241 4 -334 -76 -323 -363 -551 -694 -551 -396 0 -710 315 -710 711 0 365 275 671 638 709 81 8 133 5 230 -15z m-3513 -1929 c222 -63 382 -226 453 -459 14 -44 16 -177 19 -984 l4 -932 -961 0 -961 0 4 933 c4 1018 0 957 63 1097 54 121 167 238 289 298 132 65 184 71 650 67 324 -2 389 -5 440 -20z m3840 0 c222 -63 382 -226 453 -459 14 -44 16 -177 19 -984 l4 -932 -961 0 -961 0 4 933 c4 1018 0 957 63 1097 54 121 167 238 289 298 132 65 184 71 650 67 324 -2 389 -5 440 -20z"></path><path d="M8400 13440 l0 -240 2400 0 2400 0 0 240 0 240 -2400 0 -2400 0 0 -240z"></path><path d="M9120 12000 l0 -240 2400 0 2400 0 0 240 0 240 -2400 0 -2400 0 0 -240z"></path><path d="M8160 10560 l0 -240 2400 0 2400 0 0 240 0 240 -2400 0 -2400 0 0 -240z"></path><path d="M9466 5769 c-386 -39 -736 -277 -930 -630 -147 -269 -179 -641 -81 -944 47 -145 135 -299 242 -422 l53 -61 -47 -28 c-273 -158 -469 -435 -528 -747 -13 -68 -15 -239 -15 -1181 0 -1051 1 -1103 19 -1141 10 -22 34 -54 52 -72 71 -67 -23 -63 1371 -63 1205 0 1265 1 1304 19 48 22 111 92 125 141 7 23 9 406 7 1155 l-3 1120 -28 100 c-38 137 -121 301 -205 405 -92 114 -176 185 -336 285 -14 9 -8 19 40 75 196 226 294 490 294 789 0 253 -61 461 -194 665 -172 265 -472 465 -780 520 -110 20 -253 26 -360 15z m290 -505 c91 -19 211 -77 290 -139 290 -232 351 -657 137 -961 -134 -193 -349 -305 -583 -305 -537 0 -876 564 -628 1044 58 113 181 236 293 294 166 86 308 105 491 67z m329 -1929 c222 -63 382 -226 453 -459 14 -44 16 -177 19 -984 l4 -932 -961 0 -961 0 4 933 c4 1018 0 957 63 1097 54 121 167 238 289 298 132 65 184 71 650 67 324 -2 389 -5 440 -20z"></path><path d="M13306 5769 c-386 -39 -736 -277 -930 -630 -147 -269 -179 -641 -81 -944 47 -145 135 -299 242 -422 l53 -61 -47 -28 c-273 -158 -469 -435 -528 -747 -13 -68 -15 -239 -15 -1181 0 -1051 1 -1103 19 -1141 10 -22 34 -54 52 -72 71 -67 -23 -63 1371 -63 1205 0 1265 1 1304 19 48 22 111 92 125 141 7 23 9 406 7 1155 l-3 1120 -28 100 c-38 137 -121 301 -205 405 -92 114 -176 185 -336 285 -14 9 -8 19 40 75 196 226 294 490 294 789 0 253 -61 461 -194 665 -172 265 -472 465 -780 520 -110 20 -253 26 -360 15z m290 -505 c91 -19 211 -77 290 -139 290 -232 351 -657 137 -961 -134 -193 -349 -305 -583 -305 -537 0 -876 564 -628 1044 58 113 181 236 293 294 166 86 308 105 491 67z m329 -1929 c222 -63 382 -226 453 -459 14 -44 16 -177 19 -984 l4 -932 -961 0 -961 0 4 933 c4 1018 0 957 63 1097 54 121 167 238 289 298 132 65 184 71 650 67 324 -2 389 -5 440 -20z"></path></g></svg>