<svg xmlns="http://www.w3.org/2000/svg" width="1536.000000pt" height="1536.000000pt" viewBox="0 0 1536.000000 1536.000000" preserveAspectRatio="xMidYMid meet"><metadata>
Created by potrace 1.16, written by Peter Selinger 2001-2019
</metadata><g transform="translate(0.000000,1536.000000) scale(0.100000,-0.100000)" fill="#000000" stroke="none"><path d="M7430 15354 c-571 -71 -1028 -295 -1415 -695 -56 -57 -124 -133 -152 -169 -199 -256 -364 -608 -432 -923 -42 -193 -51 -328 -51 -747 l0 -394 -40 -58 c-95 -135 -140 -280 -140 -453 0 -139 23 -236 84 -360 58 -115 117 -190 214 -267 96 -76 209 -131 333 -160 l96 -23 11 -68 c17 -98 94 -322 148 -430 111 -220 302 -461 462 -578 l42 -31 0 -212 0 -212 -152 -58 c-84 -32 -272 -105 -418 -161 -146 -57 -454 -176 -685 -265 -943 -363 -964 -372 -1142 -496 -114 -80 -294 -251 -373 -355 -178 -237 -288 -513 -319 -797 -7 -69 -11 -466 -11 -1192 l0 -1090 -530 0 -530 0 0 1429 0 1429 210 274 c115 150 339 442 497 649 159 207 295 386 304 399 l15 23 84 -22 c290 -79 586 2 800 219 151 153 224 317 237 530 13 233 -75 467 -238 629 -119 118 -238 184 -399 223 -70 17 -107 19 -215 15 -157 -6 -218 -21 -353 -88 -196 -98 -335 -261 -406 -475 -35 -104 -44 -194 -35 -318 12 -145 60 -290 130 -393 l31 -44 -78 -102 c-43 -56 -124 -160 -179 -232 -56 -71 -127 -164 -157 -205 -31 -41 -99 -131 -152 -200 -53 -69 -147 -192 -210 -275 -63 -82 -160 -211 -216 -284 -57 -74 -109 -150 -116 -168 -12 -27 -14 -286 -14 -1523 l0 -1490 -197 0 c-109 0 -227 -5 -263 -11 -144 -23 -289 -127 -357 -255 -62 -117 -63 -125 -63 -809 0 -386 4 -644 11 -685 34 -210 219 -387 426 -407 l63 -6 0 -1282 c0 -811 4 -1302 10 -1335 25 -134 127 -263 259 -328 l75 -37 2630 -3 c1876 -2 2642 0 2669 8 86 25 146 112 147 213 0 89 -43 166 -114 205 -29 16 -199 17 -2621 22 l-2590 5 -3 1268 -2 1267 5630 0 5630 0 -2 -1267 -3 -1268 -2590 -5 c-2389 -5 -2592 -6 -2620 -22 -74 -41 -115 -114 -115 -205 1 -101 61 -188 147 -213 27 -8 793 -10 2668 -8 l2630 3 68 33 c135 66 237 193 266 330 8 37 11 433 11 1336 l0 1283 63 6 c69 7 151 37 213 78 59 40 138 130 168 192 55 112 57 142 54 841 -3 631 -4 642 -25 706 -61 179 -210 306 -395 339 -35 6 -153 11 -261 11 l-197 0 0 1493 c0 1417 -1 1495 -18 1527 -10 19 -78 114 -152 210 -73 96 -183 240 -244 320 -61 80 -141 186 -179 235 -38 50 -114 149 -168 220 -54 72 -157 207 -228 302 l-131 171 39 64 c48 81 88 181 108 272 19 89 12 282 -12 376 -74 281 -300 509 -580 586 -88 24 -293 30 -386 11 -320 -66 -567 -307 -640 -624 -18 -79 -21 -113 -16 -216 10 -229 79 -389 237 -547 124 -124 223 -182 391 -227 101 -27 301 -24 407 6 83 23 83 23 97 4 8 -11 63 -83 122 -161 113 -147 201 -262 418 -547 72 -94 208 -273 303 -398 l172 -226 0 -1426 0 -1425 -529 0 -530 0 -3 353 c-3 340 -4 353 -25 393 -27 51 -80 98 -128 114 -20 7 -66 10 -101 8 -82 -5 -136 -41 -176 -117 l-28 -53 0 -349 0 -349 -485 0 -485 0 0 903 0 903 -26 52 c-28 57 -93 107 -151 118 -122 23 -241 -49 -273 -165 -6 -23 -10 -360 -10 -923 l0 -888 -678 0 -678 0 -87 523 c-48 287 -134 801 -192 1142 l-104 620 51 78 c28 42 52 77 54 77 2 0 32 -15 66 -34 121 -66 239 -68 351 -8 103 55 107 62 413 674 157 315 287 574 289 576 2 2 101 -35 275 -103 158 -62 634 -247 787 -305 198 -76 234 -92 312 -142 323 -203 523 -523 561 -897 5 -57 10 -206 10 -331 l0 -228 28 -52 c39 -76 95 -113 176 -118 81 -5 128 10 183 61 65 60 73 98 73 356 0 344 -24 534 -90 734 -125 376 -417 717 -782 915 -59 33 -445 186 -1173 467 -33 12 -130 50 -215 83 -386 151 -477 186 -655 254 l-190 73 0 223 -1 222 72 64 c261 230 448 538 529 872 14 60 28 118 30 129 4 17 22 25 101 44 374 90 625 408 625 791 0 174 -51 339 -145 470 l-34 47 -5 434 c-5 479 -10 534 -73 784 -136 543 -481 1024 -959 1337 -194 128 -394 220 -614 282 -215 62 -337 78 -596 81 -126 2 -246 1 -265 -1z m360 -454 c242 -19 453 -76 665 -180 554 -272 930 -795 1010 -1406 10 -75 15 -198 15 -355 0 -221 -1 -239 -17 -239 -31 0 -42 14 -53 65 -13 58 -55 125 -131 210 -172 191 -484 517 -513 534 -58 36 -118 52 -196 52 -96 1 -139 -16 -300 -113 -575 -347 -1251 -528 -1875 -503 -153 6 -176 4 -233 -13 -98 -31 -169 -91 -217 -184 -14 -27 -29 -48 -34 -48 -5 0 -23 -3 -40 -6 l-31 -6 0 231 c0 334 22 500 95 719 183 545 608 971 1151 1151 183 61 314 84 559 99 11 1 76 -3 145 -8z m993 -2047 l178 -192 -4 -723 c-4 -786 -3 -770 -63 -953 -80 -239 -224 -445 -421 -603 -342 -271 -777 -349 -1213 -216 -90 28 -255 106 -330 157 -282 192 -469 469 -542 807 -20 89 -21 134 -25 735 l-4 640 178 1 c650 4 1311 188 1903 528 l115 66 25 -28 c14 -15 105 -114 203 -219z m779 -687 c167 -167 119 -454 -94 -562 l-48 -24 0 340 0 341 51 -27 c28 -16 69 -46 91 -68z m-3662 -256 l0 -330 -47 24 c-62 31 -122 92 -158 158 -22 41 -30 69 -33 129 -5 91 12 151 62 220 30 41 144 129 167 129 5 0 9 -145 9 -330z m-1997 -1440 c74 -35 142 -102 179 -178 30 -60 33 -75 33 -157 0 -79 -4 -97 -29 -150 -39 -80 -119 -157 -193 -186 -85 -34 -208 -33 -283 2 -77 37 -145 101 -183 173 -29 57 -32 68 -32 161 0 90 3 106 29 160 88 178 304 257 479 175z m7863 -5 c71 -35 134 -98 170 -170 26 -54 29 -70 29 -160 0 -93 -3 -104 -32 -161 -38 -72 -106 -136 -183 -173 -75 -35 -198 -36 -283 -2 -74 29 -154 106 -193 186 -25 53 -29 71 -29 150 0 82 3 97 33 157 91 185 306 262 488 173z m-3473 -980 c-10 -12 -152 -187 -316 -389 -235 -288 -301 -363 -310 -354 -7 7 -86 105 -177 218 -90 113 -227 281 -302 374 l-138 170 0 124 c0 82 3 121 10 117 6 -4 57 -20 113 -36 327 -93 714 -87 1042 18 l90 29 3 -124 c2 -106 0 -127 -15 -147z m-1437 -473 c109 -136 278 -347 407 -505 46 -56 76 -102 71 -106 -9 -9 -136 -100 -239 -173 -27 -19 -105 -74 -173 -121 l-123 -87 -235 472 c-129 260 -233 477 -230 483 2 6 55 30 117 54 63 24 152 58 199 76 47 19 90 34 95 34 6 0 56 -57 111 -127z m1907 72 c78 -31 167 -65 197 -76 30 -11 59 -24 63 -28 5 -4 -99 -222 -230 -484 l-238 -477 -87 63 c-48 35 -126 90 -173 123 -46 33 -130 92 -184 131 l-100 71 222 275 c355 438 372 458 380 458 4 0 71 -25 150 -56z m-2587 -842 c238 -480 288 -574 326 -612 124 -125 291 -148 447 -64 35 19 64 34 66 32 1 -2 24 -37 52 -78 l49 -75 -17 -100 c-9 -55 -47 -273 -83 -485 -36 -212 -93 -542 -126 -735 -33 -192 -83 -488 -112 -657 l-52 -308 -673 0 -673 0 0 875 c0 594 -3 890 -11 925 -37 175 -254 239 -383 114 -70 -68 -66 -9 -66 -1010 l0 -904 -485 0 -486 0 4 1138 3 1137 22 85 c85 322 276 578 560 749 89 54 78 49 642 266 555 214 546 211 630 244 41 17 77 30 80 30 3 1 132 -255 286 -567z m1640 -262 c69 -49 132 -93 140 -98 13 -7 9 -20 -30 -80 l-46 -72 -200 0 -200 0 -47 71 c-36 56 -43 73 -32 80 8 4 70 48 139 98 69 49 131 90 138 90 7 1 69 -39 138 -89z m-6 -727 c0 -10 29 -189 65 -398 50 -293 180 -1062 282 -1662 l6 -33 -482 0 c-340 0 -481 3 -481 11 0 6 38 237 85 512 168 994 194 1145 231 1365 l38 222 128 0 c115 0 128 -2 128 -17z m5982 -2570 c17 -15 18 -47 18 -611 0 -540 -2 -597 -17 -614 -16 -17 -219 -18 -6111 -18 -5658 0 -6097 1 -6114 17 -17 15 -18 47 -18 611 0 540 2 597 17 614 16 17 219 18 6111 18 5658 0 6097 -1 6114 -17z"></path></g></svg>