<svg xmlns="http://www.w3.org/2000/svg" width="800.000000pt" height="800.000000pt" viewBox="0 0 800.000000 800.000000" preserveAspectRatio="xMidYMid meet"><metadata>
Created by potrace 1.16, written by Peter Selinger 2001-2019
</metadata><g transform="translate(0.000000,800.000000) scale(0.100000,-0.100000)" fill="#000000" stroke="none"><path d="M3555 7864 c-209 -74 -411 -146 -450 -160 -78 -28 -205 -74 -725 -259 -195 -70 -423 -151 -506 -180 -84 -30 -210 -75 -280 -101 -131 -47 -223 -80 -649 -231 -248 -88 -468 -166 -639 -228 -141 -50 -177 -68 -221 -106 -114 -101 -114 -296 1 -400 42 -37 49 -40 469 -189 121 -44 328 -118 460 -165 132 -48 258 -93 280 -100 45 -15 635 -227 677 -244 l28 -11 0 -440 0 -441 25 -48 c103 -205 546 -339 1340 -407 151 -13 307 -18 635 -18 490 0 658 11 1050 64 505 68 839 196 923 354 22 40 22 50 27 490 l5 449 189 69 c104 37 192 68 197 68 4 0 7 -80 7 -177 -1 -164 1 -182 22 -231 28 -66 92 -123 161 -145 72 -24 367 -24 436 -1 70 24 131 78 161 142 24 54 25 58 24 318 0 221 -3 271 -17 314 -9 29 -13 55 -9 60 5 4 72 30 149 57 546 196 549 197 589 233 117 105 115 301 -3 402 -25 21 -77 49 -129 68 -139 51 -747 269 -867 310 -60 21 -218 78 -350 125 -132 48 -301 108 -375 135 -74 26 -229 82 -345 123 -115 41 -255 91 -310 110 -55 19 -156 55 -225 81 -221 80 -879 316 -1068 382 -259 90 -220 94 -687 -72z m690 -224 c105 -37 255 -92 335 -120 80 -29 251 -90 380 -137 129 -47 303 -109 385 -138 83 -29 220 -78 305 -108 85 -31 214 -77 285 -102 224 -80 394 -141 563 -201 l162 -58 0 -331 0 -330 -56 -29 c-31 -16 -77 -53 -104 -84 l-49 -55 -218 -79 c-120 -43 -221 -78 -225 -78 -5 0 -8 89 -8 198 0 186 -2 200 -24 248 -83 179 -453 313 -1056 383 -324 37 -495 46 -920 46 -993 0 -1680 -125 -1919 -349 -75 -71 -81 -92 -81 -323 0 -112 -3 -203 -6 -203 -3 0 -108 36 -232 81 -125 45 -357 128 -517 184 -159 57 -398 143 -530 190 -132 47 -282 100 -333 118 -50 17 -92 34 -92 37 0 3 55 24 123 48 196 69 284 101 412 147 66 24 199 72 295 105 96 34 218 77 270 95 52 18 147 52 210 75 124 45 608 217 860 307 85 30 191 67 235 83 87 31 557 199 645 232 30 10 136 48 235 83 99 35 236 83 305 108 101 36 130 43 150 35 14 -5 111 -40 215 -78z m2980 -1065 c83 -29 220 -78 306 -109 87 -31 162 -56 168 -56 40 0 -17 -25 -222 -97 -405 -144 -481 -171 -509 -182 l-28 -11 0 280 0 279 68 -25 c37 -14 135 -50 217 -79z m-2955 -185 c412 -16 712 -48 1000 -106 134 -28 319 -84 385 -116 82 -41 75 18 75 -625 0 -315 -1 -573 -3 -573 -2 0 -32 12 -68 26 -159 63 -476 127 -814 164 -479 52 -1176 54 -1645 5 -429 -45 -688 -99 -912 -190 -17 -7 -18 24 -18 573 l0 580 44 26 c88 51 293 110 525 151 316 55 612 80 1111 93 30 1 174 -3 320 -8z m2596 -549 c57 -35 64 -66 64 -295 l0 -206 -130 0 -130 0 0 206 c0 172 3 212 17 241 20 43 66 73 113 73 19 0 49 -9 66 -19z m-2243 -937 c469 -36 953 -138 1066 -224 l25 -18 -50 -25 c-153 -78 -488 -151 -869 -191 -262 -28 -455 -36 -795 -36 -340 0 -533 8 -795 36 -381 40 -716 113 -869 191 l-50 25 25 18 c58 45 284 112 511 154 249 46 581 79 898 90 185 6 718 -5 903 -20z"></path><path d="M324 3851 c-140 -64 -245 -340 -301 -791 -15 -122 -18 -224 -18 -640 0 -524 6 -622 50 -885 64 -377 190 -605 335 -605 17 0 169 20 338 44 619 90 1358 161 1922 185 129 6 297 13 373 17 75 3 137 4 137 1 0 -2 -34 -85 -76 -183 -168 -397 -194 -467 -194 -526 0 -110 48 -192 141 -243 74 -40 155 -40 257 0 39 15 74 26 76 24 1 -2 18 -37 36 -77 53 -116 133 -171 246 -172 132 0 217 60 271 192 102 247 207 494 212 501 4 4 24 -35 45 -85 174 -428 199 -482 251 -533 56 -57 102 -75 187 -75 118 0 212 64 257 176 13 32 27 63 32 68 4 4 36 -3 71 -17 91 -36 147 -42 214 -22 64 19 134 77 167 140 32 60 30 161 -5 245 -15 36 -74 179 -132 319 -58 139 -106 255 -106 258 0 6 211 -4 575 -28 580 -38 1011 -83 1633 -171 337 -47 339 -47 416 29 93 94 166 282 211 548 39 233 46 334 52 721 9 619 -27 996 -123 1283 -41 122 -77 190 -136 253 -73 78 -81 79 -426 30 -625 -88 -1050 -132 -1692 -176 -963 -67 -2289 -66 -3245 0 -637 44 -1205 104 -1747 184 -236 35 -250 36 -304 11z m7280 -351 c46 -139 81 -350 107 -645 19 -211 16 -774 -5 -975 -29 -287 -72 -515 -117 -621 l-20 -45 -157 23 c-686 101 -1462 175 -2147 203 -143 6 -265 13 -272 15 -8 3 -3 27 17 83 118 324 58 672 -161 932 l-46 55 -6 150 c-7 167 -36 408 -67 559 -11 55 -19 100 -18 101 2 1 149 7 328 14 807 30 1737 115 2440 224 47 8 88 11 92 8 4 -3 18 -40 32 -81z m-6719 20 c702 -88 1377 -144 2055 -170 174 -7 277 -15 281 -22 11 -17 48 -201 69 -338 24 -154 40 -367 40 -520 0 -113 -1 -115 -39 -195 -113 -231 -125 -534 -29 -758 11 -26 19 -49 17 -52 -3 -2 -133 -9 -289 -15 -695 -26 -1408 -85 -2109 -175 -107 -14 -196 -23 -198 -21 -2 1 8 45 22 97 72 274 90 476 90 1034 0 604 -22 830 -111 1143 -6 20 -4 22 17 18 13 -3 96 -14 184 -26z m-452 -147 c75 -328 97 -552 97 -979 0 -416 -22 -639 -97 -966 -14 -65 -29 -118 -33 -118 -13 0 -68 254 -94 435 -53 366 -46 1085 14 1405 26 135 74 340 80 340 4 0 19 -53 33 -117z m3999 -78 c20 -70 57 -278 67 -375 6 -58 14 -127 17 -153 5 -46 4 -48 -15 -37 -31 16 -138 47 -205 59 -33 6 -112 11 -177 11 -171 0 -340 -47 -476 -133 -24 -15 -43 -23 -43 -19 0 124 -57 562 -86 665 -5 16 19 17 452 15 l458 -3 8 -30z m-107 -799 c281 -89 466 -339 466 -630 0 -112 -15 -175 -68 -286 -84 -175 -254 -313 -440 -356 -253 -58 -543 50 -682 255 -80 118 -119 224 -127 351 -8 113 13 210 70 325 100 201 272 327 506 369 59 11 198 -3 275 -28z m-712 -1409 c85 -55 165 -93 245 -117 40 -12 72 -24 72 -27 0 -2 -25 -64 -56 -136 -30 -73 -71 -168 -89 -212 -18 -44 -53 -127 -78 -185 -24 -58 -46 -111 -48 -119 -3 -7 -18 17 -34 55 -55 132 -85 184 -118 204 -53 33 -108 26 -227 -29 -58 -27 -107 -47 -108 -45 -3 2 36 97 241 582 l60 142 42 -39 c23 -21 67 -54 98 -74z m1205 58 c10 -27 65 -160 122 -295 56 -135 115 -275 130 -311 l28 -66 -112 48 c-188 82 -231 70 -306 -86 -26 -55 -51 -110 -55 -122 -3 -13 -10 -23 -14 -23 -4 0 -48 100 -98 223 -51 122 -112 270 -136 329 l-45 107 57 16 c115 32 275 117 358 191 27 23 49 41 50 40 1 0 10 -23 21 -51z"></path></g></svg>