<svg xmlns="http://www.w3.org/2000/svg" xmlns:xlink="http://www.w3.org/1999/xlink" width="70px" height="70px" viewBox="0 0 70 70"><title>Group 4</title><g id="Page-1" stroke="none" stroke-width="1" fill="none" fill-rule="evenodd"><g id="Group-3" transform="translate(1.000000, 1.000000)"><g id="hand-loader-left-copy" stroke="#000000" stroke-width="0.5"><circle id="Oval" cx="34" cy="34" r="34"></circle></g><g id="Group-5" transform="translate(17.000000, 21.000000)"><path d="M33.8774074,9.18365658 C34.1576791,10.7956762 34.1305859,12.2278876 33.7948928,13.5623772 C33.2453101,15.7411835 32.2873227,17.5595917 30.9473291,18.9660045 C29.6065635,20.3731991 27.8637227,21.3895064 25.7672809,21.9860005 C24.2042123,22.4308304 22.6125839,22.8576794 21.0725946,23.2696747 L21.0440348,23.2774925 C20.3609931,23.4604278 19.6546405,23.650399 18.9591714,23.8388068 L18.6427754,23.9232384 C18.0236459,24.09132 17.4046707,24.2602616 16.7855411,24.4290467 L16.780987,24.4306103 C14.9909067,24.9185159 13.1407738,25.4226825 11.3159587,25.9066011 C10.6791529,26.0754644 10.0539254,26.014486 9.50820221,25.7307018 C8.9671103,25.449341 8.55878274,24.9794162 8.32575043,24.3704136 C8.29556969,24.2914544 8.26932558,24.209368 8.24771278,24.1272817 C8.11186088,23.6128739 8.14736763,23.0718857 8.35037358,22.5629503 C8.41528917,22.4011229 8.4954881,22.2471915 8.58973535,22.102485 L6.31027953,22.7208688 C6.24860586,22.7380679 6.186855,22.7553451 6.12425507,22.7732477 C5.95752774,22.8201542 5.78547441,22.8686243 5.6024603,22.907713 C4.34891783,23.1766435 3.1795881,22.577804 2.692451,21.4168685 C2.64690974,21.3097653 2.60908734,21.1979715 2.57975568,21.0861777 C2.39295933,20.3810169 2.52495179,19.6570934 2.90857901,19.0723259 C2.90711243,19.0723259 2.90549147,19.0723259 2.9039477,19.0731077 C2.31036755,19.16223 1.73376889,19.0519997 1.23590258,18.7557071 C0.737264383,18.4594145 0.365292638,18.0044215 0.160665724,17.4415437 C0.132877837,17.3649297 0.108254681,17.2867523 0.0873365775,17.2085748 C-0.213621678,16.0687471 0.27953613,14.9171929 1.31540681,14.344152 C1.678965,14.1424541 2.0695392,14.0220607 2.437034,13.9219936 C2.56045854,13.8883773 2.68403745,13.8547609 2.80823386,13.8203629 C2.74802677,13.7867465 2.68936346,13.7500031 2.63224391,13.7101326 C2.15375193,13.375533 1.81095747,12.8611252 1.64199168,12.2224152 C1.63728317,12.2044344 1.63272905,12.1856718 1.62802054,12.1669092 C1.47750282,11.5571248 1.5384818,10.9520312 1.8033158,10.4165154 C2.06799542,9.88334502 2.51113504,9.46665906 3.08696181,9.21336402 C3.24589309,9.14300429 3.39949835,9.102352 3.53457836,9.06639036 C3.55541927,9.06091794 3.57626019,9.05544552 3.5971011,9.04997309 L5.81627265,8.44722473 C9.87646891,7.3441405 14.0754502,6.20431286 18.2058881,5.08637491 C18.2290447,5.08012072 18.2528959,5.07386652 18.2761297,5.06761232 C18.0167761,5.06213989 17.7056289,5.05666747 17.576724,5.05666747 C17.0595606,5.05744925 16.5416252,5.0590128 16.0244618,5.06135812 L16.0060137,5.06135812 C14.8389224,5.06526699 13.6331597,5.06917587 12.442989,5.05979457 C11.3870493,5.05197682 10.5070224,4.68766977 9.89954829,4.00830748 C9.57844382,3.64947285 9.34996563,3.22027849 9.2218326,2.73479635 C9.10913728,2.31107441 9.07525149,1.84748196 9.11917179,1.35887272 C9.18015077,0.680292204 9.59079399,0.280805287 10.2175652,0.288623035 C10.2669659,0.289404809 10.3217698,0.28784126 10.3812822,0.28627771 C10.4367808,0.283932386 10.4946722,0.282368836 10.5556512,0.282368836 C11.6417716,0.281587061 13.1785962,0.224517502 14.8079698,0.163539068 C18.2992863,0.0337644534 22.2566673,-0.113209207 24.7700045,0.133049852 C25.7687475,0.2307717 26.7752865,0.520810147 27.7618337,0.996129218 C28.7443671,1.46910297 29.6614446,2.10468587 30.4865133,2.88333356 C31.3433064,3.69168869 32.0665634,4.62512779 32.6362151,5.65628873 C33.083986,6.46777097 33.4313346,7.33241388 33.6674545,8.22598247 C33.7508181,8.54025593 33.8211369,8.86234714 33.8774074,9.18365658" id="Fill-1" fill="#000000"></path><path d="M1.8417127,14.920857 C2.13749334,14.7577662 2.47258948,14.654883 2.80082828,14.5656098 C4.52050086,14.0983289 16.8076644,10.774768 16.8076644,10.774768 C16.9695742,10.7310157 17.0664915,10.5614659 17.0231377,10.3980675 L17.0136136,10.3623121 C16.9702599,10.1989138 16.8023309,10.1010285 16.6404211,10.1447808 C16.6404211,10.1447808 4.56248312,13.4029824 4.44377466,13.4160543 C3.45631535,13.5249353 2.72425446,12.993833 2.48226598,12.0154421 C2.26107814,11.1208649 2.67861495,10.2777294 3.53601307,9.90125963 C3.66615045,9.84412787 3.80741199,9.81090995 3.94532105,9.77361668 C8.75148973,8.47311958 13.5574298,7.17162286 18.3647414,5.87581626 C19.0625155,5.68765825 19.1137933,5.71756976 19.3563913,6.41091703 C19.8482162,7.81714247 20.6465648,9.02759747 21.656501,10.1041812 C21.8123916,10.2704246 21.9773491,10.4387441 22.168517,10.5560833 C22.2606341,10.6126768 22.4713074,10.6019887 22.5411,10.5327847 C22.6167595,10.4577367 22.645789,10.2525084 22.5974065,10.1514706 C22.5138992,9.97692268 22.3629611,9.83136358 22.2262712,9.68703478 C21.5739842,8.99807043 20.9597936,8.27473475 20.5560477,7.40891572 C20.242438,6.73648344 19.9890967,6.0346779 19.7277553,5.33871626 C19.5124343,4.91095859 19.1039644,4.54571522 18.6365975,4.52610742 C18.4367436,4.51772604 17.7689133,4.50488485 17.5686785,4.50511553 C15.8815403,4.50726855 14.1941735,4.5217245 12.5071114,4.50834505 C10.7740289,4.49465804 9.73894905,3.32764778 9.89407768,1.61192663 C9.91861178,1.33980109 10.003643,1.17601827 10.2966807,1.17978604 C10.41097,1.18124702 10.5253354,1.17386526 10.6397009,1.17378836 C13.9283366,1.17040506 20.9701559,0.668599104 24.6047833,1.02338499 C28.2393346,1.37817087 32.1650187,4.62130137 32.9938445,9.36492856 C33.2309566,10.7216347 33.2556431,12.0690367 32.9228327,13.3840667 C31.9100012,17.3860576 29.4609345,20.050335 25.4715531,21.1814361 C23.2416932,21.81373 20.9980424,22.3964278 18.7606394,23.0014246 C18.7604871,23.0010401 18.7604109,23.0005788 18.7602585,23.0001943 C16.2466564,23.6799315 13.7353401,24.3689727 11.2180808,25.0346384 C10.2638416,25.2870023 9.40994833,24.8281797 9.06837579,23.9372935 C8.74996587,23.1069992 9.13694935,22.118689 9.98147088,21.6818579 C10.2828136,21.5259183 10.6143287,21.4178831 10.9427199,21.3279948 C11.550434,21.1618283 12.1586053,20.9975072 12.7665481,20.8324172 L19.0283811,19.1391489 C19.1902909,19.0953966 19.2873606,18.9258468 19.2439307,18.7624484 L19.2344066,18.726693 C19.1910528,18.5632947 19.0231238,18.4654094 18.861214,18.5091617 L18.54829,18.5938213 C18.3508743,18.6138136 18.1541444,18.6904762 17.9581764,18.7434558 C14.063198,19.7959718 10.1684481,20.8494106 6.27362211,21.9024649 C6.05266285,21.9622111 5.83330364,22.0301079 5.60975382,22.0778587 C4.69338244,22.2737829 3.8500038,21.8451794 3.49928812,21.01204 C3.15733461,20.1998157 3.46180123,19.2530279 4.26312142,18.7673696 C4.55059704,18.5932062 4.88698846,18.4850172 5.21423675,18.3958979 C9.16247395,17.3209289 17.917337,14.9545363 17.917337,14.9545363 C18.079323,14.910784 18.1763165,14.7413111 18.1328866,14.5779127 L18.1233625,14.5420804 C18.0800087,14.3786821 17.9120797,14.2807968 17.7501699,14.324626 C17.7501699,14.324626 7.96136989,16.9699108 3.73563833,18.1118538 C3.48717345,18.1790586 3.23992766,18.2604887 2.98658644,18.2983202 C2.10564473,18.4301154 1.31194383,17.954607 1.01242974,17.1330785 C0.701867689,16.2811003 1.02797308,15.3695297 1.8417127,14.920857" id="Fill-3" fill="#EEEBE9"></path></g></g></g></svg>