<svg xmlns="http://www.w3.org/2000/svg" xmlns:xlink="http://www.w3.org/1999/xlink" width="70px" height="70px" viewBox="0 0 70 70"><title>Group 2</title><g id="Page-1" stroke="none" stroke-width="1" fill="none" fill-rule="evenodd"><g id="Group-2" transform="translate(1.000000, 1.000000)"><g id="hand-loader-left" stroke="#000000" stroke-width="0.5"><circle id="Oval" cx="34" cy="34" r="34"></circle></g><g id="Group" transform="translate(17.000000, 21.000000)" fill-rule="nonzero"><path d="M32.1286367,13.8053984 C36.0605325,14.2965416 35.8860987,19.2454531 32.0239764,19.0682043 C33.3005145,20.8851997 31.4515165,23.4744377 29.2346218,22.8942797 C28.7200421,22.7779358 26.7370473,22.2313536 26.1844094,22.094708 C27.49742,23.9429367 25.58182,26.5719972 23.3657181,25.8895502 C21.2526908,25.342968 18.4625433,24.6027396 16.2020402,24.0046224 L16.2020402,24.0046224 C13.7322165,23.3495046 10.9103537,22.6342628 8.52061103,21.97446 C2.76245301,20.5233744 -0.877438248,14.9360018 0.183469488,9.17662795 C0.874861541,4.69777717 5.02004233,0.527354915 9.54739166,0.128349903 C13.4325076,-0.206626908 20.453467,0.206433076 24.8436479,0.324338666 C26.1994741,0.695233737 25.6444575,3.31180085 24.830169,4.01611107 C24.204586,4.69699634 23.2983233,5.06164475 22.2136623,5.06945307 C20.9910402,5.07960388 16.5445647,5.06945307 16.2932215,5.07569972 C20.0847774,6.07047934 28.4425339,8.2817948 31.3040406,9.03529741 C33.6890261,9.44757656 34.121939,12.6770966 32.1286367,13.8053984 Z" id="Path" fill="#000000"></path><path d="M33.0207679,14.9050447 C35.2079633,16.2385477 33.36447,19.0984503 31.0788508,18.0691598 C27.1379933,17.2884239 14.3850816,13.0469849 16.5769638,14.9477412 C16.7081956,15.0529576 26.743517,17.4348119 30.5383011,18.7187564 C31.3600616,19.2006169 31.671737,20.1391773 31.3194423,20.9450736 C30.9601173,21.7707932 30.095394,22.1954709 29.1556811,22.0018118 C25.2882509,21.0060686 16.1660836,18.578468 15.8911218,18.547208 L15.6083487,18.4709643 C15.2177781,18.3596484 15.0349911,18.998571 15.4364977,19.0961629 C16.0668786,19.2616119 23.646292,21.1661804 24.6742738,21.6068692 C25.5397783,22.0406961 25.9365981,23.0204281 25.6116433,23.8438604 C25.2616921,24.7267629 24.3860327,25.181938 23.4080439,24.9318586 C20.8302779,24.2715878 15.6747457,22.9152117 15.6747457,22.9159742 C13.3805339,22.315936 11.080073,21.7380084 8.79445377,21.1112849 C-2.41492289,18.2422331 -1.01824237,2.52001209 9.68339249,1.12475171 C13.6039403,0.770980767 20.7865339,1.28257624 24.3524437,1.27723918 C24.653183,1.27723918 24.7430143,1.43582615 24.7656674,1.70572898 C24.9218956,3.40672675 23.8634492,4.56410668 22.086353,4.57706812 C20.5771881,4.58926711 15.2123101,4.60299099 13.7359532,4.61214024 L10.6434151,3.80319419 C10.5633423,3.78224038 10.4780205,3.7932045 10.4062327,3.83367284 C10.3344449,3.87414119 10.2820764,3.94079617 10.2606559,4.01896396 C10.2208978,4.10289699 10.2204489,4.19954671 10.2594259,4.28382808 C10.2984028,4.36810944 10.3729623,4.43171197 10.4637526,4.45812789 L30.864037,9.79518947 C33.2113664,10.1764082 32.7208097,13.7194546 30.3531706,13.4068553 C30.100862,13.367971 21.3966052,11.0844711 17.8861566,10.1733584 C17.7999602,10.1521621 17.7086066,10.1672467 17.63435,10.2149376 C17.5600935,10.2626285 17.5097509,10.3385475 17.4955859,10.4242003 C17.5994777,11.3276886 30.847633,13.8605055 33.0207679,14.9050447 Z" id="Path" fill="#EEEBE9"></path></g><g id="Group-Copy" transform="translate(17.000000, 21.000000)" fill-rule="nonzero"><path d="M32.1286367,13.8053984 C36.0605325,14.2965416 35.8860987,19.2454531 32.0239764,19.0682043 C33.3005145,20.8851997 31.4515165,23.4744377 29.2346218,22.8942797 C28.7200421,22.7779358 26.7370473,22.2313536 26.1844094,22.094708 C27.49742,23.9429367 25.58182,26.5719972 23.3657181,25.8895502 C21.2526908,25.342968 18.4625433,24.6027396 16.2020402,24.0046224 L16.2020402,24.0046224 C13.7322165,23.3495046 10.9103537,22.6342628 8.52061103,21.97446 C2.76245301,20.5233744 -0.877438248,14.9360018 0.183469488,9.17662795 C0.874861541,4.69777717 5.02004233,0.527354915 9.54739166,0.128349903 C13.4325076,-0.206626908 20.453467,0.206433076 24.8436479,0.324338666 C26.1994741,0.695233737 25.6444575,3.31180085 24.830169,4.01611107 C24.204586,4.69699634 23.2983233,5.06164475 22.2136623,5.06945307 C20.9910402,5.07960388 16.5445647,5.06945307 16.2932215,5.07569972 C20.0847774,6.07047934 28.4425339,8.2817948 31.3040406,9.03529741 C33.6890261,9.44757656 34.121939,12.6770966 32.1286367,13.8053984 Z" id="Path" fill="#000000"></path><path d="M33.0207679,14.9050447 C35.2079633,16.2385477 33.36447,19.0984503 31.0788508,18.0691598 C27.1379933,17.2884239 14.3850816,13.0469849 16.5769638,14.9477412 C16.7081956,15.0529576 26.743517,17.4348119 30.5383011,18.7187564 C31.3600616,19.2006169 31.671737,20.1391773 31.3194423,20.9450736 C30.9601173,21.7707932 30.095394,22.1954709 29.1556811,22.0018118 C25.2882509,21.0060686 16.1660836,18.578468 15.8911218,18.547208 L15.6083487,18.4709643 C15.2177781,18.3596484 15.0349911,18.998571 15.4364977,19.0961629 C16.0668786,19.2616119 23.646292,21.1661804 24.6742738,21.6068692 C25.5397783,22.0406961 25.9365981,23.0204281 25.6116433,23.8438604 C25.2616921,24.7267629 24.3860327,25.181938 23.4080439,24.9318586 C20.8302779,24.2715878 15.6747457,22.9152117 15.6747457,22.9159742 C13.3805339,22.315936 11.080073,21.7380084 8.79445377,21.1112849 C-2.41492289,18.2422331 -1.01824237,2.52001209 9.68339249,1.12475171 C13.6039403,0.770980767 20.7865339,1.28257624 24.3524437,1.27723918 C24.653183,1.27723918 24.7430143,1.43582615 24.7656674,1.70572898 C24.9218956,3.40672675 23.8634492,4.56410668 22.086353,4.57706812 C20.5771881,4.58926711 15.2123101,4.60299099 13.7359532,4.61214024 L10.6434151,3.80319419 C10.5633423,3.78224038 10.4780205,3.7932045 10.4062327,3.83367284 C10.3344449,3.87414119 10.2820764,3.94079617 10.2606559,4.01896396 C10.2208978,4.10289699 10.2204489,4.19954671 10.2594259,4.28382808 C10.2984028,4.36810944 10.3729623,4.43171197 10.4637526,4.45812789 L30.864037,9.79518947 C33.2113664,10.1764082 32.7208097,13.7194546 30.3531706,13.4068553 C30.100862,13.367971 21.3966052,11.0844711 17.8861566,10.1733584 C17.7999602,10.1521621 17.7086066,10.1672467 17.63435,10.2149376 C17.5600935,10.2626285 17.5097509,10.3385475 17.4955859,10.4242003 C17.5994777,11.3276886 30.847633,13.8605055 33.0207679,14.9050447 Z" id="Path" fill="#EEEBE9"></path></g></g></g></svg>