<svg xmlns="http://www.w3.org/2000/svg" width="1067.000000pt" height="1067.000000pt" viewBox="0 0 1067.000000 1067.000000" preserveAspectRatio="xMidYMid meet"><metadata>
Created by potrace 1.16, written by Peter Selinger 2001-2019
</metadata><g transform="translate(0.000000,1067.000000) scale(0.100000,-0.100000)" fill="#000000" stroke="none"><path d="M5250 10659 c-680 -62 -1141 -131 -1745 -264 -740 -163 -1272 -425 -1646 -812 -348 -360 -619 -813 -773 -1290 -44 -136 -85 -287 -121 -448 -34 -148 -90 -312 -156 -458 -75 -165 -137 -322 -154 -387 -21 -83 -19 -204 5 -274 46 -135 100 -207 277 -368 66 -60 103 -111 103 -141 0 -27 -195 -409 -304 -595 -122 -208 -348 -542 -504 -746 -181 -235 -232 -338 -232 -472 0 -78 25 -146 86 -230 71 -101 160 -165 394 -285 57 -30 122 -71 143 -91 l39 -37 -4 -68 c-4 -72 -17 -106 -118 -292 -66 -123 -87 -205 -72 -279 15 -70 40 -102 151 -192 67 -54 90 -78 85 -89 -51 -115 -61 -236 -27 -311 26 -59 73 -100 216 -189 65 -40 125 -84 134 -98 28 -43 28 -119 -3 -259 -31 -143 -37 -302 -15 -424 31 -174 101 -340 186 -445 45 -55 145 -131 216 -165 173 -80 317 -81 624 -3 314 80 633 175 982 291 l323 108 65 -49 c233 -175 474 -591 616 -1065 47 -155 63 -184 122 -214 l42 -21 2272 6 c2477 7 2308 2 2365 63 49 53 61 124 34 200 -27 77 -98 209 -166 310 -248 367 -436 974 -526 1704 -9 77 -30 125 -70 160 -42 36 -69 44 -139 38 -38 -3 -64 -12 -89 -32 -75 -57 -81 -109 -41 -386 51 -350 144 -751 238 -1025 68 -197 189 -458 272 -587 26 -38 45 -71 43 -73 -2 -1 -905 -5 -2008 -9 l-2005 -6 -43 133 c-102 315 -263 609 -487 890 -41 51 -75 96 -77 101 -4 9 82 42 341 127 252 84 384 136 521 204 428 214 639 463 666 787 10 110 -23 185 -97 223 -38 20 -123 19 -166 -2 -60 -28 -91 -82 -99 -174 -20 -232 -216 -411 -637 -581 -92 -37 -484 -175 -932 -328 -93 -32 -255 -88 -358 -124 -216 -76 -588 -189 -887 -270 -312 -85 -379 -99 -432 -93 -128 15 -228 102 -272 234 -51 158 -58 264 -25 408 44 196 42 358 -6 464 -58 125 -166 238 -280 293 -27 13 -50 28 -52 33 -2 6 17 41 42 79 63 97 70 159 26 232 -15 24 -178 161 -245 206 -6 4 15 57 57 140 81 160 100 229 101 363 0 233 -94 360 -379 510 -113 59 -194 111 -254 162 l-34 29 26 49 c14 28 78 118 142 200 218 279 447 628 620 940 103 188 230 450 245 505 20 73 17 157 -8 238 -38 123 -91 198 -234 333 -159 150 -164 161 -123 282 15 45 38 105 50 132 13 28 45 100 73 160 67 147 135 350 171 512 109 481 244 808 476 1158 146 220 324 426 475 548 241 194 531 343 922 471 308 100 991 235 1553 306 588 74 975 80 1369 24 126 -18 159 -14 213 25 106 77 93 244 -24 305 -37 19 -240 50 -426 65 -148 13 -488 12 -627 0z"></path><path d="M7040 10654 c-19 -8 -45 -25 -58 -37 -49 -46 -52 -68 -52 -396 0 -279 2 -310 19 -348 22 -47 77 -88 132 -98 75 -14 167 34 195 102 19 44 20 657 1 689 -54 93 -147 127 -237 88z"></path><path d="M4645 9666 c-37 -17 -80 -62 -94 -99 -14 -37 -13 -105 2 -140 7 -15 110 -126 231 -246 187 -188 225 -221 262 -231 78 -22 147 0 197 63 39 48 49 135 22 188 -23 44 -387 413 -444 450 -51 33 -123 39 -176 15z"></path><path d="M9425 9666 c-43 -20 -453 -430 -471 -471 -26 -62 -11 -148 34 -199 44 -49 141 -69 206 -42 41 17 447 417 470 463 9 18 16 56 16 86 0 103 -77 178 -183 177 -23 -1 -55 -7 -72 -14z"></path><path d="M3252 9594 c-122 -36 -242 -84 -370 -148 -339 -170 -590 -396 -804 -722 -203 -310 -313 -579 -412 -1005 -41 -177 -43 -199 -17 -254 22 -48 44 -69 94 -90 52 -21 96 -19 153 10 64 32 85 69 114 200 36 163 89 353 127 455 78 209 214 453 357 635 149 191 361 354 616 473 89 42 248 102 270 102 5 0 35 9 66 21 46 17 61 29 85 67 79 124 -6 283 -150 281 -25 0 -83 -11 -129 -25z"></path><path d="M7030 9424 c-19 -2 -84 -9 -145 -15 -168 -17 -294 -45 -475 -105 -427 -143 -790 -390 -1073 -732 -279 -336 -453 -729 -518 -1165 -22 -151 -26 -490 -8 -655 29 -269 115 -561 240 -810 192 -386 360 -579 784 -902 168 -127 322 -267 391 -354 65 -82 130 -199 140 -251 5 -28 2 -32 -53 -60 -123 -63 -233 -211 -262 -353 -18 -87 -14 -512 5 -591 37 -152 147 -290 277 -352 l64 -30 6 -87 c14 -243 161 -464 382 -576 211 -107 490 -100 685 17 207 124 332 325 355 571 l7 77 57 27 c75 36 199 159 235 233 50 104 56 144 56 411 0 273 -6 317 -56 426 -41 89 -142 195 -221 233 -29 13 -53 29 -53 36 0 22 41 117 75 173 80 131 199 245 502 481 355 276 517 456 691 766 205 366 306 757 305 1188 0 288 -34 525 -109 757 -258 797 -892 1386 -1705 1583 -158 38 -473 70 -579 59z m275 -374 c434 -49 869 -272 1184 -606 697 -737 763 -1860 157 -2662 -125 -164 -240 -269 -546 -499 -121 -91 -279 -239 -375 -354 l-75 -90 0 781 0 780 134 0 c154 0 222 16 321 75 74 45 116 84 163 155 142 214 115 495 -66 679 -95 97 -201 146 -339 158 -209 17 -425 -102 -518 -286 -42 -83 -56 -146 -62 -283 l-6 -138 -167 0 -167 0 -6 138 c-3 80 -12 158 -21 187 -84 271 -363 434 -635 370 -258 -61 -435 -296 -417 -552 16 -218 145 -396 345 -475 47 -18 81 -23 209 -26 l152 -4 0 -776 0 -777 -42 50 c-109 131 -319 325 -493 455 -239 180 -401 339 -514 509 -230 346 -342 693 -358 1106 -6 184 6 326 43 493 162 730 712 1328 1404 1527 239 69 469 90 695 65z m-788 -1992 c42 -38 53 -78 53 -193 l0 -105 -100 0 c-112 0 -150 11 -192 56 -92 99 -44 253 88 282 48 11 116 -7 151 -40z m1402 15 c78 -59 98 -169 44 -242 -41 -55 -87 -71 -205 -71 l-108 0 0 102 c0 82 4 110 21 144 44 92 169 125 248 67z m-639 -1648 l0 -975 -170 0 -170 0 0 975 0 975 170 0 170 0 0 -975z m433 -1359 c43 -18 84 -67 97 -118 7 -25 10 -117 8 -242 -3 -228 -7 -242 -79 -292 l-42 -29 -551 -3 c-303 -2 -570 0 -594 3 -49 7 -112 57 -131 103 -8 20 -11 100 -9 260 3 260 5 264 84 309 l39 23 573 0 c461 0 579 -3 605 -14z m-256 -1095 c-12 -105 -91 -212 -194 -263 -57 -28 -76 -32 -147 -32 -71 -1 -89 3 -146 31 -101 48 -155 109 -189 210 -38 114 -73 103 330 103 l352 0 -6 -49z"></path><path d="M3652 7273 c-128 -63 -132 -249 -7 -320 39 -22 47 -23 355 -22 353 0 356 0 414 72 28 35 31 46 31 105 0 58 -4 72 -30 109 -50 71 -62 73 -418 73 -267 0 -317 -3 -345 -17z"></path><path d="M9870 7268 c-75 -38 -110 -116 -90 -202 12 -53 38 -86 90 -113 42 -23 49 -23 350 -23 335 0 350 2 402 57 65 68 64 176 -1 251 -42 49 -68 52 -399 52 -299 0 -309 -1 -352 -22z"></path><path d="M1524 7101 c-34 -15 -82 -69 -94 -107 -59 -179 158 -323 294 -196 81 76 73 220 -16 283 -25 18 -48 24 -98 26 -36 2 -74 -1 -86 -6z"></path></g></svg>