<svg xmlns="http://www.w3.org/2000/svg" id="Layer_1" data-name="Layer 1" viewBox="0 0 98.39 137.5"><path d="M46,59V55c-18.89,1.35-34.9,14.66-42,33.2v-60H0v137.5H4V107.35h0C5.18,81.58,23.33,60.78,46,59Z" transform="translate(-0.04 -28.21)"></path><path d="M50.79,54.92v4c24.21.94,43.64,23.44,43.64,51,0,28.13-20.28,51-45.22,51-14.53,0-27.47-7.78-35.75-19.83l-3.34,2.18c9,13.15,23.17,21.65,39.09,21.65,27.14,0,49.22-24.68,49.22-55C98.41,80.14,77.2,55.86,50.79,54.92Z" transform="translate(-0.04 -28.21)"></path></svg>