<svg xmlns="http://www.w3.org/2000/svg" width="746.000000pt" height="492.000000pt" viewBox="0 0 746.000000 492.000000" preserveAspectRatio="xMidYMid meet"><metadata>
Created by potrace 1.16, written by Peter Selinger 2001-2019
</metadata><g transform="translate(0.000000,492.000000) scale(0.100000,-0.100000)" fill="#000000" stroke="none"><path d="M470 4894 c-209 -51 -384 -229 -440 -450 -20 -76 -20 -119 -20 -1984 0 -1879 0 -1908 20 -1986 26 -101 57 -164 117 -239 84 -104 183 -168 314 -205 73 -20 90 -20 3269 -20 3179 0 3196 0 3269 20 131 37 230 101 314 205 60 75 91 138 117 239 20 78 20 107 20 1980 0 2119 5 1971 -71 2126 -75 153 -229 276 -394 315 -87 21 -6430 20 -6515 -1z m4290 -639 l0 -435 -2261 0 -2260 0 3 288 3 287 32 66 c55 111 161 196 276 218 23 5 979 9 2125 10 l2082 1 0 -435z m1070 -347 l0 -783 -172 172 c-95 94 -183 176 -195 182 -28 14 -78 14 -106 0 -12 -6 -100 -88 -194 -182 l-173 -172 0 783 0 782 420 0 420 0 0 -782z m1143 754 c81 -33 168 -116 210 -201 l32 -66 3 -287 3 -288 -583 0 -583 0 2 222 c1 123 2 319 2 436 l1 213 428 -3 c420 -3 428 -4 485 -26z m-2213 -1449 c0 -426 1 -431 72 -466 72 -35 54 -50 516 406 l62 61 238 -236 c255 -254 268 -263 335 -234 72 30 71 23 71 457 l1 389 583 0 582 0 -2 -1532 -3 -1533 -29 -60 c-56 -114 -170 -203 -288 -225 -32 -6 -1221 -10 -3177 -10 -2757 0 -3134 2 -3185 15 -115 30 -205 105 -259 215 l-32 65 -3 1533 -2 1532 2260 0 2260 0 0 -377z"></path><path d="M924 2949 c-11 -6 -28 -23 -37 -39 -16 -26 -17 -110 -17 -995 0 -1071 -4 -1012 65 -1041 29 -12 186 -14 982 -14 1060 0 998 -4 1035 70 17 33 18 101 18 985 0 884 -1 952 -18 985 -9 19 -28 40 -42 47 -32 16 -1953 18 -1986 2z m1814 -861 c-2 -354 -4 -723 -6 -821 l-3 -177 -109 0 -110 0 0 138 c0 158 -13 221 -66 329 -33 69 -111 161 -177 211 l-28 21 36 50 c93 129 109 315 40 451 -29 58 -107 145 -158 177 -171 108 -399 86 -547 -53 -61 -57 -116 -163 -130 -251 -18 -111 18 -251 86 -341 14 -18 24 -34 23 -36 -40 -26 -116 -98 -143 -135 -93 -127 -126 -238 -126 -433 l0 -128 -110 0 -110 0 0 820 0 820 821 0 820 0 -3 -642z m-754 210 c53 -16 118 -81 134 -134 18 -62 15 -105 -13 -160 -55 -105 -171 -151 -270 -105 -113 53 -164 187 -110 291 33 64 118 119 184 120 18 0 52 -6 75 -12z m42 -665 c97 -33 182 -107 225 -199 20 -42 23 -69 27 -196 l4 -148 -367 0 -367 0 4 143 c3 128 6 147 29 198 81 171 275 260 445 202z"></path><path d="M3784 2336 c-44 -19 -64 -53 -64 -106 1 -48 10 -66 50 -93 23 -16 119 -17 1383 -17 1250 0 1361 1 1387 17 34 20 50 52 50 101 0 47 -22 80 -66 98 -49 21 -2693 20 -2740 0z"></path><path d="M3784 1706 c-44 -19 -64 -53 -64 -106 1 -48 10 -66 50 -93 23 -16 119 -17 1383 -17 1250 0 1361 1 1387 17 34 20 50 52 50 101 0 47 -22 80 -66 98 -49 21 -2693 20 -2740 0z"></path><path d="M3774 1074 c-75 -37 -74 -163 2 -199 29 -14 178 -15 1394 -13 l1362 3 29 33 c41 46 41 108 0 154 l-29 33 -1364 2 c-1212 2 -1366 1 -1394 -13z"></path></g></svg>