<svg xmlns="http://www.w3.org/2000/svg" id="Layer_1" data-name="Layer 1" viewBox="0 0 492.79 927.12"><defs><style>.cls-1{fill:#020202;}.cls-2{fill:#010101;}.cls-3{fill:#030303;}.cls-4{fill:#0a0a0a;}.cls-5{fill:#040404;}.cls-6{fill:#050505;}.cls-7{fill:#121212;}.cls-8{fill:#070707;}.cls-9{fill:#060606;}.cls-10{fill:#131313;}.cls-11{fill:#0f0f0f;}.cls-12{fill:#181818;}.cls-13{fill:#141414;}.cls-14{fill:#1a1a1a;}.cls-15{fill:#111;}.cls-16{fill:#151515;}.cls-17{fill:#1f1f1f;}.cls-18{fill:#1b1b1b;}.cls-19{fill:#1e1e1e;}.cls-20{fill:#101010;}.cls-21{fill:#171717;}.cls-22{fill:#161616;}.cls-23{fill:#2d2d2d;}.cls-24{fill:#2c2c2c;}.cls-25{fill:#323232;}.cls-26{fill:#292929;}.cls-27{fill:#191919;}.cls-28{fill:#3d3d3d;}.cls-29{fill:#1c1c1c;}.cls-30{fill:#202020;}.cls-31{fill:#383838;}.cls-32{fill:#464646;}.cls-33{fill:#242424;}.cls-34{fill:#282828;}.cls-35{fill:#525252;}.cls-36{fill:#262626;}.cls-37{fill:#222;}.cls-38{fill:#2a2a2a;}.cls-39{fill:#1d1d1d;}.cls-40{fill:#424242;}.cls-41{fill:#212121;}.cls-42{fill:#454545;}.cls-43{fill:#575757;}.cls-44{fill:#2e2e2e;}.cls-45{fill:#393939;}.cls-46{fill:#4b4b4b;}.cls-47{fill:#2b2b2b;}.cls-48{fill:#4d4d4d;}.cls-49{fill:#2f2f2f;}.cls-50{fill:#0c0c0c;}.cls-51{fill:#272727;}.cls-52{fill:#0b0b0b;}.cls-53{fill:#313131;}.cls-54{fill:#090909;}.cls-55{fill:#0d0d0d;}.cls-56{fill:#232323;}</style></defs><path class="cls-1" d="M499.64,449.22c-3.89,6.15-9.73,10.79-13.27,17.22-1.41,2.57-4.36,6.11-2.13,7.88,2.73,2.16,5.06-2.3,7.61-3.75,1.18-.68,1.82-2.31,2.7-3.5,2.38-1,3.58-3.43,5.62-4.86,5.43-1.65,7.41-7,11.13-10.45,7-6.9,15.65-11.61,23.81-16.89,8.63-5.58,16.83-11.67,24.93-17.95,2.21-1.71,4.59-3.22,6.77-5,1.71-1.38,3.54-2.18,5.38-.75,2.06,1.6,1.67,4,.58,5.87-1.81,3.14-4,6.09-6.06,9.06a157.49,157.49,0,0,1-18.94,22.07c-2,.77-3.21.06-3.57-2s.65-3.3,4.12-4.41c-3.62.72-3.76.63-5.87,3.64-2.73,3.9-7.68,4.47-10.92,7.65,2.14,1.75,6.9.89,5.83,5.8-4.85,5.91-10.62,10.88-16.25,16-11.87,10.77-22,22.8-28.18,37.82a25,25,0,0,0-1.79,10.21c0,1.06-.28,2.53,1.14,3a3.1,3.1,0,0,0,3.47-1.45c2.26-3,4.73-6,6.42-9.28,2.29-4.48,5.93-7.65,9.28-11.15,1.43-.44,2.87-.87,3.48-2.49.37-1,1.23-2.21,2-2,4.95,1.45,6.44-3.06,9.34-5.14,4.57-3.28,4.8-3.21,8.22,1.34.39,2.49,1.46,1.49,2.18.3a17.79,17.79,0,0,1,9-7.2c2-.83,4.59-1.64,4.76,2.17-6.59,8.17-13.13,16.38-19.77,24.5A108.32,108.32,0,0,0,514.47,542a34.5,34.5,0,0,0-3,11h0c-.72,1-3.13,0-2.08,3.15a18.19,18.19,0,0,1,.21,10.11c1.88,4.87,3.4,1.58,5-.22,1.42-.88,2.26-2.38,3.62-3.32,5.34-1.41,6.73,3.35,8.94,6.2s-.14,5.56-2,7.5-3.41,5-6.46,6c-1,.32-2.67,0-2.18,1.86.4,1.6,1,3.25,2.49,4.16a2.83,2.83,0,0,0,3.65-.51c4.22-4.28,8.14-8.75,8.65-15.16,0-.32.3-.74.16-1-3.13-4.74-1.59-9.87-1.7-15s2.5-11.32,7.53-12.62c2.73-.7,3.58-2.49,5.12-4.52,3.21-4.25,4.55-9.44,7.79-13.48,1.35-1.67,1.58-3,.54-4.31-1.85-2.36-1.38-4.6-.35-7,3.93-6.68,9.59-12.26,12.29-19.74a3.59,3.59,0,0,1,4.52-2.21c1.9.53,2.36,2.14,2.41,3.93.24,9.26-2.28,17.85-5.81,26.33-5,11.94-11.56,23-17.54,34.37-6.41,12.21-9.52,25.65-10.36,39.48-.34,5.63-.22,11.28-.3,16.92-3,3.42-2.2,7.82-3,11.8a3.33,3.33,0,0,0,2.28,4c2.21.73,3.5,2.39,4.66,4.24l.94,2c-.4,4.6.33,8.69,3.39,12.56,2.28,2.86,2.63,6.87,3.59,10.45,1.38,3.57,2.18,7.21,1.07,11-.63,3.43-4.19,2.4-6.59,4.11,2,.86,4.15-.63,5.22,1.15a6.86,6.86,0,0,1,.44,5.16.32.32,0,0,1-.06.52c-.67,5-4.66,8.44-6.23,13.1-.79,2.36-1.85,4.43-1.59,7.06.32,3.15-1.68,5.59-3.16,8.15-1.24,5.74-4.22,10.71-7,15.74a27.8,27.8,0,0,0-8,15.08c-.26.78-.46,1.59-.79,2.35-3.69,8.45-5.64,9.56-14.24,6.37-13.82-5.13-27.68-10-42.24-12.6-6.53-1.16-13.07-2.23-19.61-3.26-4.8-.76-5.52-1.93-3.47-6.34,2.5-5.35,4.65-10.9,8.25-15.68,2-3.56,4.79-6.8,4.93-11.2,2.83-12.48,6.2-24.85,8-37.57,1.92-13.42.24-26.66-3.33-39.47-2.22-8-6.23-15.63-10.33-22.92-7.07-12.54-11-25.78-12.88-40-1.76-13.12-2.87-26.13-1.86-39.32.09-1.14.37-2.26.57-3.39,1-7.56,4.73-14.54,4.79-22.3a.78.78,0,0,1,.25-.69c3-4,3.65-8.92,5.83-13.29,4.16-8.34,10.38-15.41,13.94-24,2.69-2.81,2.73-7.36,6.27-9.62,3.14-2.16,5.2-5.37,7.77-8.08,3.66-5.57,9.16-9.07,14.37-12.91,4.76-1,7.86-4.66,11.67-7.19l-.09-.06c2.87-1.32,6.09-2,8.22-4.65,7.1-2,13.27-6,19.9-9,10.15-4.63,20.77-7.91,31.45-11a4.35,4.35,0,0,1,5.44,2.38c1,2.13-.29,3.83-1.93,5.15a124.59,124.59,0,0,1-19.62,12.5c-4.19.39-7.58,2-10,5.66-1.15,1.72-3.79,1.83-5.18,3.54-3.81,3.5-8.63,5.74-12.11,9.65A67.08,67.08,0,0,0,499.64,449.22Z" transform="translate(-383.36 -129.96)"></path><path class="cls-2" d="M768.18,471c1.23.78,2.43,1.63,3.71,2.33s2.65,2.67,4.31,1.27.18-3.13-.36-4.53c-2.45-6.25-7.36-10.79-11.32-16l-3.25-4.26c-4.54-7.06-10.88-12.37-17.11-17.79-12.4-9.92-26.48-17.21-39.77-25.75-2.22-1.43-4.37-3-6.44-4.62-1.61-1.27-3.1-3-2-5.12a4.61,4.61,0,0,1,5.93-2.32c8.76,2.8,17.71,5,26.1,8.89,5.47,2.52,10.89,5.16,16.41,7.59a6.89,6.89,0,0,1,2.6,2.15c4.93,3.11,11.55,3.42,14.93,9.08,8.41,1.22,12.78,9.17,20.15,12.11l1.13,1.1c5.31,6.23,10.68,12.4,15.67,18.91l.57.83c5.94,10.06,12.42,19.8,17.56,30.31,2,4.2,2.28,9,4.23,13.25,1.31,2.74,1.06,6,2.94,8.55l0,2c-.1,5.2,1.63,10.77-.39,15.49-1.93,4.52-.95,8.41.34,12.23.7,2,1.93,4,2.12,6.25.67,7.67-2.5,14.79-3.21,22.26.07,5.24-2.64,9.76-4.14,14.53-1.2,3.85-1.6,8-3.56,11.62.86,2.13-.89,3.36-1.71,4.91-5.12,9.74-10.64,19.5-13.23,30.14-4.19,17.22-4.63,34.67.89,52,1.7,5.34,2,11.12,3.09,16.67,1.42,7.3,5.55,13.41,8.92,19.86a50.07,50.07,0,0,0,4.2,10.38c.87,1.65,3,3.31,1.67,5.75-3.67,3.67-8.77,2.54-13.07,3.25a246.7,246.7,0,0,0-51.77,14.41c-9.16,3.68-11.26,2.27-15.19-7.58-1.18-6.64-3.88-12.5-8.86-17.18-3.23-6.51-7.49-12.56-9.13-19.81-1.66-5.19-2-10.73-4.21-15.77a23.63,23.63,0,0,1-.37-3.45c-.34-2.31-2.88-4.31-.82-7a16.48,16.48,0,0,1,9-5.86,27.43,27.43,0,0,0,3.08-.84c-1.11.93-3.37.59-5.29,1.48s-4.24.24-6.34-.09c-3.08-.47-5.29-1.58-4.31-5.47.42-1.68-.36-3.57.34-5.32l1.78-9c2-3.38,5-6.2,5.19-10.48,2-7.45,5.9-14.25,5.33-22.64a31.09,31.09,0,0,1,.76-10.7,138.25,138.25,0,0,0-10.18-50.63,10.43,10.43,0,0,1-.3-2c-.06-.67,2.9-2.14-.54-2.07-1.35,0-2.24-1.29-3.1-2.3a189.56,189.56,0,0,1-18.37-39.17c-1.76-5.11-1.88-10.6-2-16-.07-2,.69-3.68,2.87-4a3.84,3.84,0,0,1,4.34,2.63c2.7,7.42,8.2,13,12.32,19.54,1.76,1.9,1.52,5.42,4.86,6.05,1.15,1.27,1.29,3.31,3.09,4.08.84,2,.5,3.62-1.54,4.55-2.92,1.32-3.33-1.91-4.66-2.74,3.08,5.48,4.41,12.42,10.15,16.57a8.49,8.49,0,0,0,1.63,1,13.05,13.05,0,0,1,4.79,4.66c1.57,2.61,2.88,5.24,1,8.28-.34.53-.5,1.59-.13,1.92,3.65,3.23.61,6.39,0,9.56-.87,4.39-.58,8.58,2.17,12.3.87,1.19.51,2.54.83,3.79,1.74,3.37,5.27,3.54,8.06,3.41,3.18-.14,3.61-3.86,4.82-6.3.85-1.72-.34-2.55-1.64-3.54-4.7-3.61-8.58-7.77-8-14.37,1.81-4.66,2.77-4.9,6.3-1.94,2,1.68,3.29,4,5.17,5.75l2.62.87c1.33-6,4.38-11.77,3.47-18.27a6.24,6.24,0,0,0-1.33-3.62c.8-3.24,5.33-6.57,8.72-6.42,3.65.16,5.89,2.91,6.8,7a146.17,146.17,0,0,1,2.61,17c.15,1.47.46,2.44,2.28,2.58,2.57.2,1.49-1.55,1.65-2.64.27-1.8.4-3.61.76-5.41.6-2.93.71-5.8-3.48-6.21-1-.09-2.38-.67-2.46-1.47-.51-5.37-5.74-9.45-3.87-16.32-3.4,4-6.4,6.89-11.16,7.74-2.33.41-1.87,3.71-1.29,6-3.89,3.07-3.92-.9-5.1-2.8-4.23-11.94-10.89-22.49-18.82-32.24-4.35-5.33-9.51-10-13.2-15.88-1.11-3.41.86-5.11,3.67-5.8s5.91-.24,6.39,3c.72,4.83,3.62,4.27,6.86,3.75,3.36.44,4.36,3.78,5.49,5.85,2.22,4.06,5.54,7.29,7.55,11.41.77,4.47,1.43,9,7.55,9.73-6.15-.75-6.8-5.36-7.63-9.85-.64-3.69-1.69-7-4.73-9.74-2.31-2.12-2.22-5.16,1.54-6.62,5.53,1.86,8.23,6.87,11.87,10.8,1.11,1.19,1.81,2.77,3.29,3.62,2.5,3.53,5,7.09,7.52,10.56a3.12,3.12,0,0,0,3.05,1.37c1.83-.36,1.46-2,1.52-3.25a28.74,28.74,0,0,0-4-15.22,119.18,119.18,0,0,0-26.53-33.07c-6.6-5.68-13-11.61-18.48-18.49-.83-3.75,1-6.45,3.61-5.08,4.41,2.27,9.26,3.25,14.41,5.64a82.06,82.06,0,0,1-12.79-6.57c-3.89-2.53-6.13-7-10.7-8.73-1.36-.52-2.67-2-4.08-1.25-3.26,1.8-5.29-.21-7.52-1.89-6.07-5.78-10.07-13.15-15.12-19.71-1.51-2-2.23-4.87-.2-6.93s4.31-.54,6.22.89c7.15,5.35,14.16,10.91,21.47,16,10,7,20.28,13.75,30.43,20.62,1.23.83,2.62,1.5,3.23,3,3.06,3,3.76,6.67,3.57,10.74-.08,1.59-.4,3-1.85,3.76s-2.33.21-3.36-1c-1.44-1.66-3-2-4,.62-1.7,4.82,2.66,7.09,5,9.11s5,4.41,7.43,6.61c1,1.25,1.27,3,1.76,3.41-.45-.4-.84-2-1.66-3.25-3.11-4.54-8.69-6.47-11.69-11.21-1-1.65-2-2.92-.85-4.8.86-2.26,2.59-2.27,3.77-.76,2.13,2.73,3.78,2.06,5.39-.23.54-.76,1.06-1.33,1.91-1.21,1.76.24,1.52,2,2.18,3.11-.52-1.41-1.29-3,.25-4.1a2.91,2.91,0,0,1,4.38.85C762.92,467,766.31,468.26,768.18,471Z" transform="translate(-383.36 -129.96)"></path><path d="M641.29,631l-.09,2c-1.41,4.33-.89,8.66.08,13,1.1,6.57-.17,13.2.4,19.81.14,1.58,0,2.74,1.94,2.2,16.28-4.46,31.88-10.14,40.93-25.92,6.66-11.6,9.6-24.17,9.89-37.61.29-13.13-3.5-25.08-8.63-36.83-1.36-3.11-2.69-6.51,1.39-8.6s7.18-.09,9.38,3.2c9.63,14.39,13.72,30.14,12.9,47.6A98.19,98.19,0,0,1,699.33,650c-7.26,7.19-13.65,15.14-20,23.11-1.9,4.52-6.91,4.78-10.29,7.28-7.35,5.42-16.13,7.93-25.09,9.8-12.85,2.68-25.25,1.11-37.75-2.36-13.64-3.78-24.14-12.1-34-21.7-1-5.29-4.42-8.62-8.84-11.18-10.51-16.56-13.73-34.77-13.08-54.13.42-12.64,4.34-23.94,10.27-34.79,1.44-2.64,3-5.26,5.65-6.8,2.51-1.45,5.23-1.54,7.41.5,1.85,1.73,1.86,3.86.85,6.39-2.82,7.05-6.18,14-7.6,21.48-3.91,20.7-1.25,40.46,10.62,58.16,6.64,9.93,17.08,15.17,28.07,19.13,3.12,1.12,6.44,1.66,9.54,2.81s3.5-.25,3.31-2.73c2-6.83.14-13.8.68-20.68a16.92,16.92,0,0,1,.1-3.41v0c1.24-3.63-.65-7.16-.19-10.94.86-7-.13-14.27,2.68-21.08a3.27,3.27,0,0,0-.36-2.37c-1.65.24-3.44,1.59-5.29.57-5.7.71-10.84-1.27-15.25-4.35-7.91-5.53-14.76-12.23-18.11-21.67-2.17-6.13,1.17-10.46,7.73-10.35,5.79.1,11.58.11,17.38.16,3.91,0,5.94-2,5.69-5.82-.22-3.36-1.91-5.4-5.76-5.25-5.47.21-11,.18-16.42.1-6-.09-9.88-3.63-9.52-8.5.31-4.16,4.56-6.74,10.1-6.51,5.12.22,10.26,0,15.38.15,2.09.07,3.39-1.06,4.81-2.19,3.38-1.35,2.86-3.54,1.2-5.89-1-1.39-2.53-2.11-3.92-3-6,0-12,.15-18,.09-6.19-.05-9.93-3.4-9.61-8.41.29-4.36,4.73-6.92,10.56-6.56,4.43.28,8.9,0,13.35,0,2.31,0,4.78.66,4.74-3.18,0-3.45-.34-6.49-4.64-6.64-4.15-.14-8.31,0-12.47,0a25,25,0,0,1-4.42-.23c-4.58-.84-7.59-4.62-7-8.61s4.36-6.76,8.9-6.15c5,.68,9.86.06,14.79,0,3.09,0,5.58-.63,5.55-4.08s-1.58-6.65-5.69-6.86c-4.46-.22-9,.06-13.42.07-3,0-6.11-.31-8.07-2.89-1.77-2.32-2.65-5.15-1.11-7.95a7.62,7.62,0,0,1,8.35-4.16c5.29.82,10.58.08,15.86.13,3.59,0,5.44-2.3,5.26-5.29-.16-2.75-1.68-5.43-5.36-5.39-5.49.06-11,.2-16.46,0-3.9-.16-7.06-1.76-8.09-6-.81-3.38.53-5.83,3.15-7.78,1.89-1.42,4.08-1.17,6.24-1.11,4,.11,8,.29,11.93.23,3.36,0,6.13-1.53,5.93-5.22-.18-3.49-2.61-5-6.26-4.82a104.28,104.28,0,0,1-10.9.09c-6.88-.3-9.11-3.1-6.95-9.67,5-15.26,14.15-27.19,30.16-31.73,24.22-6.88,47.42,2.87,56.82,27,.42,1.07,1.07,2,1.4,3.14,2,6.57,1.47,12.13-6.74,11.33-3.61-.36-7.28,0-10.91-.18-3.45-.18-5.66,1.46-5.95,4.64s1.9,5.23,5.22,5.31c4.14.1,8.28.06,12.41-.15,5.45-.28,9.8,2.52,10,6.68.22,4.68-3.57,8.2-9.25,8.33q-7.47.15-15-.11c-4-.13-6.13,2.41-6.16,5.67s2.11,5.23,6,5.11c5.11-.17,10.23.5,15.37-.13,4.47-.54,8.32,2.36,8.89,6.17s-2.33,7.61-6.61,8.43c-4.74.91-9.55.29-14.34.2-3-.05-5.94.16-7.36,3.73-1.79,4.54-.48,7,4.47,7.24s9.82.77,14.78,0c4.69-.69,8.77,2.26,9.34,6.28a7.7,7.7,0,0,1-7.19,8.44c-5.09.45-10.25,0-15.38.12-3.58.11-6,.9-5.93,5.83.06,3.76,1.1,4.15,4.13,4.14,5.1,0,10.2.45,15.32-.06,4.74-.48,8.75,2.58,9.1,6.53a7.81,7.81,0,0,1-7.53,8.24c-5.46.38-11,.25-16.44.09-4.25-.13-7.1,2.08-7.22,5.85s3,5.4,6.9,5.22c5-.22,9.94,0,14.9-.12,5.11-.15,9.22,2.7,9.42,6.77s-3.33,8-8.28,8.18c-5.8.27-11.64.21-17.45,0-4.06-.15-6,1.94-6,5.52s2.12,5.69,6,5.59c5.47-.14,10.94,0,16.41-.19,7.38-.28,11.11,4.39,8.06,11.14-5.46,12.09-14.12,21-27.25,24.8a19.1,19.1,0,0,1-4.43.21c-2.22.05-4.43,1.73-7-.17C640.94,614.79,640.57,623,641.29,631Z" transform="translate(-383.36 -129.96)"></path><path d="M657.55,768.85c4.44,5.69,3.43,13.12,6.17,19.41,1.74,4,2.42,8.46,3.57,12.71a93,93,0,0,0,3,14h0c1,3.62.69,7.45,1.89,11a96.78,96.78,0,0,1,1.27,20.68c1,6.24.05,12.49-.5,18.65-.33,3.73.36,7.5-.59,11.18-1.77,4.34-2.05,9.14-4.48,13.35-1.18,2-2,4-4.75,5,2.09,1.78,5.28,0,6.14,3,.58,2,0,4,.25,6,.67.37.71.77,0,1.18-1.25.55-1.87,1.85-3,2.48-6.28,3.31-6.63,4.07-3.72,10a9.39,9.39,0,0,1,.27,7.5,30.9,30.9,0,0,0-1.63,6.93l-1,2c-1.75,2.95-3.54,5.9-4.39,9.28a7.89,7.89,0,0,1-2,5.91c-3.68,4.06-4.48,9.37-6.52,14.14-.25,4.62-4.82,6.71-6.22,10.66-1.44.55-1.48,2-1.9,3.12.27,2-1.52,2.83-2.4,4.14-6.67,10-9,9.82-14.67-1.19a5.42,5.42,0,0,1-.95-2.78c-.24-2.07,1.66-5.18-3-5-1.5.06-2.24-2.55-2.53-4.47-1.1-7.11-3.25-13.8-9-18.58-2.1-1.73-1.59-5.2-4.55-6.15h0c-.64-3.13-1.34-6.26-3.09-9a8.42,8.42,0,0,1-1.94-4.83c-.5-4.45-1.53-8.77-.64-13.42,1-5-2.93-7.92-6.36-10.75-.7-.37-.6-.74,0-1.11-.28-7.68-1.83-15.22-2.38-22.87-1.61-8.65-.85-17.46-1.89-26.14-.31-6.29-.41-12.57,1.29-18.72,0-5.76,1.21-11.34,2.43-16.92.3-1.38.84-2.77.31-4.22a44.2,44.2,0,0,1,1.63-8.52c2.41-6.71,5.16-13.33,5.64-20.57.86-9.26,4.35-17.66,8.33-25.91,3-2.37,3.45-6,4.61-9.33,1.94-7.71,6-14.38,10.68-20.61,1.19-1.58,1.91-3.34,3-4.88,3.71-5,8.94-5,12.11.45,1.31,2.24,3.08,4.13,4.22,6.44,1.12,6.62,3.18,12.72,8.93,16.88l.12,1c-.47,1.52.64,2.79.62,4.27a3.24,3.24,0,0,1-1.86,3.2,2.36,2.36,0,0,1-3.51-1.19c1.56,5.3,9.91,2.3,10.59,8.65C656.15,766.08,656.13,767.91,657.55,768.85Z" transform="translate(-383.36 -129.96)"></path><path class="cls-2" d="M840.06,903.63,837,906.9a7.11,7.11,0,0,0-5.82,6.11c-9,10.43-19.67,19-30.4,27.6-8.14,6.5-16,13.47-25.06,18.59-8.26,4.67-15.75,11-25.43,12.91,1-5.34,1.14-5.45,8.34-8.57-2.28,1.15-2.28,1.15-6.2.27.68,3.13-2.61,5.1-2.06,8.22-11.25,5.8-22.78,10.87-35.3,13.29-15.43,3-30.93,5.4-46.7,5.3-1.88,0-5,1.49-5.5-1.49-.46-2.61,2.75-2.92,4.54-3.82,8.93-4.51,18.42-8.31,26.16-14.59,9.9-8,19.64-16.44,27.25-26.94,5.88-8.11,12.15-15.94,18.24-23.9,4.26-3.76,7.69-8.1,9.27-13.68,6.49-11.09,13.57-21.87,18.44-33.82,1.79-4.38,5.25-6,9.41-7.19,27.19-8,54.65-14.27,83.27-13.32a84.52,84.52,0,0,1,13.76,1.76c3.69.74,3.48,2.1,1.92,4.68-4.71,7.8-9.86,15.28-15.25,22.61C853.76,888.94,846.36,895.81,840.06,903.63Z" transform="translate(-383.36 -129.96)"></path><path class="cls-1" d="M728.12,907.78c-4.58,3.91-6.56,9.66-10.14,14.31C708.34,934.57,698.72,947,686.37,957c-3,1.23-4.75,3.76-6.74,6.07A193.36,193.36,0,0,1,654.94,982c-.81.53-1.89.89-2.72-.09s-.32-2.22.32-3.18c4.13-6.14,6.61-13.25,10.74-19.29,6.84-10,10.21-21.37,14-32.56a217.24,217.24,0,0,0,8.12-31c3.26-18.19,5-36.4,3.55-54.86-.45-5.73,0-11.52-1.26-17.2-.61-2.9.2-5.23,2.12-7.71,19-24.51,42.23-43.66,70.79-56.07,7.15-3.1,9.35-1.82,9.73,5.92.76,15.35-1.84,30.43-4,45.52a205.25,205.25,0,0,1-9.42,37.83c-5.62,16.24-11.89,32.32-21.78,46.64C731.58,899.16,730.48,903.84,728.12,907.78Z" transform="translate(-383.36 -129.96)"></path><path class="cls-1" d="M573.35,957c-8.83-7.29-16.09-16-23.41-24.74a262.24,262.24,0,0,1-16.36-21.71,272.46,272.46,0,0,1-19.49-33.81,224.38,224.38,0,0,1-17.81-52.45c-.48-.94.27-2-.19-2.92a3.82,3.82,0,0,1-.36-.92c-.47-2.82,1-3.84,3.58-4.2a18.13,18.13,0,0,1,2.95,0c-.35-4.07,2.51-5.11,6.09-2.38,1.55-4-1.69-7.37-1.75-11.31,0-1.27-2.23-2.29-1.62-4.19-.2,1.52.76,2.48,1.38,3.72,2,4-2.42,12.68-6.91,14.09-2.34.74-4.53.51-4.55-2.64,0-2.36-1.12-4.31-1.73-6.45a180.49,180.49,0,0,1-3.75-40.48c.22-8.62,2.46-9.71,10.47-6.27,21,9,38.8,22.32,54.88,38.4a172,172,0,0,1,15.08,17.1A10.51,10.51,0,0,1,572.1,824c-3,25.46-2.38,50.78,3.08,75.9a20.87,20.87,0,0,1,.22,3c-.27,6.81,2,13,4.79,19l1.17,2a2,2,0,0,1,.48,1.84c-.13,1.08.69,2.64-.69,3.13-1.79.62-1.74-1.61-2.61-2.22.6,2.63,3.18,3.51,5.05,5.11,2.21,3.86,3.21,8.22,5,12.23a225.24,225.24,0,0,0,16.78,31.16c.62,1,1.09,2,1.63,3.07s1.78,2.34.55,3.56c-1.39,1.39-2.86.26-4-.57-7.06-5.13-14.06-10.33-21.08-15.51A25.49,25.49,0,0,0,573.35,957Z" transform="translate(-383.36 -129.96)"></path><path class="cls-1" d="M415.52,900c-6.31-4.77-10.82-11.14-15.2-17.56C395,874.6,390,866.61,384.71,858.78c-2-2.92-2.15-4.36,2-5.25,11.35-2.43,22.79-2.22,34.18-1.26,18.14,1.53,35.83,5.76,53.47,10.08,4.32,1.06,8.53,2.6,12.74,4,4.52,1.57,5,6.26,6.81,9.7a365.33,365.33,0,0,0,27.39,44.43c7.46,10.45,14.94,20.88,23.53,30.44,11.27,12.55,23.89,23.39,39.51,30.31,3.47,1.54,6.81,3.38,10.17,5.16,1.13.61,2.6,1.23,2.2,2.92s-2.08,1.3-3.31,1.31c-14.46.12-28.72-1.71-42.94-4.2-23.56-4.12-45.06-13.72-65.11-26.12-19.18-11.86-36.2-26.82-52.69-42.24-1.52-1.42-4.29-2.09-4.25-5A26.24,26.24,0,0,0,415.52,900Z" transform="translate(-383.36 -129.96)"></path><path class="cls-1" d="M504.89,1027.37c-11.1.32-31.71-5.13-51-14.2-33.53-15.74-56.13-41.2-64.15-78.25-.14-.66-.34-1.29-.48-1.95-2.92-13.8-3.28-12.23,9.45-8.6a145.84,145.84,0,0,1,51.45,27c9.93,7.95,19.61,16.51,30.52,22.86,19.17,11.16,39.66,19.49,61.89,22.85a463.59,463.59,0,0,0,51.9,5.13c1.15,0,2.65-.21,2.94,1.16s-1.26,1.85-2.2,2.4C571.24,1019.81,541.84,1027.32,504.89,1027.37Z" transform="translate(-383.36 -129.96)"></path><path class="cls-1" d="M742.36,1027.42c-13,.56-31.29-3-49.28-8.69-9.82-3.12-18.94-7.73-27.92-12.67-1.12-.62-2.92-1.11-2.67-2.57.36-2,2.41-1.21,3.75-1.27,20.53-1,41-2.64,61.1-7.11,26.57-5.92,50-18.36,71.33-35.23,11.62-9.21,23.13-18.62,36.69-25.14,10.47-5,21-9.6,32.42-12.19,4.15-.94,4.86.13,4.17,4-6.55,37.2-25.76,65.29-59.35,83.12C793.07,1020.07,774.16,1025.15,742.36,1027.42Z" transform="translate(-383.36 -129.96)"></path><path class="cls-3" d="M543.33,1048.14c-9.38-1.16-18.45-3.75-27.55-6.15-1.16-.3-3.09-.47-2.81-2.21s1.87-1.23,3.25-1.23a156.16,156.16,0,0,0,65.45-14c14-6.41,27.85-13.75,39.88-23.8,6.34-5.3,10.3-5.44,16.54-.06,8.74,7.54,19.17,12.28,28.95,18.13a124.48,124.48,0,0,0,24.21,11.13,6.58,6.58,0,0,0,5,4.32c5.58,1.32,11.14,3.93,17,1.37a146.85,146.85,0,0,0,30.66,2.86c1.25,0,2.58-.14,2.84,1.23s-1.22,1.75-2.29,2.08a270.39,270.39,0,0,1-27.07,6.33c-17.21,3.36-34.46,6.43-52,7.69a499.25,499.25,0,0,1-64.61.42c-13.77-.8-27.33-3-41-4.58-3.87-.45-7.64-1.85-11.46-2.81C547,1046.28,545.4,1045.66,543.33,1048.14Z" transform="translate(-383.36 -129.96)"></path><path class="cls-2" d="M839.68,777.16c4.5-.24,8.92.65,13.38.78s5,2,3.86,5.68C853,796,848.48,808.05,843.48,820c-1.92,4.59-3.57,9.29-5.35,13.94-1,2.69-2.4,4.26-5.86,4-16.75-1.07-33,1.91-49,6.71a25.19,25.19,0,0,1-3.8,1.17c-2.76.38-5.11,1.13-3.81-3.79,3.61-13.67,6.5-27.51,7.21-41.74.22-4.42,1.65-8.78,2.5-13.17.54-2.81,2.73-3.38,5-4.06C806.53,778.42,823.09,777.65,839.68,777.16Z" transform="translate(-383.36 -129.96)"></path><path class="cls-2" d="M419.64,777.14c16.42.52,32.78,1.34,48.76,5.8,3.55,1,5.22,2.65,5.89,6.23,2.49,13.32,3,26.93,6.19,40.15,1,4.16,1.84,8.35,2.88,12.5s.19,5.14-3.87,3.93c-5.24-1.57-10.45-3.24-15.83-4.34-12.19-2.5-24.45-4.54-37-3.46-2.88.25-4.45-.86-5.34-3.3-6.18-16.93-13.8-33.31-19-50.63-1.31-4.41-.29-5.92,4.36-6.13C411,777.7,415.32,777.1,419.64,777.14Z" transform="translate(-383.36 -129.96)"></path><path class="cls-1" d="M560.52,713.91c2.53,2.56,6.31,3.66,8.19,7,3,4.35,6.68,8.13,9.5,12.6,1.7,2.71,3.78,4.94,7.15,5.48,2,2.56,4.06,5.16,6.18,7.66a2.75,2.75,0,0,1,.58,3.12c-4.8,13.74-9.59,27.5-14.18,41.31-.7,2.12-.49,4.54-2,6.84-5.54-3.45-9.4-8.7-14-13.07-5.71-5.47-12.26-9.88-18-15.28-4.07-3.84-8.48-7.33-12.79-10.91-1.5-1.25-2-2.21-.62-4.1,9-12.55,15.91-26.3,21.84-40.55C555.11,712.32,557.83,714.05,560.52,713.91Z" transform="translate(-383.36 -129.96)"></path><path class="cls-1" d="M707.28,714c6,14.22,12.82,28,21.83,40.54,1.32,1.84,1,2.82-.56,4.11-7.74,6.44-15.44,13-23.15,19.43-2.7,1.53-5.94,2.41-7.2,5.75-4.49,1.69-5.11,7-8.89,9.46-1.87,1.21-3.35,3-5.49,5.06-1.9-5.79-4-11-5.32-16.42-2.72-10.85-7.3-21-10.65-31.67-.44-1.39-.78-2.33.3-3.56,2.15-2.47,4.14-5.09,6.19-7.65,3.31,0,5.14-1.74,6.79-4.61a81.08,81.08,0,0,1,9-12.74c2.18-3.55,6.14-5,9-7.73C701.88,714,704.59,712.4,707.28,714Z" transform="translate(-383.36 -129.96)"></path><path class="cls-2" d="M629.86,130c12.22,1.19,24.27.08,36.32.28,6.86.12,11.75,3.47,12.1,8.63.34,5-5,9.63-11.73,9.79-10.59.26-21.19.28-31.79.27-13.91,0-27.83-.16-41.75-.21a11.69,11.69,0,0,1-7.38-2.45c-2.79-2.23-5.25-4.94-3.9-8.9,1.62-4.74,5.15-7.09,10.2-7.16C604.63,130,617.34,131.18,629.86,130Z" transform="translate(-383.36 -129.96)"></path><path class="cls-2" d="M629.56,361.88c12.29,1.22,24.51.09,36.73.3,6.81.12,11.73,3.56,12,8.72.24,4.71-5.08,9.57-11.33,9.73-10.93.28-21.86.28-32.79.27-13.74,0-27.49-.17-41.23-.26-.33,0-.67.1-1,.07-5.75-.64-11.06-5.66-10.65-10.06.46-5,5.33-8.35,11.7-8.47C605.21,361.94,617.44,363.15,629.56,361.88Z" transform="translate(-383.36 -129.96)"></path><path class="cls-2" d="M629.46,322.8c-12.11,0-24.23,0-36.34,0a13.41,13.41,0,0,1-4.33-.88c-4.39-1.44-7.35-4.42-7.29-9,.07-5,4.79-8.69,10.25-8.67,16.47,0,32.94.25,49.42.29,8.41,0,16.83-.16,25.24-.24,6.73-.07,11.76,3.69,11.88,8.85.11,4.86-5,9.45-11.5,9.56-12.44.22-24.89.07-37.33.07Z" transform="translate(-383.36 -129.96)"></path><path class="cls-2" d="M629.41,263.83c-12.11,0-24.21,0-36.31,0a12.23,12.23,0,0,1-3.4-.51c-5.15-1.51-8.93-6-8.33-9.8.73-4.69,5.39-8.18,11-8.15,15.81.09,31.62.26,47.43.3,8.91,0,17.82-.18,26.73-.27,6.67-.06,11.75,3.8,11.8,8.93,0,4.66-5,9.35-11.09,9.5-11.6.3-23.21.17-34.81.22h-3Z" transform="translate(-383.36 -129.96)"></path><path class="cls-2" d="M629.79,187.83c12.05,1.12,24.46.07,36.86.28,6.44.11,11.26,3.54,11.64,8.58.33,4.37-5,9.48-10.73,9.83-5.93.36-11.89.33-17.83.35q-25.54.07-51.09,0c-3.27,0-6.58,0-9.77-1.16-4.61-1.72-8-5.85-7.52-9.38.61-4.5,5.16-8.16,10.39-8.25C604.31,187.88,616.89,188.91,629.79,187.83Z" transform="translate(-383.36 -129.96)"></path><path class="cls-2" d="M628.81,235.39H592.87a10.86,10.86,0,0,1-2-.1c-5.42-1-10-5.78-9.56-9.89.54-4.91,5.19-8.34,11.28-8.34q37,0,73.93,0c6.75,0,11.74,3.77,11.75,8.93,0,4.7-4.91,8.94-11.12,9.4a162,162,0,0,1-20.79.11C640.77,235.2,635.14,236.18,628.81,235.39Z" transform="translate(-383.36 -129.96)"></path><path class="cls-2" d="M629.91,274.61c12.22,1.16,24.48.09,36.72.32,6.52.12,11.26,3.44,11.64,8.52.34,4.53-4.74,9.49-10.71,9.73-7.9.33-15.83.12-23.74.17-15.2.11-30.4.37-45.6.28-5.38,0-11.17.14-14.9-5-1.66-2.28-2.74-4.68-1.14-7.81a10.06,10.06,0,0,1,9.52-5.94C604.43,274.66,617.18,275.75,629.91,274.61Z" transform="translate(-383.36 -129.96)"></path><path class="cls-2" d="M629.86,177c-12.26,0-24.52,0-36.78,0a11.68,11.68,0,0,1-7.42-2.34c-2.79-2.2-5.18-4.88-4-8.9,1.36-4.53,5.28-7.2,10.16-7.18q30.45.12,60.9.23c4.62,0,9.23,0,13.85-.14,6.41-.11,11.2,3.32,11.66,8.43.41,4.55-4.64,9.49-10.63,9.85s-11.92.26-17.88.29c-6.63.05-13.26,0-19.89,0Z" transform="translate(-383.36 -129.96)"></path><path class="cls-2" d="M629.81,332.42c12.27,1.36,24.51.09,36.73.35,6.72.15,11.74,3.73,11.76,8.91,0,4.67-5,9.23-11.11,9.38-10.91.28-21.83.27-32.75.26-13.9,0-27.81-.14-41.71-.2a11.13,11.13,0,0,1-3.84-.8c-4.59-1.72-8-5.82-7.56-9.33.6-4.61,5.1-8.14,10.4-8.25C604.44,332.46,617.18,333.76,629.81,332.42Z" transform="translate(-383.36 -129.96)"></path><path class="cls-2" d="M630.94,715.56c-20.2-.83-38.37-4.94-55.17-14.29-3.06-1.71-4.73-3.87-4.76-7.44,0-3.74,2-5.56,5.35-5.77a11.5,11.5,0,0,1,6.71,1.49c12,7.12,25,11,38.77,12.7,13.09,1.61,25.69-.62,37.93-5.13,6-2.22,12.13-4.12,17.61-7.8,4.38-2.94,9.12-1.63,10.92,1.9s.07,7.51-4.53,10.08a109.43,109.43,0,0,1-44.6,13.49C636,715.06,632.91,715.37,630.94,715.56Z" transform="translate(-383.36 -129.96)"></path><path class="cls-4" d="M550.33,514.89c.7,1.07-.06,2.79,1.56,3.46,2.79,1.16,3.05,3.3,2,5.74-.84,1.94.79,3.11,1.56,4.43-2,1.2-2.58-.76-3.93-1.24-1.35,4.32-1.37,9.22-6.18,11.43a1.42,1.42,0,0,0-.53,1.25c2.22,6.91-3.48,6.24-7.08,7.1-1.68.4-3.32-.23-1.82,2.3-6.28,2.69-1.13,8.27-2.58,10.93-2.21,4-1,5.7.7,8.85,2.64,5-2.64,15.7-8.39,17.75l2.27,3.24c-1.2,1.19-2.52-1-3.47.19-1.92,2.41-4.41,1.57-6.86,1.42s-3.43-.75-3.52-3.55a15.84,15.84,0,0,0-3.19-9.29c9,3.25,10.87-4.17,16.27-9.43-4.12.67-7.31,1.61-5.74-3.12.84-2.54-2.12-1.29-3-2.24-.35-4.29,4.23-6.64,4.24-10.84,0-.76.28-1.59.27-2.41.18-.28.37-.56.55-.85a18.67,18.67,0,0,0,4-6.81A199.49,199.49,0,0,1,550.33,514.89Z" transform="translate(-383.36 -129.96)"></path><path class="cls-5" d="M846.23,759.25c-14.64-.63-28.44,1-42.23,2.59a117.13,117.13,0,0,0-14.58,2.79c-2.42.58-3.19.3-3.28-2.38-.33-9.92-.44-10,9.26-12A318.71,318.71,0,0,1,830.72,745a7.43,7.43,0,0,1,7.29,3.12C840.54,751.54,843.08,755,846.23,759.25Z" transform="translate(-383.36 -129.96)"></path><path class="cls-5" d="M412.58,759.1a103,103,0,0,0,8.86-11.32,6.55,6.55,0,0,1,6.92-2.81c7.78,1.29,15.63,1.71,23.42,3.54,6.31,1.48,13,1.91,19.41,3.52,2.51.63,3.49,1.57,3,4.42-1.47,8.48-1.32,8.4-9.71,6.89A285.94,285.94,0,0,0,412.58,759.1Z" transform="translate(-383.36 -129.96)"></path><path class="cls-1" d="M551.36,465c3.14-6,8-10.87,11.71-16.56a3.08,3.08,0,0,1,4-.8c1.63.76,2,2.11,1.78,3.71a56.33,56.33,0,0,1-8.5,25c-2.73,4.22-3.42,9.81-8.3,12.59-5-1.68-5.08-3.25-.72-8.66-1.65,2.33-3.33,4.44-6.74,4a3.49,3.49,0,0,0-3.21,2.08c-1.6,3.06-4.27,3.33-7.2,3.15-4.28-1-4.37-1.25-1.84-5.52a72.6,72.6,0,0,1,12.86-13.06C548.23,469.91,549.54,467.17,551.36,465Z" transform="translate(-383.36 -129.96)"></path><path class="cls-6" d="M708.17,489.05c-5.35-3.29-6.3-9.56-9.31-14.38a50.28,50.28,0,0,1-7.28-22.38c-.17-2-.44-3.76,1.61-4.66s3.55,0,4.83,2c2.22,3.59,4.86,6.9,7.33,10.33a11.39,11.39,0,0,0,6.6,7.13c4.19,5.52,10.37,9.14,14.24,15,.18,2.18,4,4.71-.59,6.45-3.58,1.86-5-1.53-7.29-2.95-2.75-1.49-5.5-3-7.33-5.68.28.64-.26-.06-.1.17,1.84,2.8,3,5.6.41,8.54A2.27,2.27,0,0,1,708.17,489.05Z" transform="translate(-383.36 -129.96)"></path><path class="cls-7" d="M725.26,487c2-1.32-.55-3.51.93-4.93,3.82,3.45,8.28,6.25,11.11,10.72a4.32,4.32,0,0,0,2,2.07c3.09,1.08,2.6,2.84,1.13,4.89-1.3,1.43-2.77,1.42-4.33.49-1.29-.77-2.55-1.43-3.91-.15-2.12,2.31-7.52,3-9.74,1.23-1.66-1.36-.38-2.65.26-3.9.45-.88,1-1.73.4-2.75-1.35,2-3.7-1.42-4.24.32-.67,2.16-3,1.23-3.62,2.9-2.79-2.62-5.58-5.22-7.12-8.84,3.34-2.48,2.35-4.81.06-7.47-1.56-1.81-5.11-4-2.3-6.43,2.54-2.17,5.12.72,6.91,2.9s4.89,3.28,6.35,5.95a4.31,4.31,0,0,1,1.77,2.18C721.84,489,723.48,488.58,725.26,487Z" transform="translate(-383.36 -129.96)"></path><path class="cls-8" d="M873.26,885.22a3.57,3.57,0,0,1,1.68,3.46c0,5.43-.24,10.86-.14,16.29.06,3-.76,5.07-3.88,5.93-8.56,2.36-17.09,4.8-26,6.75C854.7,907,864.66,896.68,873.26,885.22Z" transform="translate(-383.36 -129.96)"></path><path class="cls-8" d="M385.64,884.59c9.3,11.95,18.88,22.57,28.81,33.39-4.15-1.06-8.31-2.09-12.45-3.21-3-.82-6-1.77-9-2.64-8.52-2.48-8.86-2.5-8.26-11C385.08,896,383.56,890.7,385.64,884.59Z" transform="translate(-383.36 -129.96)"></path><path class="cls-9" d="M862.27,807.8c4,8,5,15.08,6.87,21.9.17.63.11,1.32.25,2,1.76,8.33,1.77,8.28-6.65,6.85-2.93-.5-5.93-.62-8.88-1-1.11-.16-3.11.21-2.22-2.11C855,826.63,858.37,817.91,862.27,807.8Z" transform="translate(-383.36 -129.96)"></path><path class="cls-10" d="M703.19,438.05c1.87.36,3.94,2.29,5.16-1.21.42-1.21,2.52-1.09,3.66-.56,2.94,1.39,6.42,2.49,8.43,4.81a37.56,37.56,0,0,0,12.94,9.73c2.61,1.22,4.85,3.91,7.33,5.86a2.85,2.85,0,0,1,.33,4.42c-1.54,1.55-2-.8-2.91-1.4-3-1.93-6.74-3.93-9.75-3.42-4.13.7-5.14-.29-5.32-4.32.13,2.46-2.77,2-2.8,4A143.54,143.54,0,0,1,703.19,438.05Z" transform="translate(-383.36 -129.96)"></path><path class="cls-8" d="M405.53,831c2.8,5.75,2.8,5.76-3.46,6.48-3.94.46-7.88.87-11.82,1.31-1.48.17-2.89.12-2.3-2,2.56-9,3.73-18.49,7.61-27.17.1-.22.48-.32,1-.63,2.6,2.75,3.23,6.32,4.13,9.78C400.54,823.54,404.26,826.76,405.53,831Z" transform="translate(-383.36 -129.96)"></path><path class="cls-11" d="M602.22,943c2.44.09,4.88-.33,5.63,3.28.54,2.6,5,1.52,5.59,4.11a38.94,38.94,0,0,0,7,15.36,1.44,1.44,0,0,1-.84,2.36c-.73.25-2.52-1.76-2.08,1a2.08,2.08,0,0,0,4,.56,30.75,30.75,0,0,0,1.22-3.27c2.72,4.22,2.67,4.2,1.08,8.37-.65,1.69-1.05,3.49-1.56,5.23a58.37,58.37,0,0,1-8.77-13C609.61,959.1,604.06,951.93,602.22,943Z" transform="translate(-383.36 -129.96)"></path><path class="cls-12" d="M721.24,546c-3,.19-4.15-3.62-4.28-4.38-.9-5-9.17-6.58-6-13.25.39-.81-1.27-1.3-1.8-1.12-2.23.75-2.25-.71-2-2,.44-2.17,1.9-1.25,3.06-.69a6.07,6.07,0,0,1,2,1.41c2.45,2.9,4.34,2.23,5.94-.82,2.58.19,3.36,2.48,4.61,4.11,3.92,5.12,7.71,10.33,11.55,15.51.46,2-.82,1.87-2.1,1.75-3-1-5.18-3.87-8.54-4.26a3,3,0,0,1-1.45-1.27,3.69,3.69,0,0,0,.44.89C723.9,543.85,722.5,544.89,721.24,546Z" transform="translate(-383.36 -129.96)"></path><path class="cls-7" d="M493.17,807.06c1.82,1.74,3.4,3.66,3.58,6.29.07,1,.27,1.6,1.26,1.76a1.52,1.52,0,0,0,1.93-1.12c.46-2.1,2.06-3.36,3.35-4.84,3.68-4.26,3.06-7.47-1.77-10.44-1.19-.74-1.14-2.29.46-3,2.11-.91,4.28-1.67,6.68-2.59-.1,2.16-2.18,3.15-2.31,5.58-.19,3.61,3.14,2.41,3.74,4.24.42,1.14-3.47.46-1.09,1.89,2.93,1.76,3.19,3.62,2.16,6.44-.37,1-.1,2.31-.24,3.45-.16,1.33,1.31,3.27-.65,3.86-1.7.51-2.41-1.31-3-2.69-.41-.9-.78-2-2.14-1.46a1.79,1.79,0,0,0-1.28,2.32c.26,1.09-.82,2.23.09,3.35.62.75,1.5,1.68-.15,2.23-1.05.34-1.71-.48-2.55-1-1.54-1,1.72-4.48-1.91-3.83-2.81.51-2.11,3.34-2.49,5.36a7.86,7.86,0,0,1-.52,1.4C493.79,818.78,493.48,812.92,493.17,807.06Z" transform="translate(-383.36 -129.96)"></path><path class="cls-13" d="M534.4,488c1.75-.71,3.62-.76,4.84-2.88,1.64-2.86,3.71-5.58,8-3.62,1.81.83,2.64-.76,2.24-2.59-.31-1.4-1.89-3.28,1.25-3.22,1.38,0,2.58-2.59,3.83-.59,1.05,1.7.14,3.6-1.25,4.95-2.77,2.68-4.52,5.43-1.21,8.9-.25,1-.33,2.06-1.71,2.09-2.75-.4-9,2.22-11,4.55a63.4,63.4,0,0,1-4.86,5.59c-.67.64-1.76,2.1-2.9,1.1s-.25-2.07.41-3.12a20.8,20.8,0,0,0,1.35-3.13c.05-.2.1-.4.14-.61.25-1.08.86-2.09.57-3.26C533.73,490.71,532.89,489.25,534.4,488Z" transform="translate(-383.36 -129.96)"></path><path class="cls-14" d="M537.36,458.86c-2.3-1.79-4.36-4.11-7.81-2.15a2.37,2.37,0,0,1-3-1.06c-1-2,.89-1.53,1.76-1.93.14-.07.38-.23.36-.31-.85-5.43,4-4.54,6.63-5.58,4.6-1.84,6.33-7.22,11.3-8.45,1.11-.27,1.84-2.72,2.59.57.22.95.7-2.29,2.71-2.7.13,2.42,0,4.58-2.67,5.41-3.71,1.14-2.41,3.32-1.41,5.54a10.16,10.16,0,0,1-4.3,3.94,3.67,3.67,0,0,0-3.32,3.81A4.73,4.73,0,0,1,537.36,458.86Z" transform="translate(-383.36 -129.96)"></path><path class="cls-15" d="M712.18,661.87l.69,8.2c1.42-.38,2.67-4,4.43,0,.59,1.3,5.18.82,9.47,1.33-3.35-2.3-2.74-4.32-1.38-5.64,1.79-1.74,3.55.46,4.44,1.41,1.61,1.7,4.95,2.34,4.07,6-.63,2.65-1.55,3.95-3.78,1.74-2.56-2.53-4.59-2.89-6.77.26a3.25,3.25,0,0,1-1.61,1.09c-3.93,1.29-5.85,3.4-3.74,7.72.53,1.09.18,2.61.24,3.94a1.49,1.49,0,0,1-.36,2.48c-1.7,1-2.64-.78-3.93-1.3-1.66-1.22,0-2.11.3-3.14a29.86,29.86,0,0,0-2.19-11.74A21.2,21.2,0,0,1,712.18,661.87Z" transform="translate(-383.36 -129.96)"></path><path class="cls-15" d="M669.5,903.88a8.45,8.45,0,0,1-.69-2.27c0-3.21-1-4.47-4.09-2.33-2.66,1.86-3.94.08-4.9-2-1.29-2.83.33-5,1.93-7.07l2.46,1.94c.87-4.85,4.78-8.5,4.25-13.77-.12-1.25,1.56-2,2.87-2.39,1.59-.25,2.33.34,1.94,2A104.19,104.19,0,0,1,669.5,903.88Z" transform="translate(-383.36 -129.96)"></path><path class="cls-14" d="M534.4,488c.28,1.35,1.52,2.46,1,4-1.19,1.09-.64,3-2,4h0c-1.28-.81-2.2-2.43-4.18-.71s-4.13,2.73-3.71,5.83c.19,1.48,1.45,3.56-.8,4.32-2,.66-1.33-1.91-2.26-2.54-2.15-1.48-4.58-2.33-6.59.13-1.34,1.62-2.5,2.65-4.42,1,5.6-8.12,13.44-13.9,20.94-20,.46.62,1.44,1.33.81,2C531.17,488.28,533.39,487.71,534.4,488Z" transform="translate(-383.36 -129.96)"></path><path class="cls-7" d="M826.24,543c-.5-.65-.86-1.63-1.52-1.91-8.82-3.75-3.57-12.12-5.6-18.08-.91-2.67,2.21.85,3.88-.38-4.41-4.84.25-9,1.17-13.6,1.6.59,1.48,2.31,1.55,3.35.62,9.09,1,18.19,1.38,27.3A11.47,11.47,0,0,1,826.24,543Z" transform="translate(-383.36 -129.96)"></path><path class="cls-11" d="M661.41,932c-2.45-2.41-.86-5.23.05-7.28,1-2.35.36-3.85-.76-5.4-2.91-4-3.53-9.64-1.21-13.21.91-1.39,2.43-.74,3.65-.86,2.12-.22,4.26-.14,6.4-.18C667.52,914.25,665.8,923.52,661.41,932Z" transform="translate(-383.36 -129.96)"></path><path class="cls-16" d="M743.22,466c-.24-3.76,1.81-3,4-2,.94.44,1.7,2,2.9.82s.13-2.12-.52-3c-1-1.46-2.25-2.35.35-4,2.12-1.36-.86-3.75-.71-5.8,6.63,6.05,14.9,10.47,19,19.07-4.38-.89-6.66-5.07-10.4-7.13-.91,2.3,1,2.86,1.72,4,.53.92.89,1.85-.36,2.49s-1.61.13-2-1.14-1.28-2.57-2.35-4.6c-2.1,4.66-4.68,4.57-7.54,1.7a2.27,2.27,0,0,0-3.12-.36A.57.57,0,0,1,743.22,466Z" transform="translate(-383.36 -129.96)"></path><path class="cls-17" d="M820.28,499c-3.17-2.44-2.87-6.48-4-9.7-2.86-8.4-7.64-15.59-12.3-22.93-2.23-3.51-3.3-7.54-4.6-11.46,6.94,7.19,11.57,15.89,16.18,24.61a54.14,54.14,0,0,1,5.65,15.34C821.47,496.35,822.73,498.1,820.28,499Z" transform="translate(-383.36 -129.96)"></path><path class="cls-13" d="M539.5,634c-.46-.18-.92-.35-1.37-.55-2.78-1.21-7.44.21-8.25-3.16a26.42,26.42,0,0,1,.45-12.18c.7-2.85,2.3-4.23,5.21-4.14A88.75,88.75,0,0,1,539.5,634Z" transform="translate(-383.36 -129.96)"></path><path class="cls-16" d="M725.24,609c1.07,2.1-.26,5.49,3.59,6.18,1,.17,1.43,1.87,1,3.06-.76,2-2.86-.31-3.9,1.13,3.89,3.73.82,8,.33,11.81-.53,4.06-3.21,7.85-5,11.76-3.31.12-1.59-2.66-2.31-4Z" transform="translate(-383.36 -129.96)"></path><path class="cls-18" d="M782,434.06c-5.42.75-7.82-4.09-11.64-6.29-1.53-.89-2.76-6-4.88-.34-.36,1-7.36-2.58-7.25-4.17.39-5.6-4.08-5.76-7.43-6.92a6,6,0,0,1-3.88-3.47c5.46-.1,9.66,3.09,14,5.69C768.41,423.09,776.31,427.12,782,434.06Z" transform="translate(-383.36 -129.96)"></path><path class="cls-16" d="M616.05,607.13c3.44-.62,2.84-4.08,4.57-6.71.67,1.93,2,3,3,4.2,1.65,1.93,2.31,4.79.93,6.46-5.38,6.5-3.52,14.44-4.92,21.7-.53,2.73.48,4.91,4,4.59-.46,2.67-2.73,2.76-4.42,3.58-1.65-9.51-.75-19.11-.92-28.68C618.26,610.11,617.77,608.42,616.05,607.13Z" transform="translate(-383.36 -129.96)"></path><path class="cls-10" d="M590.2,905c7.67-.14,12.24,6.54,9,13.24-1.11,2.32-2.59,4.48-.7,7.24.89,1.31.27,2.87-1.34,3.69C593.65,921.48,591.78,913.29,590.2,905Z" transform="translate(-383.36 -129.96)"></path><path class="cls-19" d="M732.11,545l2.23-.25,12.75,23.28c-2.64-1.79-5.19-3.75-8-5.32-2-1.14-.79.71-.92,1.3-2.27,2-4,1.22-5.79-.87-2.52-3-5-5.69-1.52-9.68.9-1.05.17-2.84-.09-4.29S729.94,545.86,732.11,545Z" transform="translate(-383.36 -129.96)"></path><path class="cls-20" d="M536.52,709.27c.85-3.36,2.55-6.49.35-10.18-1.53-2.56,1.47-4.71,2.08-7.18a53,53,0,0,1,3.55-9c.56-1.22.72-2.34,2.25.06s1.36-1.82,2.75-2C547,691.64,541.87,700.49,536.52,709.27Z" transform="translate(-383.36 -129.96)"></path><path class="cls-21" d="M713.3,1035.62c-1.52,3.58-3.79,5.44-7.72,3.27a6.42,6.42,0,0,0-4.81-.85c-4.79,1.44-7-2.68-10.16-4.55-2.15-1.26-.18-2.46.64-3.56Z" transform="translate(-383.36 -129.96)"></path><path class="cls-16" d="M679.32,673.14c2.62-11.21,9.93-18.36,20-23.11C694.58,659.4,688.29,667.44,679.32,673.14Z" transform="translate(-383.36 -129.96)"></path><path class="cls-12" d="M641.29,631c-2.13-3-2.09-6.64-2.14-9.87a15.39,15.39,0,0,0-2.69-9.1c-2.47-3.58-.92-9.58,2.8-11.07,1.41-.56,3.19.58,2.5,1.9-2.61,4.94,2.1,3,3.53,4-5.73,2.39-3.37,7.53-3.54,11.52C641.57,622.61,642.31,626.83,641.29,631Z" transform="translate(-383.36 -129.96)"></path><path class="cls-22" d="M752.19,547c3.87,3,5.65,6.46,2.94,11.18-.55,1,.37,1.49.93,2,.81.75,1.36,1.54.57,2.54-1,1.28-1.61,0-2.37-.46-1.83-1.19-1.85.45-2.06,1.46-.4,2-.78,3.87-2.49,5.17,1.49-5.51-.38-10.76-1.32-16.07-.41-2.27-1.32-4.46-1.08-6.84,1.59.77,2.31,3.63,4.87,2-.33-.22-.43-.44-.32-.66S752.08,547,752.19,547Z" transform="translate(-383.36 -129.96)"></path><path class="cls-23" d="M459.3,456.7c-.15,4.14-2.43,7.31-4.31,10.83-4.13,7.79-10.45,14.51-12.08,23.56-.38,2.07-.81,3.61-3.38,2.93C442.73,479.78,450.36,467.89,459.3,456.7Z" transform="translate(-383.36 -129.96)"></path><path class="cls-22" d="M585.36,739c-2,3.32-3.6,4.79-6.26.23-3.14-5.36-7.54-9.94-9.88-15.85-.26-.67-1.63-.85-2.39-1.39-.2-.15,0-.81,0-1.24l1.91.17C575.69,725.61,580.48,732.33,585.36,739Z" transform="translate(-383.36 -129.96)"></path><path class="cls-22" d="M690.14,721.67c-.69,6.12-4.9,10.49-7.83,15.46-1.22,2.08-2.44,3.66.68,5.52-3.72-.11-7.09.26-8.65-3.63C678.91,732.6,683.65,726.34,690.14,721.67Z" transform="translate(-383.36 -129.96)"></path><path class="cls-15" d="M654.26,766c-1.81-1.32-2.55-5.16-6.18-2.12-1.23,1-2.62-.66-3.05-2.29-.85-3.18-1.73-6.36-2.72-10,1.82,1.4,6.61-.82,3.49,4.65,3.31-1.5,2.28-4.43,3.48-6.27,2.46,3,3.45,6.67,5,10.11C654.79,762.05,655.89,764,654.26,766Z" transform="translate(-383.36 -129.96)"></path><path class="cls-15" d="M649.16,749c-7.67-1.34-7.88-1.3-9.35-9.59-.52-2.92-3.76-1.91-4.37-4.63,1.07-1.31,4.26,0,4.79-2.66C644.57,737,646.9,743,649.16,749Z" transform="translate(-383.36 -129.96)"></path><path class="cls-24" d="M547.42,659c-3.35-3.26-4.81-7.74-7.2-11.61-2.1-3.41-4.19-7.71.22-11.4C542.92,643.61,548,650.43,547.42,659Z" transform="translate(-383.36 -129.96)"></path><path class="cls-12" d="M647.48,963.27c-1.33-3.43.91-13.09,4.47-15.25,2.55-1.54,1.63-3.5,2.28-5.25,1.16-.48,2.32-.91,3.34.28A52.47,52.47,0,0,1,647.48,963.27Z" transform="translate(-383.36 -129.96)"></path><path class="cls-20" d="M547.56,680.44l-1-4.12c-2.34-.69-.64,3.72-3.37,2.26-2-1.07-4.81-1.37-5.58-3.62-.53-1.54-.46-4.14,2.51-4.34,2.78-.19,5.55-.4,8.33-.6C549.39,673.6,548.72,677,547.56,680.44Z" transform="translate(-383.36 -129.96)"></path><path class="cls-16" d="M815.33,591.38c-1.1-9.8,3.81-17.82,7.7-26.15,1.86,4.13-.1,7.93-1.67,11.35C819.13,581.44,819.74,587.46,815.33,591.38Z" transform="translate(-383.36 -129.96)"></path><path class="cls-25" d="M673.27,878l-1.94-2c-3.05-5.49.48-10.74.84-16.08.29-4.37.87-8.78,1.26-13.19,1.76,6.66.8,13.47,1,20.21C674.49,870.58,675.21,874.44,673.27,878Z" transform="translate(-383.36 -129.96)"></path><path class="cls-26" d="M739.22,499c2.13-2.92-2.4-3.79-1.92-6.21,2.38.23,3.88,2,5.19,3.56,4.87,5.9,11.28,10.54,14.65,17.68-4.24.07-5.15-4-7.42-6.28-2.42-2.38-4.53-5-7.5-6.8C741,500.61,739.82,500.27,739.22,499Z" transform="translate(-383.36 -129.96)"></path><path class="cls-27" d="M714,689.12c1.27-1,3.44,1.31,4.29-1.18,4.3,5.11,5.53,12,2.9,16.21C717.38,699.79,716.33,694.13,714,689.12Z" transform="translate(-383.36 -129.96)"></path><path class="cls-27" d="M597.23,786c3.24,1.92,1.57,4.81,1,7.12a39.55,39.55,0,0,1-5.76,14c-1-.26-1.51-.83-1.08-1.91C593.19,798.67,593.93,791.92,597.23,786Z" transform="translate(-383.36 -129.96)"></path><path class="cls-28" d="M585.93,854.9c1.85,5.75,3.32,11.47,2.28,17.71-.44,2.62.68,5.51,1.09,8.28-1.35.87-2.09-.14-2.9-.94A71.23,71.23,0,0,1,585.93,854.9Z" transform="translate(-383.36 -129.96)"></path><path class="cls-29" d="M840.06,903.63c1.29-5,4.59-8.13,8.41-11.47s7.1-8,11.37-11.24A75.46,75.46,0,0,1,840.06,903.63Z" transform="translate(-383.36 -129.96)"></path><path class="cls-18" d="M798.84,454.07c-3.43.12-4.71-2.69-6-4.93-2.85-4.93-8.76-7.73-9.66-14C789.61,440.45,795.84,445.91,798.84,454.07Z" transform="translate(-383.36 -129.96)"></path><path class="cls-30" d="M586.4,880l2.9.94c.43,2.61,1,5.22,1.27,7.85.59,5.06.85,10.14-.37,15.17C587.7,896.12,587.19,888,586.4,880Z" transform="translate(-383.36 -129.96)"></path><path class="cls-10" d="M415.52,900c1.57-1.07,3-1.94,4.72,0a42.51,42.51,0,0,0,6.47,6c2.31,1.76,2.69,4.4,1.71,7.16C423.31,909.54,419.82,904.35,415.52,900Z" transform="translate(-383.36 -129.96)"></path><path class="cls-31" d="M522.92,550.86c3.84,2.64,1,5.58,0,8-.85,2-2.95,3.51-4.49,5.23-1.29.64-2.57,1.29-3.85,1.94C517.41,561,518.81,555.2,522.92,550.86Z" transform="translate(-383.36 -129.96)"></path><path class="cls-14" d="M730.27,724c7.23,3.09,10.79,10,8.86,17.18A147.5,147.5,0,0,1,730.27,724Z" transform="translate(-383.36 -129.96)"></path><path class="cls-27" d="M590.48,815c3.07,3.47,1.14,7.34-.12,10.42-1.45,3.55-1.41,7.41-3.14,10.78-1.33-7.28.1-14.27,2.14-21.21C589.73,814.4,590.11,814.4,590.48,815Z" transform="translate(-383.36 -129.96)"></path><path class="cls-32" d="M744.16,432.05c6.45,3,11.41,7.71,15.65,13.28,1,1.31,2,2.67,1.46,4.51A117.52,117.52,0,0,1,744.16,432.05Z" transform="translate(-383.36 -129.96)"></path><path class="cls-33" d="M511.3,451.76a6,6,0,0,1-1.9,3.38c-1.16,1.33-1,2.28.66,3.08.78.38,2.92-.4,1.95,1.76-.52,1.16-1.73,3-2.79,2.24-3.37-2.48-5.81.76-8.69.89-1.88-2.44,1.38-2.17,1.78-3.4C505.23,457,507.64,453.65,511.3,451.76Z" transform="translate(-383.36 -129.96)"></path><path class="cls-21" d="M521.48,740.09c-.27-.2-.68-.34-.78-.6-1.94-4.84,3.61-14,8.77-14.48A86,86,0,0,1,521.48,740.09Z" transform="translate(-383.36 -129.96)"></path><path class="cls-24" d="M563.4,655c6.64-.52,11.33,5.42,8.84,11.18A31.6,31.6,0,0,1,563.4,655Z" transform="translate(-383.36 -129.96)"></path><path class="cls-16" d="M619.22,640.91c1.14,3.19.86,6.44.55,9.72-.11,1.27-.73,3.44,2.09,1.65,1.25-.8,1,.91.86,1.43-1.09,3.42-3.34,6.53-1.93,10.55.37,1-1.42.79-2.35.74C618.76,657,617.26,648.89,619.22,640.91Z" transform="translate(-383.36 -129.96)"></path><path class="cls-10" d="M527.54,423.38c.63-1.87,2.53-2.51,3.78-3.67-.26-1.94-2.2-.34-2.71-1.57,0-1.93,11.17-5.09,14.14-4C537.61,417.14,533.15,421.21,527.54,423.38Z" transform="translate(-383.36 -129.96)"></path><path class="cls-34" d="M719,638.9l2.31,4c.45,5.44-3.5,7.61-7.32,9.88C714.14,647.64,717.21,643.51,719,638.9Z" transform="translate(-383.36 -129.96)"></path><path class="cls-23" d="M439.28,494.71C441,502.86,438,510,434.49,517,433.67,509.06,437.31,502.06,439.28,494.71Z" transform="translate(-383.36 -129.96)"></path><path class="cls-7" d="M580.19,921.94c-5.78-5.3-7.35-11.65-4.79-19C576.94,909.26,579.73,915.3,580.19,921.94Z" transform="translate(-383.36 -129.96)"></path><path class="cls-7" d="M583.59,931.84c-2.08.25-.05,3.39-2,3.21s-1.41-2.26-1.69-3.66c-.49-2.5-3.87-2.74-4.27-5.38-.26-1.73-1.42-3.4-.13-5.62,2.2,2.06,2,5.84,5.17,6.85,1-.94.42-2.19.68-3.26C582.42,926.51,583.82,928.94,583.59,931.84Z" transform="translate(-383.36 -129.96)"></path><path class="cls-35" d="M499.64,449.22c-.31-4.44,3.27-6.57,5.72-9.25A24.34,24.34,0,0,1,515.43,433C510.55,438.81,505.66,444.56,499.64,449.22Z" transform="translate(-383.36 -129.96)"></path><path class="cls-36" d="M509.57,566.27c-1.17-4.6.18-10-4.48-13.53-1-.8.11-2.41,1.44-3.85.47,3,2.51,3.82,4.91,4.12Q510.5,559.64,509.57,566.27Z" transform="translate(-383.36 -129.96)"></path><path class="cls-37" d="M819.16,731.06a51.64,51.64,0,0,1-6.55-13.25c-.43-1.37-.53-2.13.68-2.88a57.53,57.53,0,0,1,5.84,11.29C819.71,727.74,821.22,729.44,819.16,731.06Z" transform="translate(-383.36 -129.96)"></path><path class="cls-11" d="M657.57,943.05l-3.34-.28c.15-.46.51-.95.43-1.36-.88-4.65.92-7.19,5.7-7.47C661.38,937.57,659.25,940.24,657.57,943.05Z" transform="translate(-383.36 -129.96)"></path><path class="cls-36" d="M499.38,418.9c-.8,1.74-3.42,2.89-1.33,5.53,1.12,1.42-.56,2.45-1.57,3.12-1.32.86-1.71-.33-1.81-1.34-.22-2-1.34-1.66-2.34-.82a4.35,4.35,0,0,1-4.62.7C491.48,423.5,494.88,420.31,499.38,418.9Z" transform="translate(-383.36 -129.96)"></path><path class="cls-38" d="M748.29,906.2c0,6.65-3.17,11.17-9.27,13.68C741.82,915.12,744.3,910.15,748.29,906.2Z" transform="translate(-383.36 -129.96)"></path><path class="cls-12" d="M711.12,552.05a7.63,7.63,0,0,0,3.81.36c3.31-.48,5.73.7,6.3,4.63-2.26-.24-4.67-1.26-6.17,1.33C713.68,556.31,711.78,554.57,711.12,552.05Z" transform="translate(-383.36 -129.96)"></path><path class="cls-39" d="M707.28,714c-2.71,4-5.41,2.87-8.11,0,.89-.7,1.83-1.34,2.66-2.09C705.11,708.85,706.63,710.26,707.28,714Z" transform="translate(-383.36 -129.96)"></path><path class="cls-27" d="M560.52,713.91c-2.66,2.81-5.34,4.24-8.08.09C554.31,709.37,554.31,709.37,560.52,713.91Z" transform="translate(-383.36 -129.96)"></path><path class="cls-2" d="M712.06,674.24c.86-.73,1.74-.45,1.92.46.77,3.73,2.6,7.47.27,11.28A19.18,19.18,0,0,1,712.06,674.24Z" transform="translate(-383.36 -129.96)"></path><path class="cls-12" d="M609.36,534c2.58,1.44,7.2.38,6.7,5.6-.24,2.52-1.64,3.42-4,3.3C615.17,538.71,611.15,536.69,609.36,534Z" transform="translate(-383.36 -129.96)"></path><path class="cls-23" d="M454.31,699.73c2.24,5.45-1.54,8.24-4.93,11.2A32.24,32.24,0,0,1,454.31,699.73Z" transform="translate(-383.36 -129.96)"></path><path class="cls-39" d="M543.33,1048.14c2.89-4.56-3.37-.9-2.74-3.34,4.3-1.77,7.21-.33,7.83,4A8.9,8.9,0,0,1,543.33,1048.14Z" transform="translate(-383.36 -129.96)"></path><path class="cls-29" d="M831.14,913c-.87-6.23.78-8,5.82-6.11C835.84,909.72,833.37,911.25,831.14,913Z" transform="translate(-383.36 -129.96)"></path><path class="cls-40" d="M670.27,815a16.7,16.7,0,0,1-3-14C668.33,805.63,671.18,809.9,670.27,815Z" transform="translate(-383.36 -129.96)"></path><path class="cls-40" d="M672.16,826c-2.75-3.32-3.63-7-1.89-11C672.65,818.35,672.48,822.16,672.16,826Z" transform="translate(-383.36 -129.96)"></path><path class="cls-11" d="M599.14,934c3.7,2.09,6.69,4.42,3.09,9C600.22,940.36,598.82,937.49,599.14,934Z" transform="translate(-383.36 -129.96)"></path><path class="cls-41" d="M573.35,957c4.94,1,8.34,3.54,9.1,8.83C579.24,963,576,960.34,573.35,957Z" transform="translate(-383.36 -129.96)"></path><path class="cls-12" d="M641.28,646c-3.31-4.31-4.13-8.64-.08-13Q641.25,639.51,641.28,646Z" transform="translate(-383.36 -129.96)"></path><path class="cls-42" d="M728.12,907.78c.75-4.89,2.53-9.17,7-11.87C732.52,899.71,732.22,904.87,728.12,907.78Z" transform="translate(-383.36 -129.96)"></path><path class="cls-43" d="M820.28,499l1-4.14c2.1,3.78,2.67,7.93,2.9,12.16C820.32,505.55,821.43,501.73,820.28,499Z" transform="translate(-383.36 -129.96)"></path><path class="cls-17" d="M551.36,465c1,3.34-2.53,4.63-3.42,7.18-.37,1-1.69-.89-2.69-1.21C546.94,468.58,547.88,465.47,551.36,465Z" transform="translate(-383.36 -129.96)"></path><path class="cls-44" d="M610.17,750.71c.27,4,.79,8.13-4.61,9.33C606.81,756.78,607.57,753.29,610.17,750.71Z" transform="translate(-383.36 -129.96)"></path><path class="cls-40" d="M405.53,831c-2.55-3.68-6.69-6.74-4.86-12.18A39.11,39.11,0,0,1,405.53,831Z" transform="translate(-383.36 -129.96)"></path><path class="cls-45" d="M473.34,439c-1.45,3.79-3.31,7.19-7.77,8.08C467.25,443.5,470.09,441.05,473.34,439Z" transform="translate(-383.36 -129.96)"></path><path class="cls-34" d="M712,467.11c-3.35.62-6.65-2.95-6.6-7.13Z" transform="translate(-383.36 -129.96)"></path><path class="cls-19" d="M679.63,963.07c-2.21-2.85,1.52-2.5,2.17-3.84.81-1.67,2.62-2.34,4.57-2.23C684.2,959.11,682.8,962.07,679.63,963.07Z" transform="translate(-383.36 -129.96)"></path><path class="cls-46" d="M590.48,815h-1.12c-.72-3.58.73-6.71,2.08-9.85l1.08,1.91Z" transform="translate(-383.36 -129.96)"></path><path class="cls-31" d="M527.46,543.2c.8,3.52.39,6.33-4,6.81A9,9,0,0,1,527.46,543.2Z" transform="translate(-383.36 -129.96)"></path><path class="cls-14" d="M698.2,783.8c-.21-5.2,3.91-4.95,7.2-5.75C703.53,780.63,700.69,782,698.2,783.8Z" transform="translate(-383.36 -129.96)"></path><path class="cls-42" d="M502.31,459.71l-1.78,3.39c-1.82,1.58-2.8,4.44-6,4C496.54,464,498.68,461.06,502.31,459.71Z" transform="translate(-383.36 -129.96)"></path><path class="cls-47" d="M715.09,521.07c-1.34,1.41-2.7,1.51-3.33-.47-.58-1.82-2-3.47-1.53-5.58A21.56,21.56,0,0,1,715.09,521.07Z" transform="translate(-383.36 -129.96)"></path><path class="cls-36" d="M511.44,553c-2-4.5,1-7.61,3-11C513.49,545.7,513.24,549.57,511.44,553Z" transform="translate(-383.36 -129.96)"></path><path class="cls-48" d="M507.51,414.19c-1.42,3.89-4.45,4.93-8.22,4.65C501.6,416.52,504.5,415.27,507.51,414.19Z" transform="translate(-383.36 -129.96)"></path><path class="cls-1" d="M540.15,456c-.6-1.49-1.34-3.15,0-4.47,1.14-1.17,2.33-.05,3.37.66C543.35,454.27,541.24,454.67,540.15,456Z" transform="translate(-383.36 -129.96)"></path><path class="cls-18" d="M639.36,977.05c-1.62-1.45-3.15-2.92-1.62-5.47l3.52,2.35C641.61,975.56,640.35,976.22,639.36,977.05Z" transform="translate(-383.36 -129.96)"></path><path class="cls-49" d="M654.26,766c0-2,0-3.94,0-5.9a18.88,18.88,0,0,1,3.31,8.76A6.85,6.85,0,0,1,654.26,766Z" transform="translate(-383.36 -129.96)"></path><path class="cls-50" d="M480.46,683c2.79-3.46,7.92-5.1,8-10.67,0-1.58,1.34-1.58,2.62-1.13,2,.7,1.91-1.19,2.78-2.43a10.06,10.06,0,0,1,1.92,7c-.06,1.34-1.81,3.09.26,3.89,1.79.69,1.48-2.35,3.15-2.6,1.45,1.18-2,3.24.59,4,1.37.44,3.09,2.13,4.49-.61-1,1.84,2.15,6.57-3.43,4.46-.26-.09-1.08.55-1.05.62,1.34,3.46-2,3.8-3.46,4-5.15.9-5.52,6.15-8.69,8.76-1.3,1.07-1.17,1.22-3.66.42-2.67-.87-8.3,4.25-8.17,7.67-2.83-1.65-4.06-3.15-2.18-6.63,2-3.71,2.86-8.08,5.86-11.25,1.7-1.79-.42-4,.94-5.63Z" transform="translate(-383.36 -129.96)"></path><path class="cls-50" d="M480.46,683c-3.93,1-6.15,3.42-6,7.65,0,.85.12,1.76-1,1.88-.85.09-2.18-.59-1.95-1,1.43-2.73-2.39-5.6.95-8.64s5.35-2.69,8,.14Z" transform="translate(-383.36 -129.96)"></path><path class="cls-22" d="M504.43,482c.63.78,1.52,1.74.61,2.61a92.45,92.45,0,0,1-8.18,6.86c2.38-3.25,3.38-7.53,7.58-9.45Z" transform="translate(-383.36 -129.96)"></path><path class="cls-22" d="M504.44,482c.41-4.29,2.8-6.56,7-7a1.48,1.48,0,0,1,.94.95c-2.45,2.28-4,5.83-8,6Z" transform="translate(-383.36 -129.96)"></path><path class="cls-10" d="M543.66,406.76c-1.29,3.11-3.49,4-6.32,4.86C537.65,407.44,539.75,406.36,543.66,406.76Z" transform="translate(-383.36 -129.96)"></path><path class="cls-51" d="M512.42,476l-.94-.95c2.11-1.48,2.15-5,6-5.5A14.91,14.91,0,0,1,512.42,476Z" transform="translate(-383.36 -129.96)"></path><path class="cls-4" d="M732.11,545c.42,3.91,4.36,8.16-1.12,11.55-.47.29-.92,1.58-.27,1.65,3.75.41,3.47,5.9,7.49,5.81,0,6.28,2.31,10.81,9,12.37,3.12.73,3.26,3.16,1.79,5.44s-2.89,4.29-3.38,7.07-6.43,4.4-8.25,2.35-5,.52-6.62-2.46c-.68-1.26-2-2.11-1.54-3.78,1.77-1.24,1.95-2.06,1.53-4.76-.67-4.35-5.32-7.43-3.52-12.24,2.64-4.17-1.67-9,1.25-13.22.75-1.08-.48-1.93-1.63-2.55-1.56-.86,0-1.52.39-2.25.27-3.28-3.71-5-3.14-8.36,0-.22.1-.43.16-.65C729,538.2,729,544.57,732.11,545Z" transform="translate(-383.36 -129.96)"></path><path class="cls-52" d="M752.19,547c0,.33,0,.66,0,1-2.64-3-.32-5.8,1.65-6.54,5-1.9,7.66-4.48,5.62-10.24,4.14.15,6.51,5.46,10.7,2.1.49,2-.5,2.83-1.61,3.1-2.78.69-2,4.17-1.8,4.35,2.86,2.12,3.53,4.79,3,8.12-.14.85.86,1.16,1.79,1.27,6.09.75,8.38,4.24,6.2,9.92-1,2.63-2.34,4.86,1.3,6.46a1.45,1.45,0,0,1,.53,2.46,6.09,6.09,0,0,1-5.47,1.81c-1.89-.42-3.22-.78-5,.29a2,2,0,0,1-3.09-1.46c-.24-1.3-2.68-3,0-4.07,1.31-.53,1.57-1.37,1.3-2.25-1.79-5.91-1.11-12.14-2.41-18.1-.76-3.5-4.93,1-6-2.27C756.78,544.53,753.27,543.75,752.19,547Z" transform="translate(-383.36 -129.96)"></path><path class="cls-13" d="M739.22,499a4.63,4.63,0,0,1,3,1.95c-1.68,1.26-1.08,2.55,0,3.8a19.29,19.29,0,0,0,1.77,1.73c1.83,1.66,4.58,3,5.29,5,.78,2.26-3.79,1.89-4.07,4.49h0c-4-1.51-7.62-3.08-8.86-8.06-.68-2.73-4-4.53-4.11-7.86.29-1.46-1.49-3.34.53-4.37,1.81-.91,2.94.65,4.06,1.84C737.47,498.26,738.11,499,739.22,499Z" transform="translate(-383.36 -129.96)"></path><path class="cls-22" d="M743.22,466h.95c.83,4.18,2.7,7.07,7,9,2.05.92,7.75,1.65,5,7h0c-4.38.28-5.88-3.73-8.53-5.93-2.22-1.85-3.85-4.41-5.77-6.64C740.16,467.44,741.33,466.61,743.22,466Z" transform="translate(-383.36 -129.96)"></path><path class="cls-14" d="M727.21,568c1.5,4.37,5.15,7.75,5.47,12.71.1,1.63,2.59,3.33,1.45,4.89-1.39,1.9-3.15-1-4.93-.6.68-4.15-2.07-7.52-2.6-11.42C726.34,571.61,724.57,569.64,727.21,568Z" transform="translate(-383.36 -129.96)"></path><path class="cls-13" d="M745.2,516c.64,1.14,1.06,2.55,2,3.34s-1,5.9,3.47,2.42c.71-.57,1.86,3.32,3.19,4.93.73.87,1.19,2.2-.15,3-.56.34-2,1.7-2.09-.11-.23-4.75-4.44-5.57-7.31-7.12-1.63-.87-3.29-1.9-3.65-3.15-.56-1.94,1.63-1.88,3-2.23.56-.14,1-.72,1.51-1.1Z" transform="translate(-383.36 -129.96)"></path><path class="cls-21" d="M789.72,483.83c.52,1.25.8,1.84,1,2.46.32.93.59,1.87,1.08,3.46-2-.71-4-2-4.86,1a1.93,1.93,0,0,1-3.24.8c-1.13-.94-2.25-2-1.75-3.78s1.47-2,3-1.47C787.11,487.08,788.21,485.47,789.72,483.83Z" transform="translate(-383.36 -129.96)"></path><path class="cls-22" d="M756.18,482c4.24,1.9,5.14,6.27,7.38,9.72-4-1.2-5.74-5-8.91-7.13-1-.7.92-1.73,1.54-2.59Z" transform="translate(-383.36 -129.96)"></path><path class="cls-25" d="M721.24,546c.9-2.8-.61-4.69-2.39-6.52-.83-.85-1.6-2-.43-3s1.7.38,2.36,1c1.18,1.13,2.31,2.33,3.46,3.5l0,0c.52,2.15,1.15,4.35-2,5C721.88,546.84,721.55,546.77,721.24,546Z" transform="translate(-383.36 -129.96)"></path><path class="cls-12" d="M722.22,546c1.54-1.32,1.15-3.42,2-5,2.07,1.89,2.57,4.78,5.08,6.69,2.18,1.65-.45,2.28-2.12,2.3C726,548.15,724.52,546.55,722.22,546Z" transform="translate(-383.36 -129.96)"></path><path class="cls-10" d="M702.83,427.32c2.77,0,4.44,1.74,6,3.57.53.62,2.13,1.15,1,2.24-.78.75-2.26,1.2-2.81-.49C706.26,430.35,704.33,429.07,702.83,427.32Z" transform="translate(-383.36 -129.96)"></path><path class="cls-39" d="M599,591.67c4,3.26,9.54,4.29,13,8.78C605.57,600.73,601.06,597.76,599,591.67Z" transform="translate(-383.36 -129.96)"></path><path class="cls-17" d="M642.94,572c-5.92.49-6.22-3.44-6.07-7.73C638.34,567.28,643.6,567.23,642.94,572Z" transform="translate(-383.36 -129.96)"></path><path class="cls-53" d="M643,545.6c-2.72-3.8-1.44-7.91-1.22-11.93.06-1,.87-1.33,1.8-1.12,1.31.29,1.46,1.1,1,2.21A17.73,17.73,0,0,0,643,545.6Z" transform="translate(-383.36 -129.96)"></path><path class="cls-16" d="M678.59,660.77c1.32.15,2.12.67,2,1.9a1.76,1.76,0,0,1-3.52,0C676.88,661.43,677.74,661,678.59,660.77Z" transform="translate(-383.36 -129.96)"></path><path class="cls-20" d="M750.33,972c-1.26-2.81.39-6.39-2.32-8.81,1.72-1.22,2.16-3.51,4.86-4.18,3.15-.78,2.12.58,2.29,2.28.23,2.31,1.73,1.7,3.28.94,1.75-.84,4.12-3.89,5.26-1.59s-2.67,3.11-4.61,4.08c-3.54,1.78-7.57,2.87-8.84,7.36Z" transform="translate(-383.36 -129.96)"></path><path class="cls-16" d="M819.71,909.45c.09,2.11-6.61,7.82-8.23,7.51-1.17-.22-1.5-1.15-1.79-2.11a2.63,2.63,0,0,1,1-3.08c1.83-1.36,3.82-2.45,5.61-3.93S819,908.45,819.71,909.45Z" transform="translate(-383.36 -129.96)"></path><path class="cls-12" d="M812.8,875.41a76.64,76.64,0,0,1-5.11,6.53c-.51.54-1.69-1.13-1.31-1.42,2.26-1.77-.24-6,3.59-6.78C811.77,873.4,812.48,875.07,812.8,875.41Z" transform="translate(-383.36 -129.96)"></path><path class="cls-23" d="M770.92,908.82c-2.08-.34-4,2.75-5.56.28-.73-1.2,1.35-2.56,2.54-3.1C770.81,904.67,768.81,908.78,770.92,908.82Z" transform="translate(-383.36 -129.96)"></path><path class="cls-20" d="M745,962.75c-.6,2.91-2.72,3.59-6.61,4.33C740.72,964,743,963.56,745,962.75Z" transform="translate(-383.36 -129.96)"></path><path class="cls-12" d="M727.71,837.8c-4.43-.12-7.63-3-7.31-6.57.13-1.5.39-3.09,2.45-3.05,1.83,0,7.33,6.24,7.28,8.25C730.09,838.28,728.61,837.72,727.71,837.8Z" transform="translate(-383.36 -129.96)"></path><path class="cls-18" d="M745.19,802.92c-3.66-8.25-2.44-12.61,4.75-17.39C748.56,791.91,744.22,796.7,745.19,802.92Z" transform="translate(-383.36 -129.96)"></path><path class="cls-14" d="M752.41,788.18c.31-2.37-.89-4.61,1.43-6.36a2.31,2.31,0,0,1,2.78.14c2.62,2,.78,4.58.79,6.87,0,1.54-.41,3.84-2.62,3.16C753.71,791.65,753.18,789.5,752.41,788.18Z" transform="translate(-383.36 -129.96)"></path><path class="cls-19" d="M681.91,954.82c.44-2.71,1.28-4.84,5-4.37C686.2,953.06,685.48,955.32,681.91,954.82Z" transform="translate(-383.36 -129.96)"></path><path class="cls-10" d="M544.81,883c-1.91-3.08-.86-6.82-2.39-9.83-1.21-2.37-1-3.87,1.62-5.08,2.27-1.07,5.22-1.73,5-5.33,0-.79.57-1.19,1.21-.27,1,1.43,4.27-1.3,4.2,2.37,0,1,1.15,3.07.3,3-4-.38-2.59,2.87-3,4.4a63.6,63.6,0,0,0-1.64,11c-.14,2-.61,4.46-2.25,4.4C545.65,887.53,545.52,884.7,544.81,883Z" transform="translate(-383.36 -129.96)"></path><path class="cls-16" d="M527.57,837.11c4-.7,2.49-5.72,5.64-6.88,1.63-.6,2.74-3,4.71-2,1.66.84,1.43,2.81,1.3,4.46-.18,2.37-1.26,4.27-3.66,4.67S530.4,838.42,527.57,837.11Z" transform="translate(-383.36 -129.96)"></path><path class="cls-27" d="M501.83,777.33c3.36,3.3,6.27,6.37,5.55,11.26-.26,1.76-.57,3.4-2.67,3.54s-2.67-1.73-2.45-3C502.93,785.21,498.93,781.44,501.83,777.33Z" transform="translate(-383.36 -129.96)"></path><path class="cls-18" d="M513.67,802.28c.86-5.74-.76-10.45-4-15.27,6.89.34,6.16,5.7,7.79,8.94C518.75,798.58,516.83,800.55,513.67,802.28Z" transform="translate(-383.36 -129.96)"></path><path class="cls-41" d="M578.48,954.1c-.29,1.35-1.16,1.32-2,1.33-2,0-2.44-1.41-2.52-2.95-.06-1.2,1-2.09,1.86-1.51C577,951.71,577.7,953.12,578.48,954.1Z" transform="translate(-383.36 -129.96)"></path><path class="cls-54" d="M465.44,896.94c.32.64.45,1.63-.18,1.77-4.87,1-8.24,6.31-14,4.89-3.38-.83-5,2.71-7.77,3.37-.62-.06-.7-.67-1-1a23.3,23.3,0,0,0-12-12.73c-3.06-1.43-3.14-5.64-6.27-7.12-.17-.08-.27-.83-.14-.92,3.27-2.41,3.73-5,1.43-8.56-.47-.71,2.38-1.08,3.31-.49,3.16,2,6.9,1.2,10,1.33s6.66-2.9,9.69-5c1.95-1.37,3.72-2,6-1.48,1.24,1.72,1.11,3.16-.54,4.29,1.64-1.13,1.78-2.57.53-4.29-.25-1.12-.71-2.87.69-2.86a4.42,4.42,0,0,1,3.38,2.46c.7,2.23.95,4.59,4,3.34s5.06-3.54,2.89-7.26c6.65.61,9.74,4.55,8.5,12.59-.33,2.13.48,2.18,1.22,3,1.4,1.55,4,3,2.6,5.28-1.15,2-3.84,1.42-6,1a14.58,14.58,0,0,1-2.75-1.1c-.11,1.7.26,3.21-.61,4.53a4.85,4.85,0,0,1-6.56-.32C464,892.5,465,894.56,465.44,896.94Z" transform="translate(-383.36 -129.96)"></path><path class="cls-50" d="M442.48,906l1,1c1.23,1.66,2,3.42,5,2.25.91-.35,4.37-1.67,5.93,1.41.84,1.68,3.07.48,4-.2,3.24-2.44,6.48-1.49,9.84-.73s3.74.55,4-2.85c.07-.78.37-1.56.88-1.54,3.5.11,6.25-2.45,9.44-2.74s4.32-.94,3.56-4.1c-.36-1.5-.35-2.8,1.71-3.44,2.36-.73,1.78,1.32,2.47,2.15,4.9,5.91,7.41,13.26,11.77,19.53,2.26,3.25,6.06,5.24,7.31,9.24h0c-3.75-.46-6.07-3.49-8.45-5.68-3.32-3.06-6.62-1.52-9.74-1.25s-2.37,3.3-2.13,5.63c.16,1.52-1,3.05-2.1,1.62-2-2.5-4-2.52-6.54-1.69a2.23,2.23,0,0,1-1.89-.22c-4.5-5.12-5.38.06-7.42,3-2-6.29-8.06-1.77-11.35-4.79-.48-.44-1.82,0-2.3-.41-4.18-3.88-9.85-4.42-14.74-6.7C439.17,913.81,439,910,442.48,906Z" transform="translate(-383.36 -129.96)"></path><path class="cls-55" d="M509.43,926c4.4,2,4.4,2,9.07-1.52,1.88,3.77,2.75,7.89,5.85,11.21,1.66,1.76-1.42,4.8-3.78,6-5,2.52-5.05,2.38-.87,6.54a15.21,15.21,0,0,1,1.13,1.53c-3.2.4-4.2-2.4-6.15-3.73-1.2,3.49.67,5.6,3.08,8.3-3.29-.23-4.89-2.29-6.83-3.42a2.19,2.19,0,0,1-.21-3.8c3.28-2.23,2.39-5.45,1.63-8.06-.4-1.41-.42-1.87.47-2.73.59-.57,1.24-1.9.37-2-5.51-.93-3.17-5.23-3.76-8.26Z" transform="translate(-383.36 -129.96)"></path><path class="cls-17" d="M465.44,896.94c-3.67-.7-4.24-7.12-10.18-4.18,1.21-3.26,2.06-4.85,4.91-3.73s5.52,2,8.28,3C468.49,894.27,466.57,895.37,465.44,896.94Z" transform="translate(-383.36 -129.96)"></path><path class="cls-22" d="M404.11,866c3.4.77,6.19,2.41,9.45,1.46,2.1-.61,1.15,1.35,1.39,2.15.39,1.3.07,3.54-1.38,2.69-2.38-1.39-7.7,3.5-7.44-3.42C406.16,868.15,403.39,868.51,404.11,866Z" transform="translate(-383.36 -129.96)"></path><path class="cls-21" d="M554.18,1002.25c2.53.62,4.87,2.06,7.67,1.53.51-.09,1.84,1.13,1.75,1.37a10.79,10.79,0,0,1-2.08,3.83c-1.21,1.27-1.51-.25-1.95-1.05-1.27-2.32-3.27-.63-4.91-.93-1.91-.35-3.71-1.34-3.67-3.41S553,1002.48,554.18,1002.25Z" transform="translate(-383.36 -129.96)"></path><path class="cls-56" d="M471.83,1004.79c1.58-2.32,3.58-2.81,5.77-4.33-.5,2.4,2.28,4.38.46,5.73C477,1007,474.29,1005.42,471.83,1004.79Z" transform="translate(-383.36 -129.96)"></path><path class="cls-30" d="M525.19,1001.15c-3.24,1-5.91.17-8.8-2.84C520.36,997.53,522.41,1000.78,525.19,1001.15Z" transform="translate(-383.36 -129.96)"></path><path class="cls-29" d="M476.48,976.52a2.12,2.12,0,0,1-2.17,1.71c-1.5-.11-.76-1.83-1.45-2.72s.56-1.36,1.39-1.22A2.37,2.37,0,0,1,476.48,976.52Z" transform="translate(-383.36 -129.96)"></path><path class="cls-50" d="M694.19,1007c1.65-3.42,3.51-4.86,6.89-1.5,1,1,3.06-.84,4.84-.32,2.05.6,3.8,0,4.37,3.68.44,2.85,3.9,6.52,7.73,7.37,2.22.49,3.1,1.36,3.54,3.29-7.44,2.56-14.6.22-21.8-1.23a4.78,4.78,0,0,1-3.43-3.3c-1.86-.82-4.52-.64-5-3.31C691,1009.49,692.24,1007.92,694.19,1007Z" transform="translate(-383.36 -129.96)"></path><path class="cls-37" d="M694.19,1007c-.37,1.95-3.23,4.55,1.43,5.23.37.06.48,1.8.71,2.76-5.23,1.81-7.75.7-9.07-4,1.38-1.68,2.75-3.39,5-4Z" transform="translate(-383.36 -129.96)"></path><path class="cls-50" d="M692.27,1007c-.5,2.79-2.22,4.06-5,4-.39-1.09-2.11-2.18-.37-3.34S690.27,1005.35,692.27,1007Z" transform="translate(-383.36 -129.96)"></path><path class="cls-37" d="M782.19,1000.76c1.48,1.94,3.63,2.2,6.16,3.27-2.6,1.44-5.19,3.1-6.81,2.18C779.55,1005.08,783.62,1003.1,782.19,1000.76Z" transform="translate(-383.36 -129.96)"></path><path class="cls-33" d="M739.37,1001.54c.2-3.75,3.16-3.61,6.3-5.37C743.91,999.7,741,999.79,739.37,1001.54Z" transform="translate(-383.36 -129.96)"></path><path class="cls-11" d="M574.71,1041.22c2.9-3.7,4.56-9.58,9-3.15,4.09-1.09-3-4.66,1.61-5.29,3.17-.43.85,3,2.21,4,.35,0,.83,0,1-.13,4.66-6.07,10.95-10.49,16.19-16a5.43,5.43,0,0,1,7.67-.63c1.44,1.07,1.85,2,.46,3.11-2.84,2.22-1.56,4.71-.74,7.21.23.72,1.24,1.41.44,2.16-.37.34-1.27.25-1.91.16-1.75-.22-.72-1.43-.73-2.27s0-1.92,0-3.38c-2.37,1-4.11,2.45-6.46,2.75-2.6.32-4.63,1.84-3.85,5.17.26,1.1.13,3-1.26,2.71-4.48-.91-6.84,2.37-9.9,4.38,1.77,3.76,8.75-1.85,8.8,5.48-2.61-1.67-5-1.41-7.55,0-3.42,1.84-6-.71-8.3-2.56C579.39,1043.34,577.82,1041.45,574.71,1041.22Z" transform="translate(-383.36 -129.96)"></path><path class="cls-15" d="M820.57,798.92c-2.8-.28-5.14-4.4-8.46-1.12-.42.42-2.43-3.08-3-3.8-3.25-4,.7-5.49,2.7-6.62a15.22,15.22,0,0,1,12.3-1.16,1.79,1.79,0,0,1,.79,2.9c-1.77,2.35-3,4.66-2.12,7.78C823.26,798.54,821.75,798.65,820.57,798.92Z" transform="translate(-383.36 -129.96)"></path><path class="cls-38" d="M796.64,792.84c-1.7,2.73-3.76,3.86-7.31,1.08C792.44,794.18,794.61,793.92,796.64,792.84Z" transform="translate(-383.36 -129.96)"></path><path class="cls-52" d="M457.48,800c0,2.92,1.59,5.24,3,7.63.77,1.3,1.4,2.86.24,4.19s-2.34.07-3.5-.46c-1.75-.79-3.6-2-3,1.84.32,1.91-.83,2.08-5.32.67.56,2.09,2.07,3.4,3.6,4.65,1.17,1,1.88,2,.71,3.36s-2.08,1.1-3-.5c-.31-.56-1.4-.75-2.16-1-4.23-1.33-7.53-5.56-7.35-9.58a1.88,1.88,0,0,1,2.8-1.79c2.49,1.09,4.13-1.2,6.4-1.24,1.64,0,3-2.17,3.46-3.92.53-2.13-1.91-1.82-3-2.68-1.29-1-2.69-2-4-3-.86-.67-1.8-1.28-2.47,0-1.7,3.21-3.75,1.4-5.89.68-4.21-1.4-4-4.19-2.11-7.81-2.76,1-4.78.87-5.1-1.95-.27-2.35.93-3.5,3.51-3.75,6.51-.65,12.39,1.6,18.37,3.49a4.64,4.64,0,0,1,1.71,1.55c-3.7,4.7,3,6.14,3,9.61Z" transform="translate(-383.36 -129.96)"></path><path class="cls-52" d="M457.48,800c.76-1.14,2.66-1.83,1.64-3.7-.82-1.51-3-3.42-.82-4.56a6.62,6.62,0,0,1,7.75.78c.31.28.33.88.64,1.77,1.52-2.93.31-5.72,3.29-7.51a38.24,38.24,0,0,0,1.1,11.92c-2.32.1-4.12-.32-5.47-3.41-.68,7.19-4.68,5.27-8.13,4.71Z" transform="translate(-383.36 -129.96)"></path><path class="cls-12" d="M571.12,750.81c4,7.29-1.12,13.38-1.81,19.9-.13,1.15-1.26,1.58-2.26.56s-2.2-2-1.55-3.42C567.91,762.46,565.87,755.65,571.12,750.81Z" transform="translate(-383.36 -129.96)"></path><path class="cls-39" d="M567,732.27c-2.55.25-4.53,2.65-5.58-.32-.54-1.5-1.94-3.43-.84-5.11.66-1,1.83,0,2.4.77C564,729.05,564.51,730.88,567,732.27Z" transform="translate(-383.36 -129.96)"></path><path class="cls-12" d="M688.57,750.47c2.69,4,5.56,6.95,3.74,12-.57,1.6,3,4.13,1.38,7-.54,1-.55,2.53-1.93,2.57a2.56,2.56,0,0,1-2.34-2.24C689.34,763.59,685.06,757.57,688.57,750.47Z" transform="translate(-383.36 -129.96)"></path><path class="cls-17" d="M699,726.57c.19.53.48.92.38,1.11-1,2-.75,5.25-4.29,5.09a3.29,3.29,0,0,1-1.53-.84C694.68,729.47,696,727.14,699,726.57Z" transform="translate(-383.36 -129.96)"></path><path class="cls-16" d="M465.68,753.92c-2,3.11-4.41,4.64-7.18,2.61-1.83-1.34-5.1,3.06-5.66-1.81-.22-2,.09-3.32,2-2.47C458.25,753.73,461.86,753.37,465.68,753.92Z" transform="translate(-383.36 -129.96)"></path><path class="cls-47" d="M725.26,487c-1.51,3.08-3.9,1.56-5.89.91-3-1,1.28-2.64-.18-3.91C721.68,484.06,722.23,488,725.26,487Z" transform="translate(-383.36 -129.96)"></path><path class="cls-1" d="M533.4,496c.06-2.07-1.06-3.67-3-6l5,2,4.75-.93C537.82,493.58,536.09,495.37,533.4,496Z" transform="translate(-383.36 -129.96)"></path><path class="cls-1" d="M454.48,871c1.86,1.42,1.88,2.95.19,4.49a1.43,1.43,0,0,1-2.18-.06c-.42-.48-1-1.18-.9-1.67.3-1.75,1.07-.06,1.63-.12,1.87-.19,1-1.69,1.27-2.64Z" transform="translate(-383.36 -129.96)"></path></svg>