<svg xmlns="http://www.w3.org/2000/svg" width="900" height="600" xmlns:v="https://vecta.io/nano"><style><![CDATA[.B{fill-opacity:.086}.C{font-size:24px}]]></style><g fill-rule="evenodd" stroke="#000" class="B"><path d="M374.707 44.724c235.858-26.486 463.019 66.238 507.485 207.149S771.606 528.567 535.801 555.219 72.652 489.307 27.908 348.428s110.04-276.772 345.793-303.59" fill="#3696c3" stroke-width=".453"/><path d="M706.015 161.334c70.456-7.133 138.314 17.838 151.598 55.787s-33.033 74.518-103.474 81.696-138.353-17.75-151.72-55.691 32.87-74.539 103.295-81.762" stroke-width=".251"/><path d="M280.172 123.48c146.366-19.353 287.336 48.395 314.932 151.352s-68.622 202.17-214.956 221.645S92.732 448.321 64.963 345.386s68.284-202.227 214.584-221.823" stroke-width=".371"/><g stroke-width=".3"><path d="M323.241 182.067c108.512-13.254 213.02 33.154 233.475 103.679s-50.881 138.482-159.369 151.82-213.08-32.991-233.663-103.5 50.63-138.521 159.094-151.942"/><path d="M374.314 241.214c75.958-8.156 149.113 20.405 163.43 63.805s-35.62 85.219-111.562 93.426-149.155-20.304-163.562-63.694 35.444-85.243 111.369-93.501"/></g></g><text xml:space="preserve" x="617.645" y="234.503" class="C"><tspan x="617.645" y="234.503"><tspan x="617.645" y="234.503">Irrational Numbers</tspan></tspan></text><text xml:space="preserve" x="297.645" y="318.234"><tspan x="297.645" y="318.234"><tspan x="297.645" y="318.234" class="C">Natural Numbers</tspan></tspan></text><text xml:space="preserve" x="311.645" y="219.983" class="C"><tspan x="311.645" y="219.983"><tspan x="311.645" y="219.983">Integers</tspan></tspan></text><text xml:space="preserve" x="371.73" y="78.234" class="C"><tspan x="371.73" y="78.234"><tspan x="371.73" y="78.234">Real Numbers</tspan></tspan></text><text xml:space="preserve" x="225.793" y="159.66" class="C"><tspan x="225.793" y="159.66"><tspan x="225.793" y="159.66">Rational Numbers</tspan></tspan></text></svg>