<svg xmlns="http://www.w3.org/2000/svg" id="Layer_1" data-name="Layer 1" viewBox="0 0 843.79 671.34"><defs><style>.cls-1{fill:#040404;}.cls-2{fill:#090909;}.cls-3{fill:#080808;}.cls-4{fill:#0b0b0b;}.cls-5{fill:#111;}.cls-6{fill:#141414;}.cls-7{fill:#0f0f0f;}.cls-8{fill:#030303;}.cls-9{fill:#060606;}.cls-10{fill:#0a0a0a;}.cls-11{fill:#131313;}.cls-12{fill:#1a1a1a;}.cls-13{fill:#0c0c0c;}.cls-14{fill:#161616;}.cls-15{fill:#2b2b2b;}.cls-16{fill:#212121;}.cls-17{fill:#1e1e1e;}.cls-18{fill:#0e0e0e;}.cls-19{fill:#4e4e4e;}.cls-20{fill:#070707;}.cls-21{fill:#0d0d0d;}.cls-22{fill:#191919;}.cls-23{fill:#202020;}.cls-24{fill:#2d2d2d;}.cls-25{fill:#2f2f2f;}.cls-26{fill:#1c1c1c;}.cls-27{fill:#525252;}.cls-28{fill:#313131;}.cls-29{fill:#7e7e7e;}.cls-30{fill:#2e2e2e;}.cls-31{fill:#292929;}.cls-32{fill:#303030;}.cls-33{fill:#797979;}.cls-34{fill:#606060;}.cls-35{fill:#717171;}.cls-36{fill:#6e6e6e;}.cls-37{fill:gray;}.cls-38{fill:#4d4d4d;}.cls-39{fill:#404040;}.cls-40{fill:#3c3c3c;}.cls-41{fill:#b2b2b2;}.cls-42{fill:#ababab;}.cls-43{fill:#a0a0a0;}.cls-44{fill:#101010;}.cls-45{fill:#9f9f9f;}.cls-46{fill:#5e5e5e;}</style></defs><path class="cls-1" d="M1082.26,244.77c2.35,25.76,4.23,51.54,4.26,77.43-.65,2.33-1.57,4.67.08,7,1.59,39.55,2.31,79.12-1.47,118.59-2.52,26.17-5.89,52.21-10.37,78.18-3.82,22.15-8.55,44-13.28,66-3.72-1.71-1.72-4.6-1.48-7.14,6.72-36.82,13.51-73.62,17.78-110.84,2.93-25.51,4.31-51.11,5.6-76.72-.11-4.34-2.73-8.68.07-13-.39-14.19-1-28.37-1.11-42.56-.28-32.36-1.62-64.66-4.23-96.91Z" transform="translate(-317.24 -244.77)"></path><path class="cls-2" d="M471.55,316.33l-.17-71.56h2.76Q477,309.45,477.2,374.2c0,2.88,1.75,5.82-.19,8.66,1.22,4,.63,7.94.13,11.92,1.44,13.86,1,27.77,1.21,41.66.46,28.35.61,56.69-1.41,85-3.51-.45-1.75-2.8-1.63-4.56-.2-22.54-.31-45.08-.61-67.62-.34-25.61-.86-51.22-1.28-76.84q-.41-24.35-.74-48.7C472.65,321.19,472.82,318.66,471.55,316.33Z" transform="translate(-317.24 -244.77)"></path><path class="cls-3" d="M790.43,413.18c8-9,17.18-17.15,23.5-27.16,6.21-9.84,12.88-19.59,17.61-30.43,5.88-13.47,13.35-26.28,18.65-40,7.11-18.34,14-36.83,19.32-55.83,1.39-5,2.7-10,4-15h5.53c-9.31,32.66-20,64.8-34.51,95.6-11.68,24.76-24,49-43.71,68.57-2.25,2.24-4.25,4.76-7.28,6.07C791.68,415.88,790.33,415.79,790.43,413.18Z" transform="translate(-317.24 -244.77)"></path><path class="cls-4" d="M1086.6,329.19a5.39,5.39,0,0,1-.08-7c6,.95,9.94-3.32,13.83-6.23,21.79-16.3,37.36-37.92,50.44-61.44,1.73-3.11,4.51-5.86,4.72-9.76H1161c-13.33,25.44-28.31,49.75-50.5,68.59-6.15,5.22-12.21,11.31-21.13,11.91C1086.88,325.44,1086.72,327.3,1086.6,329.19Z" transform="translate(-317.24 -244.77)"></path><path class="cls-5" d="M380.16,244.77c1.07,7.95,7.12,13,11.64,18.66,18.67,23.4,40.54,43.22,67.2,57.32.29,1.39-.1,2.1-1.65,1.63-17.06-6.85-30.8-18.51-44.14-30.71-15.07-13.79-28.58-28.91-38.58-46.9Z" transform="translate(-317.24 -244.77)"></path><path class="cls-6" d="M739.5,244.77a31.79,31.79,0,0,1,2.27,5.62c.56,2.67.66,6.05-2.4,6.92s-4.87-2.13-5.71-4.67-.75-5.24-1.07-7.87Z" transform="translate(-317.24 -244.77)"></path><path class="cls-7" d="M1072.58,244.77c1,1.28,1.91,2.56,2.84,3.85,1.21,1.7,1.45,3.46-.29,4.9s-3.57.83-4.93-.58c-2.54-2.62-4.87-5.44-7.29-8.17Z" transform="translate(-317.24 -244.77)"></path><path class="cls-8" d="M768.5,387.25a242.45,242.45,0,0,1,3,34.24c1.74,4.13-.77,8.68,1.26,12.78,2.45,47.68,4,95.41,2.88,143.13-.63,27.37-2.41,54.77-4.83,82.14-3.39,38.48-8.13,76.75-13.29,115-2.88,21.31-6.21,42.58-10.18,63.71-1.73,9.18-3.38,18.39-5.16,27.57-3.51-1.74-1.81-4.45-1.3-6.94-1.66-6.63.7-13.07,1.65-19.39q6.72-44.54,12.33-89.2c2.64-21.24,6-42.41,7.83-63.71,2.26-26.92,5.59-53.78,6.15-80.84.31-14.87.94-29.73,1.46-44.59.22-6.21.24-12.26-7-14.88.89-1.3-2.91-4.37,1.62-4.29,3.9,2.41,5.26.92,5.17-3.23-.42-20.63-1-41.26-1.11-61.9-.19-28.3-2.14-56.51-4.15-84.72a13.83,13.83,0,0,1,.63-3.34C766,387.35,766.88,386.57,768.5,387.25Z" transform="translate(-317.24 -244.77)"></path><path class="cls-8" d="M764.85,542c-.86,1.31.93,3.62-1.62,4.29-20.24-18.94-36.75-41-53.34-63.06-18.46-24.5-34.28-50.71-48.76-77.68-6.5-12.11-11.34-25.11-16.92-37.71-1.37-3.09-2.7-6.19-4.05-9.29l.14.16c-5.51-20.1-11.5-40.12-13.34-61-1-11-3-22.14-1-33.3-.57-1.11-.81-2.34.49-2.93,1-.47,1.55.52,1.68,1.46.51,3.61-.77,7.34.77,10.88,0,17.9,5.17,34.94,9,52.15,5.54,24.65,14.66,48.12,25.94,70.68,9.91,19.81,21.53,38.63,33.57,57.26,19.92,30.84,42.68,59.36,67,86.74C764.76,541,764.74,541.53,764.85,542Z" transform="translate(-317.24 -244.77)"></path><path class="cls-9" d="M930,430.25,931.66,455c2.43,4.49-.66,9.44,1.16,14,.75,25.45,1.62,50.91,2.24,76.37.83,34.15-2,68.09-6.76,101.88-2.1,14.78-4.27,29.54-6.41,44.32-3.89-1.73-1.56-4.78-1.57-7.34,2.38-22.53,4.61-45.09,7.17-67.61,3.8-33.56,3.25-67.24,2.77-100.9-.33-22.46-1-44.91-1.59-67.37-1.13-5.31-.28-10.67-.47-16C928.16,431.11,928.5,430.1,930,430.25Z" transform="translate(-317.24 -244.77)"></path><path class="cls-10" d="M560.36,288.83c19.25,25.45,39.88,49.34,69.65,63.22,3.65,1.71,6.86,4.38,10.28,6.62l-.14-.16c-2.12,3.5-4.92,1.62-7.19.57-25-11.57-45.63-28.68-62.89-50-5-6.15-10.1-12.29-13.2-19.74C557.41,285.1,559.18,288.92,560.36,288.83Z" transform="translate(-317.24 -244.77)"></path><path class="cls-11" d="M919.17,640.7c-23.19,8.85-80.16-14.64-94.31-42C837.59,611.34,851.65,622,868,629.58S901.39,640,919.17,640.7Z" transform="translate(-317.24 -244.77)"></path><path class="cls-12" d="M928.24,499c-19.27.15-48.23-52.77-47.59-88.26,3.75,16.57,5.9,33.53,14.67,48.63S914.11,487.86,928.24,499Z" transform="translate(-317.24 -244.77)"></path><path class="cls-7" d="M355.64,371.8c12.73,7.26,25.46,14.51,39.49,19.09,10.23,3.35,20.52,6.39,31.22,7.95,2.8.41,5.87.61,9.08,4.8-30.9-3.12-57.71-12.55-81.64-30.05C353.54,372.09,354.05,371.38,355.64,371.8Z" transform="translate(-317.24 -244.77)"></path><path class="cls-13" d="M979.62,291.81c10.06,8.14,18.33,18.33,29.18,25.54s22,14.41,35.38,17.55c-4.14,3-5.26,3.31-11.2.66C1011.31,325.87,992,313.12,979.62,291.81Z" transform="translate(-317.24 -244.77)"></path><path class="cls-14" d="M1078.19,388.57c-18.8-22.29-32.38-47.05-36.12-76.46a8.33,8.33,0,0,1,.78-4.24c6.26,28.87,19.07,54.56,36.65,78C1080.41,387.4,1080.46,388.55,1078.19,388.57Z" transform="translate(-317.24 -244.77)"></path><path class="cls-15" d="M981.48,514.66c-8.77,30.57-22.3,58.51-45.24,81.23,6.38-9.23,13-18.28,19.07-27.73,11.12-17.48,17.91-36.94,24.81-56.32C982.7,511.76,982.09,513.2,981.48,514.66Z" transform="translate(-317.24 -244.77)"></path><path class="cls-16" d="M477.14,394.78q-.06-6-.13-11.92c2.4,2.52,4.59.65,6.81-.33,27.72-12.19,41.64-31.22,52.84-60.17-.17,2.29.2,4.8-.59,6.86-8.7,22.69-21.64,41.87-44.45,52.67a13.14,13.14,0,0,1-3.14,1.37C481.9,384.38,476.2,386.28,477.14,394.78Z" transform="translate(-317.24 -244.77)"></path><path class="cls-17" d="M428.42,367.92c5.1,12.73,10,25.62,18,36.89,5.88,8.27,12.32,16.14,18.52,24.21-1.59,1.22-2.57.16-3.25-.53a141.13,141.13,0,0,1-34.55-56.19,10.75,10.75,0,0,1-.18-2.74C426.27,368,427.09,367.71,428.42,367.92Z" transform="translate(-317.24 -244.77)"></path><path class="cls-4" d="M970.34,385.17c-5.75-2.86-8.55-7.59-11.32-12.26-1.3-2.2-2.06-5.13.22-6.9,2.73-2.12,5.4,0,7.08,2C970.3,372.8,971.46,378.44,970.34,385.17Z" transform="translate(-317.24 -244.77)"></path><path class="cls-10" d="M886,409.28c.05-5.78,3-9.57,7.42-12.48,1.24-.83,2.35-2.55,4.08-.83a4.11,4.11,0,0,1,1.4,4.27c-1.35,5.15-4.72,8.9-8.83,11.78C887.39,413.92,885.16,413.15,886,409.28Z" transform="translate(-317.24 -244.77)"></path><path class="cls-7" d="M626,363.6c-2.45,3.24-4.15,7.53-9.27,7.85-2.73.17-5-.69-5.36-4-.41-3.84,4.47-9.09,8.6-9.23C623.4,358.12,624.53,360.69,626,363.6Z" transform="translate(-317.24 -244.77)"></path><path class="cls-10" d="M987.21,529.82c-1.45-.37-3.43.82-4.31-1.09s1.16-2.55,2-3.77a34.37,34.37,0,0,1,8.95-8.44c1.13-.75,2.4-1.57,3.79-.65,1.57,1,1.5,2.51,1.12,4.25C997.54,526,993.18,529.78,987.21,529.82Z" transform="translate(-317.24 -244.77)"></path><path class="cls-13" d="M1155,273c3.16.17,4.83,1.11,4.7,3.77-.15,3.26-7.72,8.54-11.67,8.32-2.52-.15-3.75-1.06-3.36-3.89A10.13,10.13,0,0,1,1155,273Z" transform="translate(-317.24 -244.77)"></path><path class="cls-18" d="M535.09,362.72c-3.08-1.19-8.73,1.39-9.42-4.73-.54-4.82,4.09-4.49,6.91-4.54,4-.07,9.33.17,10.11,4.91C543.31,362.22,538.84,362.6,535.09,362.72Z" transform="translate(-317.24 -244.77)"></path><path class="cls-18" d="M882,370.22c0,3-.13,5.19-2.94,5.38-3.51.23-8.24-7.62-7.94-13.05.12-2.08,1.19-4,3.27-3.21C879.62,361.3,881.62,365.76,882,370.22Z" transform="translate(-317.24 -244.77)"></path><path class="cls-19" d="M973,412.19c-5.07,15.75-13.05,29.59-26.22,40-1.61,1.13-2.6.95-2.62-1.25,13.32-9.82,20.63-23.75,26.4-38.73A1.45,1.45,0,0,1,973,412.19Z" transform="translate(-317.24 -244.77)"></path><path class="cls-13" d="M876.24,426.46c-1.31,2.06-2.92,4.09-5.67,2.16a45.68,45.68,0,0,1-7.05-6.44c-1.88-2-4-5-1.74-7.21,1.63-1.6,4.91-.06,6.68,1.68C871.34,419.5,874.9,421.9,876.24,426.46Z" transform="translate(-317.24 -244.77)"></path><path class="cls-20" d="M324.41,360.72c1.61-.1,1.84-.12,2.07-.12,3.61,0,9.1-.54,9,3.68s-5.76,4.4-9.57,4c-3.4-.39-8.81-.29-8.63-4.62C317.43,359,322.67,361.17,324.41,360.72Z" transform="translate(-317.24 -244.77)"></path><path class="cls-21" d="M971.58,433c-1.1.14-2.49.48-2.73-1a4.1,4.1,0,0,1,.7-3.16,35.8,35.8,0,0,1,11.35-7.52c1.43-.62,2.75-.42,3.54,1a3.93,3.93,0,0,1-.71,5A18.61,18.61,0,0,1,971.58,433Z" transform="translate(-317.24 -244.77)"></path><path class="cls-21" d="M578.11,283.4c-.91,3.76.16,8.31-4,10.89a2.47,2.47,0,0,1-2.39-.37c-2.91-3.58-1.91-7.61-1.11-11.64.54-2.72,1.75-5,4.74-4.8C579.31,277.73,577.58,281.14,578.11,283.4Z" transform="translate(-317.24 -244.77)"></path><path class="cls-18" d="M353.87,362.49c1.29-4.05.54-9.63,6.11-11,2.88-.72,2.88,2.65,2.66,4.39-.58,4.57-.26,10.19-6.16,11.52C354.15,367.89,354.21,364.59,353.87,362.49Z" transform="translate(-317.24 -244.77)"></path><path class="cls-21" d="M969,532.92c-.48,2.1.29,5.54-2.79,6-2.58.34-3.36-3-3.85-4.94-1-3.84-2.17-8,.33-11.78a1.53,1.53,0,0,1,2.4-.1C968.07,525,968.61,528.81,969,532.92Z" transform="translate(-317.24 -244.77)"></path><path class="cls-7" d="M537.15,274.71c4.22.27,7.69,2.19,9.37,6.41,1.14,2.86-1.84,3-3.21,3.15a10.83,10.83,0,0,1-10.82-5.58C530.59,275.25,534.5,275.16,537.15,274.71Z" transform="translate(-317.24 -244.77)"></path><path class="cls-22" d="M368.39,257.22c-3.41-.69-8.07-.19-8.8-4.74-.53-3.35,3.21-3.18,5.56-3.24,3.81-.09,8.08.94,9,4.75C374.87,257.32,370.79,256.71,368.39,257.22Z" transform="translate(-317.24 -244.77)"></path><path class="cls-23" d="M740.85,858.87c.23,2.35,0,4.79,1.3,6.94.41,8.63-2.29,16.79-3.89,25.11-3.91-1-1.89-3.7-1.74-5.88C737.5,876.24,738.24,867.4,740.85,858.87Z" transform="translate(-317.24 -244.77)"></path><path class="cls-24" d="M772.73,434.27c-2.52-4-1.46-8.45-1.26-12.78,1.91,2.55,3.74,1.49,5.82.09,4.31-2.91,8.75-5.61,13.14-8.4l3.16,1.83a38.27,38.27,0,0,1-18.11,10.2C770,426.63,773.84,431.29,772.73,434.27Z" transform="translate(-317.24 -244.77)"></path><path class="cls-3" d="M1092.24,460.52c-2.32-.17-4.25,0-4.46-2.69-.29-3.62,4-8.73,7.35-8.72,2.44,0,4.21,1.35,4,3.68A8.21,8.21,0,0,1,1092.24,460.52Z" transform="translate(-317.24 -244.77)"></path><path class="cls-6" d="M855.14,615.5c-2.71-.22-3.91-2.69-5.34-5s-2.22-4.51-1-7.05a2,2,0,0,1,2.24-1.06c3.33.35,8.21,8.13,7.07,11.31C857.68,614.92,856.92,615.5,855.14,615.5Z" transform="translate(-317.24 -244.77)"></path><path class="cls-2" d="M963.92,261.17c4.18.29,9.53,9.51,7.86,12.51a2.59,2.59,0,0,1-2.71,1.66c-3.74-.63-4.56-4.1-6.29-6.66a6.54,6.54,0,0,1-.49-6.49C962.55,261.58,963.66,261.32,963.92,261.17Z" transform="translate(-317.24 -244.77)"></path><path class="cls-6" d="M795.65,466.49c-1,4.15-4.57,6.51-9,7.35a2.88,2.88,0,0,1-3.39-3.82,11.74,11.74,0,0,1,10-7.13C795.12,462.69,796.24,463.76,795.65,466.49Z" transform="translate(-317.24 -244.77)"></path><path class="cls-7" d="M813.25,602.64c2.73,1,7.93-.24,8.23,3.71.27,3.6-4.83,3.65-7.63,3.59s-7.59.11-7.9-3.48S810,603,813.25,602.64Z" transform="translate(-317.24 -244.77)"></path><path class="cls-13" d="M1059.62,334.83c-1.12-.16-2.48-1.24-2-2.61,1.62-4.52,3.9-8.75,7.95-11.63,1.12-.79,2.26-.15,2.73,1.08,1.13,2.91.07,5.45-1.71,7.7S1063.7,334.77,1059.62,334.83Z" transform="translate(-317.24 -244.77)"></path><path class="cls-25" d="M1060,584.8c.49,2.38-.12,5,1.48,7.14-1.31,9.68-4,19-6.77,28.26l-1.75-.38Q1056.48,602.31,1060,584.8Z" transform="translate(-317.24 -244.77)"></path><path class="cls-10" d="M996.74,290.48c-.18,2.59-.2,4.42-.45,6.22s-1.65,2.06-3,2.17c-1.75.14-2.31-1-2.46-2.56a34.9,34.9,0,0,1-.53-4.74c.14-3.07-.52-7.69,3.45-7.81C999,283.61,995,288.9,996.74,290.48Z" transform="translate(-317.24 -244.77)"></path><path class="cls-26" d="M1041.29,287.59c.82-2.37-1.53-6.83,2.83-7,4.51-.13,3.43,4.36,3.66,7.28.21,2.73.27,6.25-3.24,6.42C1039.6,294.56,1042.16,290.09,1041.29,287.59Z" transform="translate(-317.24 -244.77)"></path><path class="cls-7" d="M525.42,331.9c0,2.63-.1,5.79-3.56,5.46-4.62-.44-3.6-4.63-3.67-7.64-.06-2.32-.55-6.16,3-5.55S525.43,328.52,525.42,331.9Z" transform="translate(-317.24 -244.77)"></path><path class="cls-27" d="M930,430.25c-2.27,5.88-.56,12.07-1.37,18.07-2.32-11.63-1-23.35-1.08-35.06C929.71,418.78,931.12,424.35,930,430.25Z" transform="translate(-317.24 -244.77)"></path><path class="cls-28" d="M355.64,371.8l-1.85,1.79c-6.4-3.7-11.37-9-16.17-14.42l1.06-1.38Z" transform="translate(-317.24 -244.77)"></path><path class="cls-29" d="M944.12,451l2.62,1.25c-2.15,1.68-4.06,4.12-6.5,4.89-6.13,1.94-7.87,6.08-7.42,11.86-1.89-4.54-.7-9.33-1.16-14,1.19,1.75,2.26,3.41,4.74,1.4S941.53,452.76,944.12,451Z" transform="translate(-317.24 -244.77)"></path><path class="cls-30" d="M920.32,684.2c.49,2.46.14,5.09,1.57,7.34-.51,6.1-1.32,12.14-3.51,18C918.6,701,918.27,692.53,920.32,684.2Z" transform="translate(-317.24 -244.77)"></path><path class="cls-31" d="M629,273.82c-2.19-2.91-.93-6.49-1.88-9.64,0-.09-.36-.17-.51-.13a1.86,1.86,0,0,0-.55.36c-1.78-3.93-1.09-7.83.16-11.72C630.29,259.31,628.83,266.67,629,273.82Z" transform="translate(-317.24 -244.77)"></path><path class="cls-32" d="M475.31,516.88l1.63,4.56q-.7,9.67-1.42,19.34c-3.7-1-1.92-3.47-1.42-5.58C474.18,529.07,473.12,522.87,475.31,516.88Z" transform="translate(-317.24 -244.77)"></path><path class="cls-33" d="M736.52,885c.48,2,.08,4.24,1.74,5.88q-.81,6.76-1.63,13.52c-1.26.43-1.86.15-1.37-1.28C733.8,897,735,891,736.52,885Z" transform="translate(-317.24 -244.77)"></path><path class="cls-34" d="M981.48,514.66c-.46-.94-.91-1.88-1.36-2.82l4.06-16.65c1.35-.37,1.93.08,1.62,1.5C984.76,502.78,984.18,509,981.48,514.66Z" transform="translate(-317.24 -244.77)"></path><path class="cls-35" d="M474.1,535.2c.47,1.86.95,3.72,1.42,5.58a29.5,29.5,0,0,1-1.88,12.67C472.79,547.34,472.2,541.26,474.1,535.2Z" transform="translate(-317.24 -244.77)"></path><path class="cls-36" d="M551.43,280.86c-3.14-3-3.23-7.65-5.66-11.06-.28-1.46.39-1.94,1.76-1.69,2.45,3.61,5.9,6.65,6.56,11.31A3.48,3.48,0,0,1,551.43,280.86Z" transform="translate(-317.24 -244.77)"></path><path class="cls-37" d="M973,412.19l-2.44.05q1.71-7.55,3.43-15.1C976.11,402.41,974.61,407.3,973,412.19Z" transform="translate(-317.24 -244.77)"></path><path class="cls-17" d="M551.43,280.86c.3-1.56,1.15-2.11,2.66-1.44l6.27,9.41-3.49.53A28.49,28.49,0,0,1,551.43,280.86Z" transform="translate(-317.24 -244.77)"></path><path class="cls-38" d="M1078.19,388.57l1.31-2.72c1.71.43,2.75-.77,4-1.61q0,6.5-.07,13C1083.2,393.42,1080.52,391.1,1078.19,388.57Z" transform="translate(-317.24 -244.77)"></path><path class="cls-39" d="M428.42,367.92l-1.48,1.64c-2-3.86-3.24-7.85-2.18-13.2C427.88,360.22,428.07,364.1,428.42,367.92Z" transform="translate(-317.24 -244.77)"></path><path class="cls-40" d="M457.35,322.38l1.65-1.63c3.61-.09,6.77,2.58,10.5,1.72-.09,4.32-3.37,2.78-5.31,2.49C461.84,324.6,459.63,323.28,457.35,322.38Z" transform="translate(-317.24 -244.77)"></path><path class="cls-41" d="M735.26,903.16l1.37,1.28c-.79,3.27-1.59,6.54-2.84,11.67C732,910.18,732.59,906.53,735.26,903.16Z" transform="translate(-317.24 -244.77)"></path><path class="cls-42" d="M547.53,268.11c-.59.56-1.18,1.12-1.76,1.69-2-3.55-3.08-7.39-3.93-13.34A33.58,33.58,0,0,1,547.53,268.11Z" transform="translate(-317.24 -244.77)"></path><path class="cls-43" d="M985.8,496.69l-1.62-1.5q1.25-5.08,2.48-10.18C988.73,489.27,987.36,493,985.8,496.69Z" transform="translate(-317.24 -244.77)"></path><path class="cls-23" d="M768.5,387.25l-3.11,1.53c-3-9.06-2.87-18.6-4.12-27.91-1.48-11.06-2.61-22.15-4.93-33.08,1.51-1.56-1.4-5.13,2.54-5.58C763.54,343.67,767.21,365.29,768.5,387.25Z" transform="translate(-317.24 -244.77)"></path><path class="cls-22" d="M680.93,390.29c.42,4.82-2.68,8.14-5,11.75-1,1.65-2.5,4-4.78,2.59a4.69,4.69,0,0,1-1.75-5.48c1.3-3.65,2.58-7.31,4.18-10.82a4.26,4.26,0,0,1,5.12-2.49C680.86,386.42,680.85,388.52,680.93,390.29Z" transform="translate(-317.24 -244.77)"></path><path class="cls-44" d="M740.61,264.83c-.93,2.65-1.87,4.22-4.52,4.15-4.54-.11-11.7-4.36-11.35-7.05.41-3.18,3.07-3.22,5.25-3.07C734.53,259.17,737.94,261.61,740.61,264.83Z" transform="translate(-317.24 -244.77)"></path><path class="cls-44" d="M645.16,277.47c-.76,4.23-3.06,7.45-7.73,8-2.86.33-3.41-1.92-2.76-4.17,1.22-4.24,2.78-8.6,8.12-8.78C645.82,272.42,645,275.29,645.16,277.47Z" transform="translate(-317.24 -244.77)"></path><path class="cls-18" d="M772.86,299.4c-.6,3.89-3.1,6.75-6.33,9.12a2,2,0,0,1-1.3.36,3,3,0,0,1-2.76-3.95c1.08-4.37,3.55-8.17,7.73-9.79C772.17,294.38,772.64,297.23,772.86,299.4Z" transform="translate(-317.24 -244.77)"></path><path class="cls-45" d="M749.78,291.46q-1.37-8.61-2.74-17.23l1.66-.32c.44,5.88,4.61,11,2.89,17.32Z" transform="translate(-317.24 -244.77)"></path><path class="cls-46" d="M758.88,322.21q-1.27,2.79-2.54,5.58-1.27-9.94-2.53-19.9A17.44,17.44,0,0,1,758.88,322.21Z" transform="translate(-317.24 -244.77)"></path><path class="cls-3" d="M401.79,266.23c.95-3.48,1.75-7,2.95-10.47a3.85,3.85,0,0,1,5-2.48c2,.6,2.59,2.37,2.51,4.39a16.87,16.87,0,0,1-4.61,11.16c-1.23,1.31-2.88,2.82-4.78,1.91S402.47,267.83,401.79,266.23Z" transform="translate(-317.24 -244.77)"></path></svg>