<svg xmlns="http://www.w3.org/2000/svg" id="Layer_1" data-name="Layer 1" viewBox="0 0 303.97 166.2"><defs><style>.cls-1{fill:#010101;}.cls-2{fill:#1a1a1a;}.cls-3{fill:#171717;}</style></defs><path class="cls-1" d="M552.9,496.55c13.54-19.7,34-27.3,56.06-32.13,27.57-6,55.18-3.81,82.78-.29,10.42,1.33,21,1.82,31.09,5.1,4,1.3,7.45-.47,11.17-1.7,25.7-8.51,51.51-16.72,79.17-14.32,3.25.28,8-.91,9.09,3.44s-3.74,5.48-6.3,7.5c-9.11,7.16-18.4,14.1-27.77,20.92-5.35,3.9-6.6,7.81-1.3,12.72,18.21,16.88,31.09,38,44.56,58.41,10.29,15.57,21.44,31.35,24.71,50.69.68,4,1.77,7.69-1.92,10.58-4.34,3.39-8.62.33-11.63-1.71-13-8.84-25.18-18.92-38.31-27.57-24.92-16.41-50.08-32.52-77.66-44.29-2.76-1.18-5.82-3.41-8.92-1-10.82,8.47-24.37,10.66-36.51,16.06-10.39,4.62-17,12-19.64,23.09-.44,1.87.28,4.76-2.34,5.26-2.85.54-4.36-2.05-5.63-4.07C644,568,645,552,651.21,536.08c2.59-6.67,7.31-12.52,11.62-19.67l-42.27-13.72c-4-1-7.67-3.41-12.08-2.9-1.8.21-4.36-.49-4.53-2-1.26-11.13-8.18-5.51-13.07-4.34-8,1.91-15.5,6-24.13,2.66-3.17-1.25-5.81,1.38-8.65,2.51C555.94,499.54,552.65,502.06,552.9,496.55Z" transform="translate(-552.89 -452.78)"></path><path class="cls-2" d="M552.9,496.55c10.81-5.7,23.85,1.52,35.06-8,6.93-5.86,18.91-3.73,29.48-2.79-2.63,5.71-7.6,7.33-11.35,11.26,4.84,2.42,10.73,1.59,14.47,5.63-21.11-2.81-42.22-5.24-63.55-2.19C553.5,501,553.45,500.65,552.9,496.55Z" transform="translate(-552.89 -452.78)"></path><path class="cls-3" d="M754,533.89c7.62-2.5,14.93-3.1,21.91.76,1.56.86,2.91,2.17,2.48,4.13-.49,2.18-2.55,2-4.23,2.17C766.55,541.58,760.87,536.25,754,533.89Z" transform="translate(-552.89 -452.78)"></path></svg>