<svg xmlns="http://www.w3.org/2000/svg" id="Layer_1" data-name="Layer 1" viewBox="0 0 1164.95 967.67"><defs><style>.cls-1{fill:#fefefe;}.cls-2{fill:#101010;}.cls-3{fill:#151515;}.cls-4{fill:#fdfdfd;}.cls-5{fill:#ededed;}.cls-6{fill:#111;}.cls-7{fill:#171717;}.cls-8{fill:#d8d8d8;}.cls-9{fill:#eee;}.cls-10{fill:#272727;}.cls-11{fill:#efefef;}.cls-12{fill:#c6c6c6;}.cls-13{fill:#d3d3d3;}.cls-14{fill:#e1e1e1;}.cls-15{fill:#bbb;}.cls-16{fill:#d1d1d1;}.cls-17{fill:#e5e5e5;}.cls-18{fill:#cfcfcf;}.cls-19{fill:#a7a7a7;}.cls-20{fill:#cdcdcd;}.cls-21{fill:#e4e4e4;}.cls-22{fill:#656565;}.cls-23{fill:#ddd;}.cls-24{fill:#292929;}.cls-25{fill:#4f4f4f;}.cls-26{fill:#727272;}.cls-27{fill:#414141;}.cls-28{fill:#9b9b9b;}.cls-29{fill:#afafaf;}.cls-30{fill:#444;}.cls-31{fill:#9d9d9d;}.cls-32{fill:#999;}.cls-33{fill:#b1b1b1;}.cls-34{fill:#222;}.cls-35{fill:#868686;}.cls-36{fill:#4c4c4c;}.cls-37{fill:#5a5a5a;}.cls-38{fill:#fafafa;}.cls-39{fill:#f5f5f5;}.cls-40{fill:#f7f7f7;}.cls-41{fill:#f3f3f3;}.cls-42{fill:#ebebeb;}.cls-43{fill:#eaeaea;}.cls-44{fill:silver;}.cls-45{fill:#fbfbfb;}.cls-46{fill:#fcfcfc;}.cls-47{fill:#f8f8f8;}.cls-48{fill:#e7e7e7;}.cls-49{fill:#f2f2f2;}.cls-50{fill:#d4d4d4;}.cls-51{fill:#f4f4f4;}.cls-52{fill:#f0f0f0;}.cls-53{fill:#b0b0b0;}.cls-54{fill:#f1f1f1;}.cls-55{fill:#f6f6f6;}.cls-56{fill:#d2d2d2;}.cls-57{fill:#e2e2e2;}.cls-58{fill:#adadad;}.cls-59{fill:#7d7d7d;}.cls-60{fill:#cecece;}.cls-61{fill:#a0a0a0;}.cls-62{fill:#909090;}.cls-63{fill:#7e7e7e;}.cls-64{fill:#e0e0e0;}.cls-65{fill:#c9c9c9;}.cls-66{fill:#707070;}.cls-67{fill:#535353;}.cls-68{fill:#989898;}.cls-69{fill:#616161;}.cls-70{fill:#dfdfdf;}.cls-71{fill:#4d4d4d;}.cls-72{fill:#a1a1a1;}.cls-73{fill:#bebebe;}.cls-74{fill:#303030;}.cls-75{fill:#818181;}.cls-76{fill:#070707;}.cls-77{fill:#0b0b0b;}.cls-78{fill:#141414;}.cls-79{fill:#2c2c2c;}.cls-80{fill:#7a7a7a;}.cls-81{fill:#343434;}.cls-82{fill:#797979;}.cls-83{fill:#313131;}.cls-84{fill:#b7b7b7;}.cls-85{fill:#757575;}.cls-86{fill:#252525;}.cls-87{fill:#919191;}.cls-88{fill:#585858;}.cls-89{fill:#3a3a3a;}.cls-90{fill:#4b4b4b;}.cls-91{fill:#e3e3e3;}</style></defs><path class="cls-1" d="M441.89,783.15c22.21-.44,44.47-.84,66.55,1.89,24.39,3,48.49,8.17,70.44,19.63,12.28,6.42,23.65,15.33,30.11,28,4.88,9.57,4.56,20.44,1,31-4.47,13.29-13.79,22.38-25.12,29.8a6.48,6.48,0,0,1-2.36.44c-1.3-2.45,1.1-3.48,2.06-4.88,7-10.31,11.81-21.38,12.25-34.05,0-.85-.33-1.62-.27-2.37,1.09,11.32-4.15,26.06-13.53,38.12-1.89,2.43-3.08,5.55-6.59,6.25-7.11,5.56-13.53,12.05-22,15.82-1.73.78-3.29,1.5-5.64.94,5.47-6.28,11.65-11.71,15.83-18.77,10.3-17.37,15.32-35.71,8.49-55.56-4-11.57-12.54-19.8-22.73-26.09a121.38,121.38,0,0,0-39.33-15.73c-4-.83-8.05-1.18-12.09-1.61-1.47-.16-3,.18-4.14-1.11-13.3-.25-26.57-1.83-38.1-.88,9-.21,19.85-.66,30.61,1a3.74,3.74,0,0,1,2.25.89c4.93,1.87,10.18,2.17,15.3,3.14,14.86,2.79,29.16,7.37,41.94,15.46,11.81,7.48,16.07,20,17.33,32.95,1.12,11.37-.22,23-5.61,33.63a95.62,95.62,0,0,1-8.86,14c-1.16.18-1.68-.26-1.42-1.46,2.79-7.4,6.52-14.45,6.28-22.79-.42-13.9-7.59-24-21-27.87-16.19-4.62-32.62-3.74-49-1.13-1.92,1.91-4.58,1.48-6.84,1.87a403.53,403.53,0,0,0-57.39,14.09c-8.12,1.78-16.09,4.28-22.23,4.81a159.81,159.81,0,0,0,24.23-5.6c22.24-6,44.17-13.5,67.56-13.93,10.59-.32,21.23-1.51,31.77.06,11.11,1.65,22.21,3.88,27.59,15.65,3.66,8,3,16.21.06,24.25-6.29,17.16-18.46,29.8-31.55,42-18.06,16.79-40,25.88-63,32.51-29.58,8.54-59.85,12.73-90.69,8.23s-56.84-18.19-78.71-40.07a135.62,135.62,0,0,1-30.46-45.25,142.29,142.29,0,0,1-10.41-54.61c.13-25.41,5-50.06,10.82-74.61.28-1.15,0-3,1.65-3.31s1.94,1.52,2.63,2.54c15.83,23.51,38.36,35.71,66,39.64a202.75,202.75,0,0,0,50.08.64c9.26-3.05,18.92-4.61,28.24-7.45a83.17,83.17,0,0,0,10.28-1.48c7.56,1.35,15.32-.18,22.88,1.61A8.85,8.85,0,0,0,441.89,783.15Z" transform="translate(-126.64 0.11)"></path><path class="cls-1" d="M413.51,783.91c-2.54,2.24-5.88,1.06-8.71,2-9,.77-17.79,4.08-27,3-18.39.85-36.78,1.22-54.94-2.35-28.47-5.58-51.13-19.64-65.06-45.95-8.38-15.82-10.83-32.88-10.5-50.53.65-35.14,12.83-66.15,33.7-94,15.79-21.06,34.78-38.29,59.29-48.67,15.62-6.61,32.11-8,48.88-7.63,3.17.08,3.36,2,3.8,4.15,2.62,3.25.38,5.91-1.05,8.67-2.26,3.75-5.57,6.62-8.68,9.57-5.64,5.35-10.27,11.09-11.36,19.14-.8,5.94-.8,6.48,3.26,11.77-6.15-5.33-3.35-15.57.66-22.29,3.39-5.67,8.86-9.29,12.93-14.27a26.5,26.5,0,0,0,2.78-3.17c.65-1.47,1.84-2.65,2.19-4.26.68-3.12,2.61-3.2,5-2.1l27,18.14c.28.18.58.33.85.52,7,5,7,6.53.22,11.39-1.21.87-2.59,1.5-3.52,3.39a6.82,6.82,0,0,1,4.23,3.65c2.15,4.27,4.68,8.35,6.82,12.63,3.09,6.16,1.9,12.29-4.22,15.26-13.93,6.78-28.48,11.49-44.37,8-1.33-1-2.91-.17-4.32-.62-.95-.3-1.72-1-2.64-1.31a5.06,5.06,0,0,1,.84.47,3,3,0,0,1,1.19,1.54,37.25,37.25,0,0,0-.6,13.31c0,6.47.18,12.92-.92,19.34a8.47,8.47,0,0,0,.38,5.38c1.25,12.08,6.14,22.72,13.59,32.07,19.41,24.34,46,29.86,75.31,28.7,20.69-.83,40.46-6.67,60.66-10.16,24.83-4.28,49.89-6.44,75-3.4a115.39,115.39,0,0,1,55.2,22.14c13,9.6,20.34,23,21.48,40.32-6.51-12.46-15-22.09-26.89-28.24A126.13,126.13,0,0,0,608.14,726c-32.82-3.27-65.55-.86-98.22,2.51-.15,0-.28.17-.42.26a6.55,6.55,0,0,1-4.12,2.54c-21.34,2.88-42.7,5.18-64.28,2.78-8.35-.92-15.7-4.58-23.16-8-2.11-1.22-4.36-2.2-6.39-3.57-3.84-2.21-7-5.35-10.7-7.75,3.53,2.38,6.64,5.34,10.33,7.51a85.19,85.19,0,0,0,7.59,4.22c18.27,10.21,38.05,9.14,57.89,7.87,10.26-.66,20.53-2.7,30.75-1.95,6.06.44,12.1,0,18.12.68,11.13.09,22.18-1.23,33.27-1.72,5.72-.26,11.47.71,17.22.79,16.08.21,31.57,4.23,47.05,7.81,7.75,1.79,15,5.67,22.47,8.82,8.68,3.69,16.25,8.77,21.32,16.58,11.09,17.1,11.7,35,2.27,53.08-3.41,6.57-7,13-12.85,18.79.82-9.29,1.05-17.74-.88-26.25-3.21-14.15-12.37-23.06-24.58-29.5-20.59-10.87-42.93-15.27-65.81-17.36-8-.73-16.07-2.08-24.19-1.35-22.1.24-44.19-.16-66.29,0-23.13.19-46.26,1.35-69.4.84-11.4-.25-22.81-.34-34.15-1.79-6.52-1.63-13.14-2.89-19.52-5.11a75.46,75.46,0,0,1-20.66-11.41c-13.56-10.91-20.43-25.62-24-42.23a80.57,80.57,0,0,1-1-15.27c0-4.8,0-9.6.15-14.38,1.48-5.6.37-11.62,2.62-16.48-.65,3.24-2.16,7-1.77,11-1.48,8.75-.9,17.58-1,26.38.35,3.41.65,6.83,1.27,10.21,2.89,12.61,7.91,24.17,16.48,34.07a61.79,61.79,0,0,0,7.7,6.87c11.2,9.4,24.69,13.26,38.65,16,16,2.43,32.08,2,48.16,2.17,18.4.24,36.77-.86,55.18-.88,16,0,32-.2,48,0,3.38,0,7.43-1.13,10.33,2.09,14.57,2.11,29.12,4.27,43.42,7.87,15.32,3.86,30.53,8.44,43.71,17.26,14.36,9.61,20.53,23.72,20,41.25-.37,12.47-3.8,23.37-11.59,33-.62.77-1.13,1.68-2.58,1.77,1.45-10.13,3-20.14,1.06-30.41-2.53-13.5-9.08-23.82-20.94-31.07a122.48,122.48,0,0,0-23.88-10.77c-3.95-1.71-8.45-1.67-12.25-3.83a154.21,154.21,0,0,0-36.43-9,376.28,376.28,0,0,0-96.36,1.09C428.36,783.15,421,784.54,413.51,783.91Z" transform="translate(-126.64 0.11)"></path><path class="cls-1" d="M455.7,660c12-3.93,23.26-9.67,34.62-15.08,38.28-18.23,75.23-38.83,109.9-63.32,17.08-12.07,33.77-24.69,48.84-39.32a81.19,81.19,0,0,1,12.1-9.46c-1.17,6.26-5,11-8.91,15.61s-8.53,8.68-11.19,14.42c16.91-11.08,28.76-27.45,42.61-42.5.61,4.63.61,4.63-8.3,17.62-.68,1.93-.68,1.93,1,2l7.18-8.92c1.66.11,1.41,1,.9,2.1l-3,5.45c4.57-1.83,6.33-5.87,9.94-7.81-.56,4-3.45,6.74-5.69,9.66-10.45,13.61-23.3,24.75-36.65,35.43-11.75,9.41-22.89,19.6-34.77,28.85-17.07,13.29-33.55,27.33-51.59,39.4-14.68,9.81-29.69,19-45,27.71-8.59,4.89-17.39,9.4-26.09,14.07-7.43,2.23-13.13-2.34-18.76-5.57a54.54,54.54,0,0,1-15.27-13.16C456,665.27,452.84,663.27,455.7,660Z" transform="translate(-126.64 0.11)"></path><path class="cls-1" d="M276.51,437.29c.5,7.93-1.47,15.52-2.07,23.2a381.19,381.19,0,0,0-.39,45.22,405.82,405.82,0,0,0,10.23,76.74c.63,2.68.05,4.45-1.74,6.67a193.6,193.6,0,0,0-27,44.68c-.39.89-.48,1.91-2.07,2.39-.9-8.58-1.9-17-2.62-25.41-2.61-30.31-4.16-60.67-2.63-91.08,1.75-34.59,5.62-68.9,15.3-102.33,2.06-7.13,4.87-13,8.15-16.67.28,13.9-7.26,25.6-9.28,39.66,3.92-3.56,5-7.6,6.35-11.24a125.74,125.74,0,0,0,6.2-22.56c1.6-9.25,6.24-17.16,11.56-25.72,1.65,4.53.06,7.78-.8,11-2.21,8.33-4.67,16.59-7,24.88a30.67,30.67,0,0,0-.76,3.91c-.16,1.15-.37,2.59,1.08,2.93,1.07.26,1.54-1,2.15-1.77,4.24-5.47,8-11.38,13.66-15.83-6.52,14.23-12.4,28.62-15.06,44.29-2.78-1.2-2.18-3.14-1.77-4.15,1-2.47.7-4.87.61-7.35-.07-2.15.43-5.09-1.76-5.74-2.56-.75-3.85,2.17-4.92,4.1a93.49,93.49,0,0,0-11.52,37.67c-.12,1.42-1.12,3.88,1.37,4,1.85.1,1.58-2.25,1.75-3.58A100.6,100.6,0,0,1,274,440.54C274.56,439.39,274.82,438,276.51,437.29Z" transform="translate(-126.64 0.11)"></path><path class="cls-1" d="M486.32,688.88c-7.62,3.11-15.22,6.28-22.86,9.33a262.07,262.07,0,0,1-31.59,10.1c-9.2,2.37-15.54-2.33-22-6.64A63.83,63.83,0,0,1,383.8,666a9.86,9.86,0,0,1,0-2.05c11,6.68,22.65,8.74,34.94,7.38,11.5-1.27,22.26-5.14,32.92-9.37,2.33-.7,3.12,1.31,4.1,2.56a66.78,66.78,0,0,0,15.84,14.86,80.5,80.5,0,0,0,11.29,5.86C484.37,685.88,487.09,685.89,486.32,688.88Z" transform="translate(-126.64 0.11)"></path><path class="cls-2" d="M417.69,725c20.53,9.22,42.09,8.53,63.76,6.58,9.36-.85,18.7-1.87,28.05-2.81,2.05,3,4.56,4.33,8.4,3.41,2.46-.59,5.26-.74,7.63,1-6.17,2.19-12.68,1.13-19,1.51-13.92.83-27.77,2.82-41.71,3-13.63.16-27.39.45-40-6.25a31,31,0,0,1-7.07-4.55A1.17,1.17,0,0,1,417.69,725Z" transform="translate(-126.64 0.11)"></path><path class="cls-3" d="M531.56,764.92c-25.8-1.79-51.64-.92-77.47-.74-15,.11-30.08.74-45.11.67-13.48-.06-27,.47-40.31-2.76-.05-2,1.18-1.65,2.4-1.28,31.66,2.83,63.35,1,95,.77,17.28-.14,34.56-.48,51.85-.05,6.72.16,13.45-.21,20.17.35a3.68,3.68,0,0,1,2.69.93C537.94,764.44,534.21,762.3,531.56,764.92Z" transform="translate(-126.64 0.11)"></path><path class="cls-1" d="M378.77,632.07c-1.62-4.15-2.09-8.2,1-12,1.39-.94,2.18,0,2.95.95a75.74,75.74,0,0,0,7.37,2.58c6.11,1.48,6.31,1.77,3.34,7.06-.48.86-1,1.67-1.54,2.5a3.27,3.27,0,0,1-3.29-1c.57,1.29,2.18,1.46,2.36,2.83-1.15,8-3,16-.38,24,.66,2,1.52,4,2.29,6-8.08-.6-10.81-3.26-11.5-11.14-.15-1.63-.33-3.26-.5-4.9-2-2.42-.72-5.31-1.1-8C379.3,638.05,380.72,634.88,378.77,632.07Z" transform="translate(-126.64 0.11)"></path><path class="cls-4" d="M406.79,247.81c6.37-9.35,16-12.92,26.47-15.2,13-2.86,26.08-1.82,39.12-.15,4.92.63,9.92.85,14.69,2.41,1.88.62,3.52-.2,5.28-.79,12.14-4,24.34-7.9,37.41-6.78,1.54.13,3.78-.44,4.32,1.6s-1.74,2.61-2.94,3.56c-4.3,3.38-8.7,6.65-13.12,9.89-2.49,1.82-3.21,3.65-.67,6,8.59,8,14.69,18,21.07,27.6,4.87,7.36,10.1,14.83,11.68,24,.33,1.88.86,3.62-.86,5-2,1.66-4,.13-5.5-.76a94,94,0,0,1-9.7-6.81,245,245,0,0,0-42.36-25.95c-3.7-1.8-6.78-2.75-10.42.29s-8.62,3.32-12.89,5.14c-5.45,2.33-9.19,5.89-10.28,11.82-.66,3.62-2,2.1-3.39.57-3.6-4.06-3.47-9.1-3.47-14.06,0-6.79,3.34-12.28,7.85-17.84l-20.26-6.63c-.81-1.79.08-3.3,1.58-3.52,4-.58,7.8-2.58,12-.15,2.23,1.28,5.21,1.44,7.28,1.69-2.53-.91-6-.5-8.94-2.62-1.1-.8-2.91-.54-4.13-.18-4.29,1.24-8.18.06-12-1.53a7.8,7.8,0,0,0-7.18.34,21.67,21.67,0,0,1-10.94,2.54c-2.59,0-5.32,0-7.68,1.72C408,249.62,406.55,249.8,406.79,247.81Z" transform="translate(-126.64 0.11)"></path><path class="cls-5" d="M406.79,247.81c5.28-2.17,11.25-1.62,16.42-4.28,4.86-2.49,9.85-4.64,15.08-1,2.13,1.48,4.23,1,6.58,1,3.37-.09,6.94-1.39,10,2.38,1.74,2.15,5.68.69,8.58.44,1.15-.1,2.1-.83,3,.41s-.1,1.71-.93,2.32c-1.59,1.19,1,2.33.1,3.55-7.28-2.19-14.43-5-22.3-3.76-1.68.26-3.29.43-4.45,1.85-10-1.36-20-2.52-30.06-1.07C407.1,249.87,407.08,249.71,406.79,247.81Z" transform="translate(-126.64 0.11)"></path><path class="cls-6" d="M489.88,843.05c-10.44,1.56-20.88,3.13-31.13,5.63-12.37,3-24.7,6.18-37,9.27-1.11.63-2,.88-2-1,13.11-5.09,26.84-8,40.49-11.12,8-1.82,16-4.13,24.35-4.07C486.15,843,488.06,842.82,489.88,843.05Z" transform="translate(-126.64 0.11)"></path><path class="cls-2" d="M576.46,896.91c5.38-6.49,10.43-13.19,14-20.93,4.6-10,5.75-20.54,5.22-31.64,5.73,8.36.67,33.63-13.13,49.5C580.56,895,580.48,899.85,576.46,896.91Z" transform="translate(-126.64 0.11)"></path><path class="cls-7" d="M486.32,688.88c-1.91-2.31-4.86-2.8-7.35-3.87-9.86-4.25-17.49-11.08-24-19.4-1-1.3-2.21-2.46-3.32-3.68A7.16,7.16,0,0,1,455.7,660c-.57,4.59,3.34,6.72,5.76,9.21a63,63,0,0,0,27.19,16.59,11.46,11.46,0,0,0,2.94.13Z" transform="translate(-126.64 0.11)"></path><path class="cls-8" d="M201,905.17a5.64,5.64,0,0,1,5.66,4c.71,2.19,1.57,4.56-.81,6.71-1.82,1.65-3.11,4-5.57,4.8-1.39.44-3.24,1.78-4.4-.36a3.19,3.19,0,0,1,1.17-4.39c3.2-1.9,3.51-3.69,1.29-6.81C196.85,907,197.61,904.86,201,905.17Z" transform="translate(-126.64 0.11)"></path><path class="cls-9" d="M643.49,903.43c4.69-4.94,10-8.6,17.19-8.54a4.46,4.46,0,0,1,4.34,2.77,3.77,3.77,0,0,1-1.16,4.49,26.14,26.14,0,0,1-15.15,7.14c2.72-3.36,6.08-4.08,8.56-6,1.58-1.24,4.9-1.77,3.79-4.26-1-2.27-3.83-.58-5.85-.26C651,899.41,647.58,902.25,643.49,903.43Z" transform="translate(-126.64 0.11)"></path><path class="cls-10" d="M489.65,795.85c-8.07-.39-16.13-.8-24.2-1.14-5.88-.25-11.83.33-17.6-1.48,15.72-.47,31.45-1.9,47,1.57Z" transform="translate(-126.64 0.11)"></path><path class="cls-11" d="M184.13,784c-1,1.45-1.52,3.87-3.74,3.21s-.78-2.75-.63-4.26c.32-3.32-1.84-2.48-3.49-1.91-2.34.79-5.56,3.56-6.75.59-.88-2.18,3.11-3.36,5.73-3.76,1.42-.22,1.53-1,.73-2-.82.11-1.64.2-2.45.33-3.46.55-7.41,1.41-7.08,5.64s4.07,3.87,7.35,3.23c1.25-.24,2.86-.61,3,1.38.22,2.57,1.66,4.16,4,4.1s3.55-2.07,4.28-4.2C184.79,785.52,184.46,784.75,184.13,784Z" transform="translate(-126.64 0.11)"></path><path class="cls-12" d="M616.75,919.51c-13.66,3.69-23.49,13.19-34.42,23.17C586.85,932.09,607.36,918.59,616.75,919.51Z" transform="translate(-126.64 0.11)"></path><path class="cls-13" d="M211.6,914.34c9.82-1.83,29.12,11.5,29.91,20.81C233.41,924.93,224.26,917.07,211.6,914.34Z" transform="translate(-126.64 0.11)"></path><path class="cls-14" d="M656.13,888.51a54.59,54.59,0,0,0-11.4,10.29c-1.4,1.76-2.81,1.09-3.11-.85-.84-5.3-4.78-8.57-8.28-13.18,6.86,1.08,8.13,6.49,10.57,11.12C647.69,892.77,650.68,888.54,656.13,888.51Z" transform="translate(-126.64 0.11)"></path><path class="cls-5" d="M634.23,907.55c-3.51-2.06-7.06-3.89-9-7.68-1.11-2.21-1.77-4.55.24-6.42,1.74-1.62,4.07-1.39,6-.18s4.71,1.77,5.18,5.84A17.44,17.44,0,0,0,631,895.7c-1.09-.31-2.25-1.19-3.19,0s-.3,2.63.6,3.58c1.69,1.8,3.58,3.4,5.38,5.09C634.54,905.09,634.68,906,634.23,907.55Z" transform="translate(-126.64 0.11)"></path><path class="cls-15" d="M179.84,773.86l-2.77,1.06c-1-2.14-3.22-2-5-2.68s-3.93,0-6-1.55c3.9-2.06,7.28-1.61,10.92,1,.74-5.51-1.4-10.79,1.15-16.17,1.59,2.63.29,5.16.94,7.41C180,766.53,180.63,770.14,179.84,773.86Z" transform="translate(-126.64 0.11)"></path><path class="cls-16" d="M137.91,889.32c7.55-.48,20.06,9.52,20.19,16.16a1.27,1.27,0,0,1-.43.83c-.12.1-.48-.11-.74-.17a7.45,7.45,0,0,1-3-5.19,33.82,33.82,0,0,0-17.93-11C136.07,888.5,136.22,888.45,137.91,889.32Z" transform="translate(-126.64 0.11)"></path><path class="cls-17" d="M684.46,533.17l-.9-2.1c3.19-6.91,8.31-12.21,14.15-16.93C694.44,521.31,688.89,526.84,684.46,533.17Z" transform="translate(-126.64 0.11)"></path><path class="cls-18" d="M578.07,929.33c-2.47,7.68-8.23,13.9-9.28,23.25C566.23,947,570.05,937.93,578.07,929.33Z" transform="translate(-126.64 0.11)"></path><path class="cls-19" d="M242.07,910.51c7.58,2.16,15.41,14.37,14.46,23.29A43.64,43.64,0,0,0,242.07,910.51Z" transform="translate(-126.64 0.11)"></path><path class="cls-20" d="M153.94,901a14.5,14.5,0,0,1,3,5.19c-6.22-2.8-12.38-5.83-20.29-5.65,3.77-2.45,7.37-2.25,12.25-.54C150.44,900.5,151.84,902.91,153.94,901Z" transform="translate(-126.64 0.11)"></path><path class="cls-21" d="M632.54,909c-.37,2.89-3.15,4.23-3.69,7.05,2.08,1.26,3-.63,4.26-1.45s1.93-2.78,4.49-2.54c-1.52,4.21-4.72,6.17-8.52,7.18-2.05.54-3.34-.93-2.82-2.92A10.86,10.86,0,0,1,632.54,909Z" transform="translate(-126.64 0.11)"></path><path class="cls-22" d="M377.78,788.9c9-.88,17.9-3,27-3-9.6,2.35-19.19,4.74-29.16,4.76Z" transform="translate(-126.64 0.11)"></path><path class="cls-23" d="M646,913.77c1.74.25,1.48,1.62,2.14,2.28,1.31,1.3,2.23,4.23,4.39,2.86,1.82-1.15.34-3.61-.33-5.42-.39-1-1.75-1.56-1.65-3.72,3.66,2.11,5.34,4.74,4.87,8.62-.23,1.86-.85,3.69-3.2,3.69C649.44,922.09,646.21,917.74,646,913.77Z" transform="translate(-126.64 0.11)"></path><path class="cls-24" d="M378.77,632.07l1.17-3.44.89.09V649c-1.83,2.85-.58,6.08-1.14,9.09-1.92-7-.88-14-1-21.07C378.71,635.36,378.75,633.71,378.77,632.07Z" transform="translate(-126.64 0.11)"></path><path class="cls-25" d="M413.51,783.91c7.39-.78,14.7-2.62,22.22-1.86,1.91,1.16,4.14.55,6.16,1.1C433,784.57,423.94,784.46,415,785,414.5,785,414,784.3,413.51,783.91Z" transform="translate(-126.64 0.11)"></path><path class="cls-26" d="M595.61,948.09c5.89-4.7,11.51-10.05,20-8.66C608.42,941.21,602.09,944.86,595.61,948.09Z" transform="translate(-126.64 0.11)"></path><path class="cls-1" d="M390.92,635.05c-1.7-.18-3.3-.63-4-2.41-.81-2.11-2.25-5,.37-6.08,2.26-.93,1.93,2.31,2.7,3.75.54,1,1.23,1.93,1.85,2.89A1.45,1.45,0,0,1,390.92,635.05Z" transform="translate(-126.64 0.11)"></path><path class="cls-23" d="M548.33,893.6l1.42,1.46c-2,4.84-5.46,8.43-9,12l-1-.77Z" transform="translate(-126.64 0.11)"></path><path class="cls-27" d="M390.7,553c.91-3,2.92-5.7,2.25-9.07a8.64,8.64,0,0,1,5.76,3.06c-1.81-.23-3.21.07-3.81,2.18a9.13,9.13,0,0,1-3,5C391.17,554.12,391,553.47,390.7,553Z" transform="translate(-126.64 0.11)"></path><path class="cls-28" d="M683.85,911.57c-5,1.74-9.54,4.37-14.36,6.23C673.47,913.75,678.06,911.1,683.85,911.57Z" transform="translate(-126.64 0.11)"></path><path class="cls-29" d="M221.3,868.33c-2.1-3.7-4.17-7.37-8.93-8.79C217.64,858,221.21,861.49,221.3,868.33Z" transform="translate(-126.64 0.11)"></path><path class="cls-30" d="M382.68,621.06l-2.95-.95c-1.62-1.51-3.9-2.26-5.21-4.65,4.35.52,7.56,3.13,11.24,4.5Z" transform="translate(-126.64 0.11)"></path><path class="cls-31" d="M137.91,889.32l-1.9.62h-9.37C130.35,887.86,134.07,886.61,137.91,889.32Z" transform="translate(-126.64 0.11)"></path><path class="cls-32" d="M543.72,941.34c4,2,3.86,5.69,3.54,9.41C545.23,948,545.51,944.3,543.72,941.34Z" transform="translate(-126.64 0.11)"></path><path class="cls-33" d="M199.84,955.21c-2.53-3-5.73-5.26-8.46-8A10.65,10.65,0,0,1,199.84,955.21Z" transform="translate(-126.64 0.11)"></path><path class="cls-18" d="M271.48,948.61c-1.21-3.4-.9-6.86-.74-11.49C273.68,941.61,272,945.13,271.48,948.61Z" transform="translate(-126.64 0.11)"></path><path class="cls-34" d="M568.52,790c4.29.61,8.57,1.25,12.25,3.83C576.5,793.13,572,793.13,568.52,790Z" transform="translate(-126.64 0.11)"></path><path class="cls-23" d="M926.7,533.22c.21,2,0,4.17,1.14,6,.36,7.5-2,14.58-3.37,21.81-3.41-.84-1.65-3.22-1.53-5.12C923.78,548.3,924.42,540.63,926.7,533.22Z" transform="translate(-126.64 0.11)"></path><path class="cls-35" d="M922.94,556c.42,1.73.06,3.7,1.53,5.12q-.72,5.88-1.42,11.75c-1.1.36-1.62.11-1.2-1.13C920.57,566.33,921.57,561.13,922.94,556Z" transform="translate(-126.64 0.11)"></path><path class="cls-36" d="M921.85,571.69l1.2,1.13c-.69,2.84-1.39,5.69-2.47,10.12C919,577.8,919.52,574.62,921.85,571.69Z" transform="translate(-126.64 0.11)"></path><path class="cls-37" d="M611.07,648.61c-1.63,2.14-3.09,4.49-7.39,5.25,2.49-3.1,4.33-5.39,6.18-7.67Z" transform="translate(-126.64 0.11)"></path><path class="cls-38" d="M1223.18-.11c2,22.37,3.69,44.76,3.7,67.25-.56,2-1.37,4.06.08,6.07,1.37,34.35,2,68.7-1.28,103-2.18,22.74-5.12,45.35-9,67.92-3.31,19.24-7.44,38.26-11.54,57.31-3.23-1.48-1.5-4-1.28-6.21,5-28.07,10.32-56.08,14-84.38,3.34-26.08,5.14-52.27,6.34-78.51-.09-3.77-2.36-7.55,0-11.3-.33-12.32-.85-24.64-1-37q-.36-42.15-3.67-84.16Z" transform="translate(-126.64 0.11)"></path><path class="cls-39" d="M695.14,175.29c-.09-16.33-.11-32.66-.31-49-.35-28.4-.5-56.8-1.35-85.19-.42-13.74-.91-27.47-.78-41.22h2.4c1.7,37.45,2.5,74.92,2.66,112.41,0,2.5,1.53,5-.17,7.52,1.06,3.44.55,6.9.12,10.37,1.32,13.21.79,26.48,1.08,39.72.19,8.55.6,17.13.21,25.66-.68,14.87-1.9,29.71-1.45,44.62-3.08-.38-1.53-2.45-1.45-4-2-14.39.35-28.81-.3-43.21C695.54,187.1,695.36,181.19,695.14,175.29Z" transform="translate(-126.64 0.11)"></path><path class="cls-40" d="M969.76,146.15c39.58-41.08,56.55-93.34,72.19-146.26h4.8c-8.07,28.37-17.34,56.27-30,83-10.14,21.51-20.89,42.52-38,59.55-2,1.95-3.7,4.13-6.32,5.27C970.85,148.5,969.67,148.42,969.76,146.15Z" transform="translate(-126.64 0.11)"></path><path class="cls-41" d="M1227,73.21a4.67,4.67,0,0,1-.08-6.07c5.16.83,8.63-2.89,12-5.41,18.94-14.14,32.43-32.95,43.8-53.37,1.5-2.7,3.92-5.09,4.1-8.47h4.8c-11.65,22.3-24.82,43.54-44.29,60-5.19,4.38-10.35,9.53-17.91,10C1227.21,69.93,1227,71.54,1227,73.21Z" transform="translate(-126.64 0.11)"></path><path class="cls-42" d="M613.49-.11c.16,6.15,5,9.8,8.27,13.92,15.94,20.29,34.36,37.92,57.3,50.34,3.7,2,7.82,2.69,12.23,4.51-2.94,1.51-5.18.78-7.6,0-14.55-4.85-26.23-14.33-37.42-24.16-14.7-12.91-28.09-27.17-37.59-44.59Z" transform="translate(-126.64 0.11)"></path><path class="cls-43" d="M925.53-.11a27.9,27.9,0,0,1,2,4.88c.48,2.32.57,5.25-2.09,6s-4.24-1.85-5-4.06-.65-4.55-.93-6.83Z" transform="translate(-126.64 0.11)"></path><path class="cls-11" d="M1214.78-.11c.82,1.11,1.66,2.22,2.46,3.35,1.06,1.47,1.27,3-.24,4.26s-3.11.72-4.29-.5c-2.2-2.29-4.23-4.73-6.34-7.11Z" transform="translate(-126.64 0.11)"></path><path class="cls-44" d="M828.32-.11q.55,10.22,1.12,20.43c-3.08.57-.64-3-2.52-3.34-1.64-5.72-.84-11.41.2-17.09Z" transform="translate(-126.64 0.11)"></path><path class="cls-45" d="M950.72,123.63a210.17,210.17,0,0,1,2.58,29.74c1.51,3.58-.68,7.54,1.1,11.1,2.13,41.4,3.42,82.85,2.5,124.28-.54,23.79-2.11,47.58-4.19,71.36-2.94,33.42-7.07,66.65-11.55,99.86-2.5,18.52-5.4,37-8.84,55.35-1.5,8-2.93,16-4.48,23.94-3.06-1.51-1.57-3.87-1.14-6-1.37-5.73.54-11.29,1.39-16.77,4-25.77,7.51-51.6,10.75-77.47,2.32-18.44,4.81-36.87,6.88-55.34,1.53-13.62,2.88-27.29,3.63-41,1.25-22.65,1.94-45.33,2.88-68,.23-5.4.22-10.65-6.1-12.93.78-1.12-2.51-3.8,1.42-3.73,3.38,2.09,4.56.81,4.49-2.81-.37-17.91-.85-35.83-1-53.75-.16-24.58-1.86-49.08-3.6-73.58A11.15,11.15,0,0,1,948,125C948.53,123.72,949.31,123,950.72,123.63Z" transform="translate(-126.64 0.11)"></path><path class="cls-46" d="M947.55,258c-.75,1.14.8,3.16-1.42,3.73-17.71-16.59-32.16-36-46.67-55.25a499.21,499.21,0,0,1-42-67c-6.94-13.15-12.21-27.17-18.24-40.8l.12.13c-4.79-17.64-10.21-35.18-11.53-53.53-.68-9.4-3.2-18.79-.93-28.3,2.64-.25.89,2.82,2.52,3.34-.25,13.9,3.21,27.3,5.81,40.78a272.55,272.55,0,0,0,16.49,53A341.81,341.81,0,0,0,871,152.48a581.34,581.34,0,0,0,75.63,103.38A7.43,7.43,0,0,1,947.55,258Z" transform="translate(-126.64 0.11)"></path><path class="cls-47" d="M1091,161l1.41,21.49c2.1,3.9-.58,8.2,1,12.14.66,22,1.4,44.09,1.94,66.13.73,29.57-1.65,58.95-5.79,88.2-1.84,13-3.76,26-5.64,39-3.4-1.49-1.34-4.16-1.37-6.38,2.06-19.57,4-39.16,6.22-58.71,3.31-29.15,2.83-58.39,2.41-87.63-.29-19.5-.91-39-1.38-58.5-1-4.61-.24-9.28-.4-13.91C1089.36,161.72,1089.66,160.85,1091,161Z" transform="translate(-126.64 0.11)"></path><path class="cls-39" d="M770,38.15C786.7,60.25,804.6,81,830.46,93.05c3.17,1.47,5.95,3.81,8.92,5.75,0,0-.13-.15-.13-.13-1.28,2.58-3.42,1.76-5.13,1-28.58-13.49-51.33-33.46-67.19-61C767.48,36.71,767.48,36.71,770,38.15Z" transform="translate(-126.64 0.11)"></path><path class="cls-42" d="M1081.52,343.87c-21.22,7.1-68.47-12.49-81.93-36.45,11.11,10.69,23.14,20,37.15,26.53C1050.91,340.56,1066,343.07,1081.52,343.87Z" transform="translate(-126.64 0.11)"></path><path class="cls-21" d="M1048.22,144c3,31.41,16.87,56.86,41,76.7C1073.13,221.39,1048.31,176.31,1048.22,144Z" transform="translate(-126.64 0.11)"></path><path class="cls-11" d="M632.79,132.92c-13.39-5.35-27.08-10.09-39-18.56-1.12-.8-2.14-1.72-3.22-2.59-.21-1.3.24-1.92,1.63-1.56,13.73,8.09,27.84,15.31,43.37,19.42a149.67,149.67,0,0,0,17.38,4c2.67.38,5.5.57,8.2,3.62-9.49.58-17.7-2.22-26.07-3.75Z" transform="translate(-126.64 0.11)"></path><path class="cls-48" d="M1219.64,124.78c-16.33-19.36-28.14-40.88-31.38-66.43a7.22,7.22,0,0,1,.7-3.69c5.44,25.08,16.57,47.4,31.83,67.75C1221.57,123.76,1221.62,124.76,1219.64,124.78Z" transform="translate(-126.64 0.11)"></path><path class="cls-49" d="M1133.1,41c3.54-.61,4.57,1.65,5.92,3.2C1152,59,1167.42,70.2,1186,77c.91.33,2.35.3,2.17,1.48a2.29,2.29,0,0,1-2.65,1.87,14.91,14.91,0,0,1-3.37-1C1162.41,71.14,1145.3,59.65,1133.1,41Z" transform="translate(-126.64 0.11)"></path><path class="cls-50" d="M1135.66,234.29c-6.58,27.19-28.46,65-39.73,71.19,6-8.66,11.77-16.51,17-24.73,9.67-15.18,15.56-32.09,21.56-48.92C1136.72,231.77,1136.2,233,1135.66,234.29Z" transform="translate(-126.64 0.11)"></path><path class="cls-23" d="M697.71,130.19l-.12-10.37c2.09,2.18,4,.55,5.92-.3,24-10.54,36-26.89,45.89-52.27-.15,2,.17,4.18-.51,6-7.56,19.71-18.8,36.38-38.6,45.77a11.45,11.45,0,0,1-2.73,1.18C701.84,121.15,696.9,122.81,697.71,130.19Z" transform="translate(-126.64 0.11)"></path><path class="cls-41" d="M1126.05,121.89c-5.15-2.64-7.72-6.87-10.11-11.17-1-1.75-1.4-4,.33-5.51,2.15-1.83,4.35-.19,5.76,1.27C1126,110.6,1126.88,115.73,1126.05,121.89Z" transform="translate(-126.64 0.11)"></path><path class="cls-51" d="M1052.78,142.91c-.17-5.43,3-8.82,7.14-11.52,3.11-2,3.88.53,4.19,2.65.42,2.9-5.55,10.66-8.54,11.55C1053.11,146.32,1052.22,145.35,1052.78,142.91Z" transform="translate(-126.64 0.11)"></path><path class="cls-52" d="M827,103.08c-2.1,2.83-3.61,6.52-8,6.83-2.37.17-4.36-.57-4.68-3.42-.38-3.34,3.83-7.91,7.44-8.06C824.7,98.3,825.68,100.54,827,103.08Z" transform="translate(-126.64 0.11)"></path><path class="cls-39" d="M1140.55,247.49c-1.52-.3-3.26.67-3.8-1.31-.38-1.44,1-1.9,1.74-2.8a31.92,31.92,0,0,1,7.76-7.36c1.18-.77,2.45-1.64,3.79-.48s1,2.38.53,3.84C1149,244.53,1146,247.61,1140.55,247.49Z" transform="translate(-126.64 0.11)"></path><path class="cls-49" d="M1280.7,34.91c-1.87,0-3.5-.2-3.42-2.84.14-4.11,4.07-7.32,9-7.48,2.31-.08,4,.31,4.11,2.91S1284.29,34.91,1280.7,34.91Z" transform="translate(-126.64 0.11)"></path><path class="cls-52" d="M748.12,102.45c-2.9-1.2-7.9,1.06-8.3-4.39-.3-4.14,3.76-3.81,6.18-3.81,3.43,0,8.12.21,8.63,4.44C755,102,751,102.1,748.12,102.45Z" transform="translate(-126.64 0.11)"></path><path class="cls-53" d="M1128.28,145.29c-4.4,13.68-11.35,25.69-22.77,34.77-1.41,1-2.28.83-2.3-1.1,11.59-8.52,17.91-20.63,22.94-33.62A1.27,1.27,0,0,1,1128.28,145.29Z" transform="translate(-126.64 0.11)"></path><path class="cls-52" d="M1049.21,110.26c0,1.16.09,3.37-2.88,3.21s-6.53-6.39-6.53-11.08c0-1.9.8-3.13,2.67-3.15C1045.39,99.2,1049.25,105.15,1049.21,110.26Z" transform="translate(-126.64 0.11)"></path><path class="cls-49" d="M1033.31,147.41c3.07.19,10.5,6.64,10.7,9.52.18,2.53-1.85,3.9-3.65,3-4.36-2.1-7.88-5.4-9.25-10.29C1030.75,148.37,1031,146.67,1033.31,147.41Z" transform="translate(-126.64 0.11)"></path><path class="cls-11" d="M1125.24,163.49c.77,0-.46.27-.58-1.12a3.8,3.8,0,0,1,.7-2.73,31.17,31.17,0,0,1,9.91-6.49,2.12,2.12,0,0,1,3,1,3.25,3.25,0,0,1-.33,3.9C1135,161.35,1131.31,163,1125.24,163.49Z" transform="translate(-126.64 0.11)"></path><path class="cls-54" d="M785.3,33.05a14.46,14.46,0,0,1-.19,2.86c-.77,2.69-.14,6.54-3.93,7.11-2.61.39-2.89-2.58-2.87-4.32,0-3.77-.94-8.69,3.78-10.15C786.5,27.18,784.82,31.44,785.3,33.05Z" transform="translate(-126.64 0.11)"></path><path class="cls-52" d="M598.86,96.77c-1.49,2.73-1,6.23-3.54,8.57-2,1.87-3.72,1.78-4.27-.94a11.7,11.7,0,0,1,2.59-10.5c3.6-3.88,4.22,0,5.24,2.45Z" transform="translate(-126.64 0.11)"></path><path class="cls-54" d="M1118.14,245.43c.53-1.67-.61-4.47,2-5s3,2.26,3.63,4c1.15,3.39,1.88,6.95-.12,10.35a1.25,1.25,0,0,1-2,.45C1118.78,252.63,1118.47,249.07,1118.14,245.43Z" transform="translate(-126.64 0.11)"></path><path class="cls-11" d="M750.19,25.86c3.64.49,6.78,2.18,7.87,6,.64,2.2-2,2.41-3.26,2.43-4,.09-7.74-1.82-9.15-5.28C744.42,26,748,26.29,750.19,25.86Z" transform="translate(-126.64 0.11)"></path><path class="cls-55" d="M1237.85,181.26c-1.13,3.13-2.77,6-6.88,6-1.74,0-3.46-.56-2.91-2.71.91-3.54,2.22-7.07,6.75-7.09C1236.89,177.4,1237.91,178.89,1237.85,181.26Z" transform="translate(-126.64 0.11)"></path><path class="cls-56" d="M954.4,164.47c-2.2-3.52-1.28-7.35-1.1-11.1,1.65,2.23,3.24,1.29,5.05.08,3.74-2.52,7.6-4.88,11.41-7.3l2.75,1.59a33.29,33.29,0,0,1-15.72,8.87C952.09,157.86,955.34,161.88,954.4,164.47Z" transform="translate(-126.64 0.11)"></path><path class="cls-49" d="M1203.82,78.08c-1.29-.11-2.47-1.06-2-2.25,1.43-3.92,3.39-7.61,6.92-10.1,1-.69,2-.12,2.38,1,1,2.53.06,4.76-1.5,6.69S1207.16,78.21,1203.82,78.08Z" transform="translate(-126.64 0.11)"></path><path class="cls-39" d="M1120.44,14.16c3.26,0,8.22,8,6.87,10.64-.33.64-1,1.45-1.64,1.52-3.27.39-4.16-2.36-5.56-4.45-1.52-2.25-2.33-4.6-.91-7.17C1119.41,14.32,1120.2,14.25,1120.44,14.16Z" transform="translate(-126.64 0.11)"></path><path class="cls-43" d="M1022,310.43c3.23,0,7.8,7.55,6.4,10.23a2.26,2.26,0,0,1-2.43,1.2c-3.3-.2-7.34-7.56-5.65-10.32C1020.77,310.84,1021.24,310.23,1022,310.43Z" transform="translate(-126.64 0.11)"></path><path class="cls-43" d="M974.48,191.63c-.78,4.25-4,6.21-7.66,7.22a2.55,2.55,0,0,1-3.31-3c1.23-3.82,4.53-5.78,8.38-6.52C973.33,189,974.66,189.63,974.48,191.63Z" transform="translate(-126.64 0.11)"></path><path class="cls-11" d="M990.41,317.73c-2.59-1.68-6.86-.48-7.17-3.67s3.46-3.38,5.94-3.24c2.82.17,7.22-.27,7.54,3.05C997.07,317.46,992.29,315.79,990.41,317.73Z" transform="translate(-126.64 0.11)"></path><path class="cls-18" d="M1203.86,295.2c.42,2.08-.11,4.34,1.28,6.21-1,8.44-3.6,16.48-6.43,24.49C1199.39,315.49,1201.59,305.34,1203.86,295.2Z" transform="translate(-126.64 0.11)"></path><path class="cls-51" d="M1148.68,40.06c0,1.39,0,2.77,0,4.16a2.5,2.5,0,0,1-2.59,2.65c-1.94.2-2.3-1.07-2.36-2.6-.1-2.16-.32-4.32-.25-6.48s.67-4.24,3.19-4.21c2.72,0,1.76,2.56,2.11,4.11a11,11,0,0,1,0,2.37Z" transform="translate(-126.64 0.11)"></path><path class="cls-57" d="M1187.57,37c.74-2.1-1.3-6,2.68-5.95,3.43,0,2.89,3.53,3,6s.48,5.9-3,6C1186,43,1188.47,39,1187.57,37Z" transform="translate(-126.64 0.11)"></path><path class="cls-49" d="M739.63,74.49c-.08,3.1.12,5.93-2.92,5.8-4.12-.18-3.3-3.83-3.35-6.44,0-2-.64-5.35,2.43-5S739.48,72.5,739.63,74.49Z" transform="translate(-126.64 0.11)"></path><path class="cls-58" d="M1091,161c-2,5.12-.48,10.5-1.2,15.71-2-10.11-.9-20.3-.94-30.49C1090.7,151,1091.94,155.84,1091,161Z" transform="translate(-126.64 0.11)"></path><path class="cls-59" d="M1103.21,179l2.3,1.1c-1.86,1.46-3.52,3.58-5.63,4.26-5.3,1.68-6.84,5.26-6.47,10.28-1.62-3.94-.57-8.1-1-12.14,1.19,2.13,2.56,2.56,4.61.85S1101.14,180.4,1103.21,179Z" transform="translate(-126.64 0.11)"></path><path class="cls-60" d="M1082.55,381.52c.43,2.13.12,4.43,1.37,6.38-.47,3.52-.87,7.06-1.44,10.56a20.29,20.29,0,0,1-1.62,5.08C1081.05,396.17,1080.76,388.77,1082.55,381.52Z" transform="translate(-126.64 0.11)"></path><path class="cls-61" d="M1135.66,234.29l-1.17-2.46q1.76-7.22,3.52-14.45c1.17-.32,1.69.06,1.39,1.3C1138.53,224,1138,229.35,1135.66,234.29Z" transform="translate(-126.64 0.11)"></path><path class="cls-62" d="M762.22,31.24c-2.74-2.65-2.82-6.65-4.93-9.61.71-3.22,1.73-.92,2.66-.15,1.85,2.66,4.09,5.11,4.59,8.5A3.08,3.08,0,0,1,762.22,31.24Z" transform="translate(-126.64 0.11)"></path><path class="cls-63" d="M1128.28,145.29l-2.13.05,3-13.13C1131.05,136.79,1129.69,141,1128.28,145.29Z" transform="translate(-126.64 0.11)"></path><path class="cls-64" d="M762.22,31.24c.26-1.36,1-1.84,2.32-1.26L770,38.15l-3.05.47A24.18,24.18,0,0,1,762.22,31.24Z" transform="translate(-126.64 0.11)"></path><path class="cls-65" d="M696.1,236.21c.48,1.32,1,2.65,1.45,4,1.35,3.62-2.62,7.1-.3,10.75-.4,1-.85,1.9-2.18,1.23C695.1,246.83,694.14,241.43,696.1,236.21Z" transform="translate(-126.64 0.11)"></path><path class="cls-66" d="M696.2,261.72c-.3,3.62-.12,7.33-2.12,11.75V259.38C696.25,258.84,695.29,261.12,696.2,261.72Z" transform="translate(-126.64 0.11)"></path><path class="cls-33" d="M1219.64,124.78l1.15-2.37c1.48.38,2.38-.68,3.41-1.4l0,11.3C1224,129,1221.67,127,1219.64,124.78Z" transform="translate(-126.64 0.11)"></path><path class="cls-67" d="M760,21.48c-.91-.41-1.83-.87-2.66.15a16,16,0,0,1-2.11-10.33Z" transform="translate(-126.64 0.11)"></path><path class="cls-68" d="M696.2,261.72l-2.12-2.34c.42-2.39-.68-5,1-7.21l2.18-1.23Z" transform="translate(-126.64 0.11)"></path><path class="cls-69" d="M1139.4,218.68l-1.39-1.3,2.16-8.86C1142,212.22,1140.8,215.47,1139.4,218.68Z" transform="translate(-126.64 0.11)"></path><path class="cls-70" d="M950.72,123.63,948,125c-3.07-11-3-22.49-4.71-33.72Q941.87,81.6,940.15,72c1.32-1.35-1.21-4.45,2.21-4.84C946.39,85.79,949.61,104.55,950.72,123.63Z" transform="translate(-126.64 0.11)"></path><path class="cls-17" d="M874.64,126.66c.26,4.43-2.82,7.3-4.88,10.61-.72,1.15-2,2.45-3.43,1.62a3.91,3.91,0,0,1-1.77-4.14,83.8,83.8,0,0,1,4-10.51,3.45,3.45,0,0,1,4-1.88C874.76,122.94,874.68,124.91,874.64,126.66Z" transform="translate(-126.64 0.11)"></path><path class="cls-9" d="M917.77,12c3.26.69,6.57,2.14,8.48,5.38.56.94-.62,3-2,3.22-4.15.56-7.71-1.29-10.87-3.73a2.56,2.56,0,0,1-.29-3.31C914.12,12.12,915.8,12.14,917.77,12Z" transform="translate(-126.64 0.11)"></path><path class="cls-9" d="M843.63,27.58c-.43,4.17-2.47,7.07-6.8,7.66-2,.27-2.83-1.19-2.42-3.1.82-3.84,2.29-7.41,6.62-8.2C843.51,23.49,843.75,25.61,843.63,27.58Z" transform="translate(-126.64 0.11)"></path><path class="cls-11" d="M948.07,55.57c-2.05-.07-2.8-1.43-2.63-3.15.39-3.82,3.27-6.16,5.72-8.63,1-1,2.19-.1,2.85,1C955.65,47.53,951.27,55.44,948.07,55.57Z" transform="translate(-126.64 0.11)"></path><path class="cls-71" d="M933.22,24.34c.75,5.36,4.38,10.22,1.29,16.28q-1.38-7.95-2.75-15.91Z" transform="translate(-126.64 0.11)"></path><path class="cls-72" d="M942.36,67.15c-.74,1.61-1.47,3.23-2.21,4.84L938,54.71A15.11,15.11,0,0,1,942.36,67.15Z" transform="translate(-126.64 0.11)"></path><path class="cls-64" d="M655.39,106.84c4.46,11,8.67,22.26,15.63,32,5.12,7.18,10.7,14,16.45,21.52-2.89,0-4.14-1.55-5.41-2.93a135.08,135.08,0,0,1-27.46-45.08,17.35,17.35,0,0,1-.49-4.12C653.52,106.88,654.24,106.67,655.39,106.84Z" transform="translate(-126.64 0.11)"></path><path class="cls-55" d="M632.42,18.25c.61-2.42,1.23-5.55,2.24-8.54a3.46,3.46,0,0,1,4.22-2.49c2.22.49,2.59,2.21,2.48,4.14A14.47,14.47,0,0,1,637.18,21c-1,1-2.19,2.05-3.66,1.57C631.72,21.94,632.66,20.22,632.42,18.25Z" transform="translate(-126.64 0.11)"></path><path class="cls-40" d="M566.51,100.45c3.13.21,8.32-.73,8.09,3.35-.2,3.82-5.42,3.78-9,3.22-2.74-.43-7.19-.41-6.8-4C559.26,99.17,563.6,100.75,566.51,100.45Z" transform="translate(-126.64 0.11)"></path><path class="cls-17" d="M603.6,10.76c-3.21-.7-7.47,0-8-4.52-.3-2.44,2.73-2.49,4.61-2.48,3.43,0,7.28.61,8,4.47C608.69,10.78,605.38,10.19,603.6,10.76Z" transform="translate(-126.64 0.11)"></path><path class="cls-60" d="M592.21,110.21l-1.63,1.56c-5.57-3.2-9.86-7.8-14.05-12.52l.93-1.21Z" transform="translate(-126.64 0.11)"></path><path class="cls-73" d="M655.39,106.84l-1.28,1.43A16.93,16.93,0,0,1,652,97.35c3.41,1,1.46,4.56,3.49,5.91l0,0C655.42,104.43,655.41,105.64,655.39,106.84Z" transform="translate(-126.64 0.11)"></path><path class="cls-74" d="M419.71,857l2,1c-10.7,3.57-21.46,6.72-33,4.87C399.4,862.62,409.33,858.63,419.71,857Z" transform="translate(-126.64 0.11)"></path><path class="cls-75" d="M376.53,858.32l7.46,3C381.3,862.86,380,862.37,376.53,858.32Z" transform="translate(-126.64 0.11)"></path><path class="cls-76" d="M317.79,580c-32.21,26.14-46.63,60.45-46.67,101.45a132.77,132.77,0,0,0,3.93,30.31c.35,1-.19,1.27-1.08,1.2-4.38-8.49-5.18-17.86-5.78-27.06-1.18-18.16,1.82-35.87,7.88-53A111.42,111.42,0,0,1,316,579C317.15,578.21,317.82,578.38,317.79,580Z" transform="translate(-126.64 0.11)"></path><path class="cls-77" d="M466.61,747.88c-22.67,1.27-44.77-1.12-65.44-11.17-21.18-10.29-35.79-26.86-44.64-48.59-1.87-4.58-4-9.08-4.57-14.11a1,1,0,0,1,1.68,0c4.41,15.29,11.63,29.09,22.39,40.83,16.85,18.4,38.6,26.57,62.78,29.59,6.51.81,13.16.08,19.56,2.23,1.92.65,4.07-1.35,6.28-.58C465.17,746.81,467.16,746,466.61,747.88Z" transform="translate(-126.64 0.11)"></path><path class="cls-77" d="M390.7,553l1.19,1.21c-2.42,4.25-6.26,7.24-9.56,10.7-3.6,3.77-6.57,7.86-8.06,12.92-2.47,8.42-1,12.44,6.5,17.11.94.59,2.52.91,1.77,2.4-.63,1.24-1.7.09-2.59-.11-7.77-1.75-11.81-9-9.81-17.69a26.61,26.61,0,0,1,6.74-13C381.4,561.92,386.09,557.49,390.7,553Z" transform="translate(-126.64 0.11)"></path><path class="cls-78" d="M375.15,597c-3.24,1.86-8.09.5-7.78,5,.28,4.05,4.33,5.23,7.72,5.86,4.3.81,8.71,1.41,13.13.1-3.59,4.67-8.48,4.35-13.31,3.37s-8.81-3.16-10.38-8.16a5.6,5.6,0,0,1,1.9-6.3C369,595,371.76,595.15,375.15,597Z" transform="translate(-126.64 0.11)"></path><path class="cls-71" d="M307.69,704c3.82,15.77,10.76,29.76,23.18,40.61.69.46.67.89-.06,1.28-9.35-5.56-14.32-14.72-18.94-23.92a46.77,46.77,0,0,1-5.13-16.87C306.19,704,306.8,703.88,307.69,704Z" transform="translate(-126.64 0.11)"></path><path class="cls-79" d="M330.81,745.89l.06-1.28c11.92,9.08,25.8,13.29,40.2,16.2l-2.4,1.28C354.76,759.71,341.5,755.8,330.81,745.89Z" transform="translate(-126.64 0.11)"></path><path class="cls-3" d="M394.87,573.18c12.76-2.07,11.79-3.76,14.37-7.12,2.34,3.52-.29,5.25-2.45,6.83C402.51,576,398.08,576,394.87,573.18Z" transform="translate(-126.64 0.11)"></path><path class="cls-3" d="M420.61,595.11a16.23,16.23,0,0,1-3.56-1.54c-1.23-.92-3.45-1.89-2.61-3.68.95-2,2.54.13,3.75.44A14.06,14.06,0,0,0,424,591c.85-.13,2-1.19,2.58.15s-.58,2.2-1.59,2.65A33.42,33.42,0,0,1,420.61,595.11Z" transform="translate(-126.64 0.11)"></path><path class="cls-80" d="M307.15,672.13q-.22,8-.47,15.92c-1.36,2.11,1.15,5.14-1.65,6.9a141.51,141.51,0,0,1,.89-27.83C308.58,668.24,306.88,670.42,307.15,672.13Z" transform="translate(-126.64 0.11)"></path><path class="cls-81" d="M317.79,580,316,579a50.81,50.81,0,0,1,17.83-10.89Z" transform="translate(-126.64 0.11)"></path><path class="cls-82" d="M410.76,722.86a47.59,47.59,0,0,1-15.29-13.69q7.9,6.72,16.37,12.67C411.79,722.5,411.27,722.69,410.76,722.86Z" transform="translate(-126.64 0.11)"></path><path class="cls-83" d="M353.64,674H352a42.7,42.7,0,0,1-2.14-15c1.1-.6,1.38.16,1.63,1Z" transform="translate(-126.64 0.11)"></path><path class="cls-84" d="M307.15,672.13c-.28-1.7-.08-3.52-1.23-5-.29-4.54,1.38-8.56,3.61-12.48Q308.35,663.39,307.15,672.13Z" transform="translate(-126.64 0.11)"></path><path class="cls-85" d="M478.6,746c4-1.05,8.06-.2,12.11-.26a31.21,31.21,0,0,1-14.16,1.86C476.48,746.07,478.12,746.76,478.6,746Z" transform="translate(-126.64 0.11)"></path><path class="cls-67" d="M351.45,660l-1.63-1,.05-14.91c3,1.3.48,4.12,1.65,5.93C351.74,653.34,352.09,656.66,351.45,660Z" transform="translate(-126.64 0.11)"></path><path class="cls-86" d="M478.6,746l-2.05,1.6a35.6,35.6,0,0,1-9.94.3l-2-1.81Z" transform="translate(-126.64 0.11)"></path><path class="cls-87" d="M351.52,650l-1.65-5.93c-.32-3.27-.42-6.51,1.65-9.89Z" transform="translate(-126.64 0.11)"></path><path class="cls-88" d="M305,695l1.65-6.9q.51,8,1,16l-.95,1.1C305,701.93,305.86,698.29,305,695Z" transform="translate(-126.64 0.11)"></path><path class="cls-89" d="M274,712.92l1.08-1.2c2,2.94,3.76,5.93,3.75,10.18A21.49,21.49,0,0,1,274,712.92Z" transform="translate(-126.64 0.11)"></path><path class="cls-90" d="M410.76,722.86l1.08-1c1.81,1.31,4.48,1,5.85,3.15l.05,1.82C415,726.28,412.87,724.57,410.76,722.86Z" transform="translate(-126.64 0.11)"></path><path class="cls-91" d="M195.25,769.36c-5.57.14-4.59-3.19-4.66-6.41a14.26,14.26,0,0,0-.52-3c-.46-2-1.54-3.28-3.68-3.49-2.33-.24-3.22,1.49-3.94,3.13a48.74,48.74,0,0,0-1.62,5.23c-1.91,2.28-1.8,4.65-.3,7.08a3.93,3.93,0,0,0,1.53.3c0-.1-.06-.2-.1-.3.69-3.38,1.34-6.78,2.11-10.15.27-1.17,1.06-2.31,2.38-2.1s1.72,1.59,1.58,2.74c-.33,2.57.59,5.32-1.12,7.69-.71,1-1.3,2-.15,3.07s2,.29,2.89-.59a4.27,4.27,0,0,1,5.4-1,3.51,3.51,0,0,1,1.94,4.15,6.35,6.35,0,0,1-4.45,4.87c-3.75,1.2-6.95-1.37-10.5-1.46l-.06-1.09a3,3,0,0,0-.59.67c-.46,2.12.57,3.93,1.22,5.81a4.31,4.31,0,0,0,2.52,1.71c.72-2.15.88-4.92,4.51-3.21a5.51,5.51,0,0,0,3.44-.12,7.81,7.81,0,0,0,6-7.08C199.49,772.77,198.36,769.28,195.25,769.36Z" transform="translate(-126.64 0.11)"></path></svg>