<svg xmlns="http://www.w3.org/2000/svg" id="Layer_1" data-name="Layer 1" viewBox="0 0 571.07 586.74"><defs><style>.cls-1{fill:#fefefe;}.cls-2{fill:#101010;}.cls-3{fill:#151515;}.cls-4{fill:#111;}.cls-5{fill:#171717;}.cls-6{fill:#d8d8d8;}.cls-7{fill:#eee;}.cls-8{fill:#272727;}.cls-9{fill:#efefef;}.cls-10{fill:#c6c6c6;}.cls-11{fill:#d3d3d3;}.cls-12{fill:#e1e1e1;}.cls-13{fill:#ededed;}.cls-14{fill:#bbb;}.cls-15{fill:#d1d1d1;}.cls-16{fill:#e5e5e5;}.cls-17{fill:#cfcfcf;}.cls-18{fill:#a7a7a7;}.cls-19{fill:#cdcdcd;}.cls-20{fill:#e4e4e4;}.cls-21{fill:#656565;}.cls-22{fill:#ddd;}.cls-23{fill:#292929;}.cls-24{fill:#4f4f4f;}.cls-25{fill:#727272;}.cls-26{fill:#414141;}.cls-27{fill:#9b9b9b;}.cls-28{fill:#afafaf;}.cls-29{fill:#444;}.cls-30{fill:#9d9d9d;}.cls-31{fill:#999;}.cls-32{fill:#b1b1b1;}.cls-33{fill:#222;}.cls-34{fill:#5a5a5a;}.cls-35{fill:#303030;}.cls-36{fill:#818181;}.cls-37{fill:#070707;}.cls-38{fill:#0b0b0b;}.cls-39{fill:#141414;}.cls-40{fill:#4d4d4d;}.cls-41{fill:#2c2c2c;}.cls-42{fill:#7a7a7a;}.cls-43{fill:#343434;}.cls-44{fill:#797979;}.cls-45{fill:#313131;}.cls-46{fill:#b7b7b7;}.cls-47{fill:#757575;}.cls-48{fill:#535353;}.cls-49{fill:#252525;}.cls-50{fill:#919191;}.cls-51{fill:#585858;}.cls-52{fill:#3a3a3a;}.cls-53{fill:#4b4b4b;}.cls-54{fill:#e3e3e3;}</style></defs><path class="cls-1" d="M749.72,1357.68c22.2-.44,44.47-.84,66.54,1.89,24.4,3,48.49,8.17,70.44,19.63,12.29,6.42,23.66,15.33,30.11,28,4.88,9.57,4.56,20.44,1,31-4.46,13.29-13.79,22.38-25.12,29.8a6.54,6.54,0,0,1-2.36.44c-1.29-2.45,1.1-3.48,2.06-4.88,7-10.31,11.81-21.38,12.25-34,0-.85-.33-1.62-.27-2.37,1.1,11.32-4.15,26.06-13.53,38.12-1.89,2.43-3.08,5.55-6.59,6.25-7.11,5.56-13.53,12-22,15.82-1.73.78-3.29,1.5-5.64.94,5.47-6.28,11.65-11.71,15.83-18.77,10.3-17.37,15.32-35.71,8.49-55.56-4-11.57-12.54-19.8-22.73-26.09a121.25,121.25,0,0,0-39.33-15.73c-4-.83-8-1.18-12.09-1.61-1.47-.16-3,.18-4.14-1.11-13.3-.25-26.57-1.83-38.1-.88,9-.21,19.85-.66,30.61,1a3.72,3.72,0,0,1,2.25.89c4.93,1.87,10.18,2.17,15.3,3.14,14.86,2.79,29.16,7.37,41.94,15.46,11.81,7.48,16.07,20,17.33,33,1.12,11.37-.22,23-5.61,33.63a94.94,94.94,0,0,1-8.86,14c-1.16.18-1.68-.26-1.42-1.46,2.79-7.4,6.52-14.45,6.28-22.79-.42-13.9-7.59-24-21-27.87-16.19-4.62-32.62-3.74-49-1.13-1.92,1.91-4.58,1.48-6.84,1.87a404.53,404.53,0,0,0-57.39,14.09c-8.12,1.78-16.09,4.28-22.23,4.81a160.61,160.61,0,0,0,24.23-5.6c22.24-6,44.17-13.5,67.56-13.93,10.59-.32,21.23-1.51,31.78.06,11.1,1.65,22.21,3.88,27.59,15.65,3.66,8,3,16.21.06,24.25-6.29,17.16-18.46,29.8-31.55,42-18.06,16.79-40,25.88-63,32.51-29.58,8.54-59.85,12.73-90.69,8.23s-56.84-18.19-78.71-40.07A135.52,135.52,0,0,1,562.71,1455a142.12,142.12,0,0,1-10.41-54.61c.13-25.41,5-50.06,10.82-74.61.28-1.15,0-3,1.65-3.31s1.94,1.52,2.63,2.54c15.83,23.51,38.36,35.71,66,39.64a202.72,202.72,0,0,0,50.08.64c9.26-3,18.92-4.61,28.24-7.45a83.17,83.17,0,0,0,10.28-1.48c7.56,1.35,15.32-.18,22.88,1.61A8.86,8.86,0,0,0,749.72,1357.68Z" transform="translate(-434.46 -955.37)"></path><path class="cls-1" d="M721.33,1358.44c-2.54,2.24-5.88,1.06-8.7,2-9,.77-17.8,4.08-27,3-18.39.85-36.78,1.22-54.94-2.35-28.47-5.58-51.14-19.64-65.06-45.95-8.39-15.82-10.83-32.88-10.5-50.53.64-35.14,12.82-66.15,33.7-94,15.79-21.06,34.78-38.29,59.29-48.67,15.62-6.61,32.11-8,48.88-7.63,3.17.08,3.36,2,3.8,4.15,2.62,3.25.38,5.91-1,8.67-2.26,3.75-5.57,6.62-8.68,9.57-5.64,5.35-10.27,11.09-11.36,19.14-.8,5.94-.8,6.48,3.26,11.77-6.15-5.33-3.35-15.57.66-22.29,3.39-5.67,8.86-9.29,12.93-14.27a28,28,0,0,0,2.78-3.17c.65-1.47,1.84-2.65,2.19-4.26.68-3.12,2.61-3.2,5-2.1l27,18.14c.28.18.58.33.85.52,7,5,7,6.53.22,11.39-1.21.87-2.59,1.5-3.52,3.39a6.85,6.85,0,0,1,4.23,3.65c2.15,4.27,4.68,8.35,6.82,12.63,3.09,6.16,1.9,12.29-4.22,15.26-13.93,6.78-28.48,11.49-44.37,8-1.33-1-2.91-.17-4.32-.62-1-.3-1.72-1-2.64-1.31a5.79,5.79,0,0,1,.84.47,3.08,3.08,0,0,1,1.19,1.54,37,37,0,0,0-.6,13.31c0,6.47.18,12.92-.92,19.34a8.42,8.42,0,0,0,.38,5.38c1.25,12.08,6.14,22.72,13.59,32.07,19.41,24.34,46,29.86,75.31,28.7,20.69-.83,40.46-6.67,60.66-10.16,24.83-4.28,49.89-6.44,75-3.4a115.39,115.39,0,0,1,55.2,22.14c13,9.6,20.34,23,21.48,40.32-6.51-12.46-15-22.09-26.89-28.24A126.1,126.1,0,0,0,916,1300.53c-32.83-3.27-65.55-.86-98.23,2.51-.14,0-.27.17-.42.26a6.53,6.53,0,0,1-4.12,2.54c-21.34,2.88-42.7,5.18-64.28,2.78-8.35-.92-15.7-4.58-23.16-8-2.1-1.22-4.35-2.2-6.39-3.57-3.84-2.21-7-5.35-10.7-7.75,3.53,2.38,6.64,5.34,10.33,7.51q3.69,2.3,7.59,4.22c18.27,10.21,38,9.14,57.89,7.87,10.26-.66,20.53-2.7,30.75-2,6.06.44,12.1,0,18.12.68,11.13.09,22.18-1.23,33.27-1.72,5.72-.26,11.47.71,17.22.79,16.08.21,31.57,4.23,47,7.81,7.75,1.79,15,5.67,22.47,8.82,8.68,3.69,16.25,8.77,21.32,16.58,11.09,17.1,11.7,35,2.27,53.08-3.41,6.57-7,13-12.85,18.79.82-9.29,1-17.74-.88-26.25-3.21-14.15-12.37-23.06-24.58-29.5-20.59-10.87-42.93-15.27-65.81-17.36-8-.73-16.07-2.08-24.19-1.35-22.1.24-44.19-.16-66.29,0-23.13.19-46.26,1.35-69.4.84-11.4-.25-22.81-.34-34.15-1.79-6.52-1.63-13.14-2.89-19.52-5.11a75.75,75.75,0,0,1-20.66-11.41c-13.56-10.91-20.43-25.62-24-42.23a81.33,81.33,0,0,1-1-15.27c0-4.8,0-9.6.15-14.38,1.48-5.6.37-11.62,2.62-16.48-.65,3.24-2.16,7-1.77,11-1.48,8.75-.9,17.58-1,26.38.35,3.41.65,6.83,1.27,10.21,2.89,12.61,7.91,24.17,16.48,34.07a62.69,62.69,0,0,0,7.7,6.87c11.2,9.4,24.69,13.26,38.65,16,16,2.43,32.08,2,48.16,2.17,18.4.24,36.77-.86,55.18-.88,16,0,32-.2,48,0,3.38,0,7.43-1.13,10.33,2.09,14.58,2.11,29.12,4.27,43.42,7.87,15.32,3.86,30.54,8.44,43.71,17.26,14.36,9.61,20.54,23.72,20,41.25-.36,12.47-3.79,23.37-11.59,33-.62.77-1.13,1.68-2.58,1.77,1.45-10.13,3-20.14,1.06-30.41-2.53-13.5-9.08-23.82-20.94-31.07a122.65,122.65,0,0,0-23.88-10.77c-4-1.71-8.45-1.67-12.25-3.83a154.41,154.41,0,0,0-36.43-9,376.29,376.29,0,0,0-96.36,1.09C736.18,1357.68,728.82,1359.07,721.33,1358.44Z" transform="translate(-434.46 -955.37)"></path><path class="cls-1" d="M763.52,1234.53c12-3.93,23.27-9.67,34.62-15.08,38.28-18.23,75.23-38.83,109.91-63.32,17.08-12.07,33.77-24.69,48.84-39.32a80.23,80.23,0,0,1,12.1-9.46c-1.17,6.26-5,11-8.91,15.61s-8.53,8.68-11.19,14.42c16.91-11.08,28.76-27.45,42.61-42.5.61,4.63.61,4.63-8.3,17.62-.68,1.93-.68,1.93,1,2l7.18-8.92c1.66.11,1.41,1,.9,2.1l-3,5.45c4.57-1.83,6.33-5.87,9.94-7.81-.56,4-3.45,6.74-5.69,9.66-10.45,13.61-23.3,24.75-36.65,35.43-11.75,9.41-22.89,19.6-34.77,28.85-17.07,13.29-33.55,27.33-51.6,39.4-14.68,9.81-29.69,19-45,27.71-8.59,4.89-17.39,9.4-26.09,14.07-7.43,2.23-13.13-2.34-18.76-5.57a54.58,54.58,0,0,1-15.27-13.16C763.82,1239.8,760.66,1237.8,763.52,1234.53Z" transform="translate(-434.46 -955.37)"></path><path class="cls-1" d="M584.33,1011.82c.5,7.93-1.47,15.52-2.07,23.2a383.27,383.27,0,0,0-.39,45.22A406.74,406.74,0,0,0,592.1,1157c.63,2.68,0,4.45-1.74,6.67a193.85,193.85,0,0,0-27,44.68c-.39.89-.48,1.91-2.07,2.39-.9-8.58-1.9-17-2.62-25.41-2.61-30.31-4.16-60.67-2.63-91.08,1.75-34.59,5.62-68.9,15.3-102.33,2.06-7.13,4.87-13,8.15-16.67.28,13.9-7.26,25.6-9.28,39.66,3.92-3.56,5-7.6,6.35-11.24a125,125,0,0,0,6.2-22.56c1.6-9.25,6.24-17.16,11.56-25.72,1.65,4.53.06,7.78-.8,11-2.2,8.33-4.67,16.59-7,24.88a32.14,32.14,0,0,0-.76,3.91c-.16,1.15-.37,2.59,1.08,2.93,1.07.26,1.54-1,2.15-1.77,4.24-5.47,8-11.38,13.66-15.83-6.52,14.23-12.4,28.62-15.06,44.29-2.78-1.2-2.18-3.14-1.77-4.15,1-2.47.7-4.87.61-7.35-.07-2.15.43-5.09-1.76-5.74-2.56-.75-3.85,2.17-4.92,4.1a93.69,93.69,0,0,0-11.52,37.67c-.12,1.42-1.12,3.88,1.37,4,1.85.1,1.58-2.25,1.75-3.58a100.84,100.84,0,0,1,10.47-34.66C582.38,1013.92,582.64,1012.53,584.33,1011.82Z" transform="translate(-434.46 -955.37)"></path><path class="cls-1" d="M794.14,1263.41c-7.62,3.11-15.22,6.28-22.85,9.33a263.14,263.14,0,0,1-31.59,10.1c-9.21,2.37-15.54-2.33-22-6.64a63.88,63.88,0,0,1-26.08-35.67,10,10,0,0,1,0-2c11,6.68,22.65,8.74,34.94,7.38,11.5-1.27,22.26-5.14,32.92-9.37,2.33-.7,3.12,1.31,4.1,2.56a67.18,67.18,0,0,0,15.84,14.86,80.54,80.54,0,0,0,11.29,5.86C792.19,1260.41,794.91,1260.42,794.14,1263.41Z" transform="translate(-434.46 -955.37)"></path><path class="cls-2" d="M725.51,1299.53c20.53,9.22,42.09,8.53,63.76,6.58,9.36-.85,18.71-1.87,28.05-2.81,2,3,4.56,4.33,8.41,3.41,2.46-.59,5.26-.74,7.63,1-6.17,2.19-12.68,1.13-19,1.51-13.92.83-27.77,2.82-41.71,3-13.63.16-27.39.45-40-6.25a30.71,30.71,0,0,1-7.07-4.55,1.16,1.16,0,0,1-.31-1.63A1.2,1.2,0,0,1,725.51,1299.53Z" transform="translate(-434.46 -955.37)"></path><path class="cls-3" d="M839.38,1339.45c-25.8-1.79-51.64-.92-77.47-.74-15,.11-30.08.74-45.11.67-13.48-.06-27,.47-40.31-2.76,0-2,1.18-1.65,2.4-1.28,31.66,2.83,63.35,1,95,.77,17.28-.14,34.56-.48,51.85,0,6.72.16,13.45-.21,20.17.35a3.67,3.67,0,0,1,2.69.93C845.76,1339,842,1336.83,839.38,1339.45Z" transform="translate(-434.46 -955.37)"></path><path class="cls-1" d="M686.59,1206.6c-1.62-4.15-2.09-8.2,1-12,1.39-.94,2.18,0,2.95,1a75.74,75.74,0,0,0,7.37,2.58c6.11,1.48,6.31,1.77,3.34,7.06-.48.86-1,1.67-1.54,2.5a3.27,3.27,0,0,1-3.29-1c.57,1.29,2.18,1.46,2.36,2.83-1.15,8-3,16-.38,24,.66,2,1.52,4,2.29,6-8.08-.6-10.81-3.26-11.5-11.14-.15-1.63-.33-3.26-.5-4.9-2-2.42-.72-5.31-1.1-8C687.12,1212.58,688.54,1209.41,686.59,1206.6Z" transform="translate(-434.46 -955.37)"></path><path class="cls-4" d="M797.7,1417.58c-10.44,1.56-20.88,3.13-31.13,5.63-12.37,3-24.7,6.18-37,9.27-1.1.63-2,.88-2-1,13.11-5.09,26.84-8,40.49-11.12,8-1.82,16-4.13,24.35-4.07C794,1417.53,795.88,1417.35,797.7,1417.58Z" transform="translate(-434.46 -955.37)"></path><path class="cls-2" d="M884.29,1471.44c5.38-6.49,10.43-13.19,14-20.93,4.59-10,5.75-20.54,5.21-31.64,5.73,8.36.67,33.63-13.13,49.5C888.38,1469.53,888.3,1474.38,884.29,1471.44Z" transform="translate(-434.46 -955.37)"></path><path class="cls-5" d="M794.14,1263.41c-1.91-2.31-4.85-2.8-7.35-3.87-9.85-4.25-17.49-11.08-24-19.4-1-1.3-2.21-2.46-3.32-3.68a7.16,7.16,0,0,1,4-1.93c-.57,4.59,3.34,6.72,5.77,9.21a62.93,62.93,0,0,0,27.19,16.59,11.56,11.56,0,0,0,2.94.13Z" transform="translate(-434.46 -955.37)"></path><path class="cls-6" d="M508.82,1479.7a5.64,5.64,0,0,1,5.66,4c.71,2.19,1.57,4.56-.81,6.71-1.82,1.65-3.11,4-5.57,4.8-1.39.44-3.24,1.78-4.4-.36a3.2,3.2,0,0,1,1.14-4.37l0,0c3.2-1.9,3.51-3.69,1.29-6.81C504.67,1481.53,505.43,1479.39,508.82,1479.7Z" transform="translate(-434.46 -955.37)"></path><path class="cls-7" d="M951.31,1478c4.69-4.94,10-8.6,17.19-8.54a4.47,4.47,0,0,1,4.35,2.77,3.78,3.78,0,0,1-1.16,4.49,26.14,26.14,0,0,1-15.15,7.14c2.71-3.36,6.08-4.08,8.56-6,1.58-1.24,4.9-1.77,3.78-4.26-1-2.27-3.83-.58-5.84-.26C958.82,1473.94,955.41,1476.78,951.31,1478Z" transform="translate(-434.46 -955.37)"></path><path class="cls-8" d="M797.47,1370.38c-8.07-.39-16.13-.8-24.2-1.14-5.88-.25-11.83.33-17.6-1.48,15.72-.47,31.45-1.9,47,1.57Z" transform="translate(-434.46 -955.37)"></path><path class="cls-9" d="M492,1358.53c-1,1.45-1.52,3.87-3.74,3.21s-.78-2.75-.63-4.26c.32-3.32-1.84-2.48-3.49-1.91-2.34.79-5.56,3.56-6.75.59-.88-2.18,3.11-3.36,5.73-3.76,1.42-.22,1.53-1,.73-2-.82.11-1.64.2-2.45.33-3.46.55-7.41,1.41-7.08,5.64s4.07,3.87,7.35,3.23c1.25-.24,2.86-.61,3,1.38.22,2.57,1.66,4.16,4,4.1s3.55-2.07,4.28-4.2C492.61,1360.05,492.28,1359.28,492,1358.53Z" transform="translate(-434.46 -955.37)"></path><path class="cls-10" d="M924.57,1494c-13.65,3.69-23.49,13.19-34.41,23.17C894.67,1506.62,915.18,1493.12,924.57,1494Z" transform="translate(-434.46 -955.37)"></path><path class="cls-11" d="M519.42,1488.87c9.82-1.83,29.12,11.5,29.91,20.81C541.23,1499.46,532.08,1491.6,519.42,1488.87Z" transform="translate(-434.46 -955.37)"></path><path class="cls-12" d="M964,1463a54.68,54.68,0,0,0-11.4,10.29c-1.4,1.76-2.81,1.09-3.11-.85-.84-5.3-4.78-8.57-8.28-13.18,6.86,1.08,8.13,6.49,10.57,11.12C955.51,1467.3,958.5,1463.07,964,1463Z" transform="translate(-434.46 -955.37)"></path><path class="cls-13" d="M942.05,1482.08c-3.51-2.06-7.06-3.89-9-7.68-1.11-2.21-1.77-4.55.24-6.42,1.74-1.62,4.07-1.39,6-.18s4.71,1.77,5.18,5.84a17.26,17.26,0,0,0-5.65-3.41c-1.09-.31-2.25-1.19-3.19,0s-.3,2.63.6,3.58c1.69,1.8,3.58,3.4,5.38,5.09C942.36,1479.62,942.5,1480.53,942.05,1482.08Z" transform="translate(-434.46 -955.37)"></path><path class="cls-14" d="M487.66,1348.39l-2.77,1.06c-1-2.14-3.22-2-5-2.68s-3.93,0-6-1.55c3.9-2.06,7.28-1.61,10.92,1,.74-5.51-1.4-10.79,1.15-16.17,1.59,2.63.29,5.16.94,7.41C487.82,1341.06,488.45,1344.67,487.66,1348.39Z" transform="translate(-434.46 -955.37)"></path><path class="cls-15" d="M445.73,1463.85c7.55-.48,20.06,9.52,20.19,16.16a1.23,1.23,0,0,1-.43.83c-.11.1-.47-.11-.74-.17a7.46,7.46,0,0,1-3-5.19,33.79,33.79,0,0,0-17.93-11C443.89,1463,444,1463,445.73,1463.85Z" transform="translate(-434.46 -955.37)"></path><path class="cls-16" d="M992.29,1107.7l-.91-2.1c3.19-6.91,8.31-12.21,14.16-16.93C1002.26,1095.84,996.72,1101.37,992.29,1107.7Z" transform="translate(-434.46 -955.37)"></path><path class="cls-17" d="M885.89,1503.86c-2.46,7.68-8.22,13.9-9.28,23.25C874.05,1521.53,877.87,1512.46,885.89,1503.86Z" transform="translate(-434.46 -955.37)"></path><path class="cls-18" d="M549.89,1485c7.58,2.16,15.41,14.37,14.46,23.29A43.59,43.59,0,0,0,549.89,1485Z" transform="translate(-434.46 -955.37)"></path><path class="cls-19" d="M461.76,1475.53a14.24,14.24,0,0,1,3,5.19c-6.22-2.8-12.38-5.83-20.29-5.65,3.77-2.45,7.37-2.25,12.25-.54C458.26,1475,459.66,1477.44,461.76,1475.53Z" transform="translate(-434.46 -955.37)"></path><path class="cls-20" d="M940.36,1483.53c-.37,2.89-3.15,4.23-3.69,7,2.08,1.26,3-.63,4.26-1.45s1.93-2.78,4.49-2.54c-1.52,4.21-4.72,6.17-8.52,7.18-2,.54-3.34-.93-2.82-2.92A10.86,10.86,0,0,1,940.36,1483.53Z" transform="translate(-434.46 -955.37)"></path><path class="cls-21" d="M685.6,1363.43c9-.88,17.9-3,27-3-9.6,2.35-19.19,4.74-29.16,4.76Z" transform="translate(-434.46 -955.37)"></path><path class="cls-22" d="M953.82,1488.3c1.74.25,1.48,1.62,2.15,2.28,1.3,1.3,2.22,4.23,4.39,2.86,1.82-1.15.34-3.61-.34-5.42-.39-1-1.75-1.56-1.65-3.72,3.66,2.11,5.35,4.74,4.87,8.62-.23,1.86-.85,3.69-3.2,3.69C957.26,1496.62,954,1492.27,953.82,1488.3Z" transform="translate(-434.46 -955.37)"></path><path class="cls-23" d="M686.59,1206.6l1.17-3.44.9.09v20.28c-1.83,2.85-.58,6.08-1.15,9.09-1.92-7-.88-14-1-21.07C686.53,1209.89,686.57,1208.24,686.59,1206.6Z" transform="translate(-434.46 -955.37)"></path><path class="cls-24" d="M721.33,1358.44c7.4-.78,14.71-2.62,22.22-1.86,1.92,1.16,4.15.55,6.17,1.1-8.9,1.42-18,1.31-26.9,1.85C722.32,1359.53,721.82,1358.83,721.33,1358.44Z" transform="translate(-434.46 -955.37)"></path><path class="cls-25" d="M903.43,1522.62c5.89-4.7,11.51-10,20-8.66C916.24,1515.74,909.92,1519.39,903.43,1522.62Z" transform="translate(-434.46 -955.37)"></path><path class="cls-1" d="M698.74,1209.58c-1.7-.18-3.29-.63-4-2.41-.8-2.11-2.25-5,.37-6.08,2.27-.93,1.93,2.31,2.71,3.75.54,1,1.23,1.93,1.85,2.89a1.45,1.45,0,0,1-.9,1.84Z" transform="translate(-434.46 -955.37)"></path><path class="cls-22" d="M856.16,1468.13l1.41,1.46c-2,4.84-5.46,8.43-9,12l-1-.77Z" transform="translate(-434.46 -955.37)"></path><path class="cls-26" d="M698.52,1127.53c.92-3,2.93-5.7,2.25-9.07a8.68,8.68,0,0,1,5.77,3.06c-1.81-.23-3.21.07-3.81,2.18a9.19,9.19,0,0,1-3,5C699,1128.65,698.82,1128,698.52,1127.53Z" transform="translate(-434.46 -955.37)"></path><path class="cls-27" d="M991.67,1486.1c-5,1.74-9.54,4.37-14.36,6.23C981.29,1488.28,985.88,1485.63,991.67,1486.1Z" transform="translate(-434.46 -955.37)"></path><path class="cls-28" d="M529.12,1442.86c-2.1-3.7-4.17-7.37-8.93-8.79C525.46,1432.53,529,1436,529.12,1442.86Z" transform="translate(-434.46 -955.37)"></path><path class="cls-29" d="M690.5,1195.59l-3-.95c-1.62-1.51-3.9-2.26-5.21-4.65,4.35.52,7.56,3.13,11.24,4.5Z" transform="translate(-434.46 -955.37)"></path><path class="cls-30" d="M445.73,1463.85l-1.9.62h-9.37C438.17,1462.39,441.89,1461.14,445.73,1463.85Z" transform="translate(-434.46 -955.37)"></path><path class="cls-31" d="M851.54,1515.87c4,2,3.86,5.69,3.54,9.41C853.05,1522.53,853.33,1518.83,851.54,1515.87Z" transform="translate(-434.46 -955.37)"></path><path class="cls-32" d="M507.66,1529.74c-2.53-3-5.73-5.26-8.46-8A10.64,10.64,0,0,1,507.66,1529.74Z" transform="translate(-434.46 -955.37)"></path><path class="cls-17" d="M579.3,1523.14c-1.2-3.4-.89-6.86-.73-11.49C581.5,1516.14,579.82,1519.66,579.3,1523.14Z" transform="translate(-434.46 -955.37)"></path><path class="cls-33" d="M876.35,1364.53c4.28.61,8.57,1.25,12.25,3.83C884.32,1367.66,879.82,1367.66,876.35,1364.53Z" transform="translate(-434.46 -955.37)"></path><path class="cls-34" d="M918.89,1223.14c-1.63,2.14-3.09,4.49-7.39,5.25,2.49-3.1,4.33-5.39,6.18-7.67Z" transform="translate(-434.46 -955.37)"></path><path class="cls-35" d="M727.53,1431.53l2,1c-10.7,3.57-21.46,6.72-33,4.87C707.22,1437.15,717.15,1433.16,727.53,1431.53Z" transform="translate(-434.46 -955.37)"></path><path class="cls-36" d="M684.35,1432.85l7.46,3C689.12,1437.39,687.82,1436.9,684.35,1432.85Z" transform="translate(-434.46 -955.37)"></path><path class="cls-37" d="M625.61,1154.53C593.41,1180.67,579,1215,578.94,1256a133,133,0,0,0,3.93,30.31c.35,1-.19,1.27-1.08,1.2-4.38-8.49-5.18-17.86-5.78-27.06-1.18-18.16,1.82-35.87,7.88-53a111.46,111.46,0,0,1,39.93-53.9C625,1152.74,625.64,1152.91,625.61,1154.53Z" transform="translate(-434.46 -955.37)"></path><path class="cls-38" d="M774.43,1322.41c-22.67,1.27-44.77-1.12-65.44-11.17-21.18-10.29-35.79-26.86-44.64-48.59-1.87-4.58-4-9.08-4.57-14.11a1,1,0,0,1,1.39-.3.92.92,0,0,1,.29.3c4.41,15.29,11.63,29.09,22.39,40.83,16.85,18.4,38.6,26.57,62.78,29.59,6.51.81,13.16.08,19.56,2.23,1.92.65,4.07-1.35,6.28-.58C773,1321.34,775,1320.53,774.43,1322.41Z" transform="translate(-434.46 -955.37)"></path><path class="cls-38" d="M698.52,1127.53l1.2,1.21c-2.43,4.25-6.27,7.24-9.56,10.7-3.61,3.77-6.58,7.86-8.06,12.92-2.47,8.42-1,12.44,6.5,17.11.94.59,2.51.91,1.76,2.4-.63,1.24-1.7.09-2.59-.11-7.76-1.75-11.8-9-9.8-17.69a26.61,26.61,0,0,1,6.73-13C689.22,1136.45,693.91,1132,698.52,1127.53Z" transform="translate(-434.46 -955.37)"></path><path class="cls-39" d="M683,1171.53c-3.24,1.86-8.09.5-7.78,5,.28,4,4.33,5.23,7.72,5.86,4.3.81,8.71,1.41,13.13.1-3.59,4.67-8.48,4.35-13.31,3.37s-8.81-3.16-10.38-8.16a5.61,5.61,0,0,1,1.9-6.3C676.82,1169.53,679.58,1169.68,683,1171.53Z" transform="translate(-434.46 -955.37)"></path><path class="cls-40" d="M615.51,1278.53c3.82,15.77,10.76,29.76,23.18,40.61.69.46.67.89-.06,1.28-9.35-5.56-14.32-14.72-18.94-23.92a47,47,0,0,1-5.13-16.87C614,1278.53,614.62,1278.41,615.51,1278.53Z" transform="translate(-434.46 -955.37)"></path><path class="cls-41" d="M638.63,1320.42l.06-1.28c11.92,9.08,25.8,13.29,40.2,16.2l-2.4,1.28C662.58,1334.24,649.32,1330.33,638.63,1320.42Z" transform="translate(-434.46 -955.37)"></path><path class="cls-3" d="M702.69,1147.71c12.76-2.07,11.79-3.76,14.37-7.12,2.34,3.52-.29,5.25-2.45,6.83C710.33,1150.53,705.9,1150.53,702.69,1147.71Z" transform="translate(-434.46 -955.37)"></path><path class="cls-3" d="M728.43,1169.64a16.74,16.74,0,0,1-3.56-1.54c-1.23-.92-3.45-1.89-2.61-3.68,1-2,2.54.13,3.75.44a14,14,0,0,0,5.81.67c.85-.13,2-1.19,2.58.15s-.58,2.2-1.59,2.65A33,33,0,0,1,728.43,1169.64Z" transform="translate(-434.46 -955.37)"></path><path class="cls-42" d="M615,1246.66q-.21,8-.47,15.92c-1.36,2.11,1.15,5.14-1.65,6.9a142.26,142.26,0,0,1,.89-27.83C616.4,1242.77,614.7,1245,615,1246.66Z" transform="translate(-434.46 -955.37)"></path><path class="cls-43" d="M625.61,1154.53l-1.79-1a50.75,50.75,0,0,1,17.83-10.89Z" transform="translate(-434.46 -955.37)"></path><path class="cls-44" d="M718.58,1297.39a47.76,47.76,0,0,1-15.29-13.69q7.9,6.72,16.37,12.67C719.61,1297,719.09,1297.22,718.58,1297.39Z" transform="translate(-434.46 -955.37)"></path><path class="cls-45" d="M661.47,1248.53h-1.65a42.88,42.88,0,0,1-2.14-15c1.1-.6,1.38.16,1.63,1Z" transform="translate(-434.46 -955.37)"></path><path class="cls-46" d="M615,1246.66c-.28-1.7-.08-3.52-1.23-5-.29-4.54,1.38-8.56,3.61-12.48Q616.18,1237.93,615,1246.66Z" transform="translate(-434.46 -955.37)"></path><path class="cls-47" d="M786.42,1320.53c4-1,8.06-.2,12.11-.26a31.17,31.17,0,0,1-14.16,1.86C784.3,1320.6,785.94,1321.29,786.42,1320.53Z" transform="translate(-434.46 -955.37)"></path><path class="cls-48" d="M659.27,1234.53l-1.63-1,.05-14.91c3,1.3.48,4.12,1.65,5.93C659.56,1227.87,659.91,1231.19,659.27,1234.53Z" transform="translate(-434.46 -955.37)"></path><path class="cls-49" d="M786.42,1320.53l-2,1.6a36,36,0,0,1-9.94.3l-2-1.81Z" transform="translate(-434.46 -955.37)"></path><path class="cls-50" d="M659.34,1224.53l-1.65-5.93c-.32-3.27-.42-6.51,1.65-9.89Z" transform="translate(-434.46 -955.37)"></path><path class="cls-51" d="M612.82,1269.53l1.65-6.9q.51,8,1,16l-1,1.1C612.82,1276.46,613.68,1272.82,612.82,1269.53Z" transform="translate(-434.46 -955.37)"></path><path class="cls-52" d="M581.82,1287.45l1.08-1.2c2,2.94,3.76,5.93,3.75,10.18A21.58,21.58,0,0,1,581.82,1287.45Z" transform="translate(-434.46 -955.37)"></path><path class="cls-53" d="M718.58,1297.39l1.08-1c1.81,1.31,4.48,1,5.85,3.15l0,1.82C722.82,1300.81,720.69,1299.1,718.58,1297.39Z" transform="translate(-434.46 -955.37)"></path><path class="cls-54" d="M503.07,1343.89c-5.57.14-4.59-3.19-4.66-6.41a13.86,13.86,0,0,0-.52-3c-.46-2-1.54-3.28-3.68-3.49-2.33-.24-3.22,1.49-3.94,3.13a52.71,52.71,0,0,0-1.62,5.23c-1.91,2.28-1.8,4.65-.3,7.08a4,4,0,0,0,1.53.3.88.88,0,0,0-.1-.3c.69-3.38,1.34-6.78,2.11-10.15.27-1.17,1.06-2.31,2.38-2.1s1.72,1.59,1.58,2.74c-.33,2.57.59,5.32-1.12,7.69-.71,1-1.3,2-.15,3.07s2,.29,2.89-.59a4.27,4.27,0,0,1,5.4-1,3.5,3.5,0,0,1,1.94,4.15,6.33,6.33,0,0,1-4.45,4.87c-3.75,1.2-6.95-1.37-10.5-1.46l-.06-1.09a3.11,3.11,0,0,0-.58.67c-.47,2.12.57,3.93,1.22,5.81a4.28,4.28,0,0,0,2.52,1.71c.72-2.15.88-4.92,4.51-3.21a5.47,5.47,0,0,0,3.44-.12,7.82,7.82,0,0,0,6-7.08C507.31,1347.3,506.18,1343.81,503.07,1343.89Z" transform="translate(-434.46 -955.37)"></path></svg>