<svg xmlns="http://www.w3.org/2000/svg" id="Layer_1" data-name="Layer 1" viewBox="0 0 576.5 592.55"><defs><style>.cls-1{fill:#030303;}.cls-2{fill:#0f0f0f;}.cls-3{fill:#060606;}.cls-4{fill:#050505;}.cls-5{fill:#080808;}.cls-6{fill:#101010;}.cls-7{fill:#0c0c0c;}.cls-8{fill:#070707;}.cls-9{fill:#0b0b0b;}.cls-10{fill:#0e0e0e;}.cls-11{fill:#1e1e1e;}.cls-12{fill:#0d0d0d;}.cls-13{fill:#131313;}.cls-14{fill:#161616;}.cls-15{fill:#151515;}.cls-16{fill:#1b1b1b;}.cls-17{fill:#232323;}.cls-18{fill:#141414;}.cls-19{fill:#252525;}.cls-20{fill:#ededed;}.cls-21{fill:#4d4d4d;}.cls-22{fill:#2c2c2c;}.cls-23{fill:#373737;}.cls-24{fill:#2a2a2a;}.cls-25{fill:#323232;}.cls-26{fill:#111;}.cls-27{fill:#363636;}.cls-28{fill:#464646;}.cls-29{fill:#cecece;}.cls-30{fill:#2d2d2d;}.cls-31{fill:#303030;}.cls-32{fill:#2f2f2f;}.cls-33{fill:#404040;}.cls-34{fill:#262626;}.cls-35{fill:#575757;}.cls-36{fill:#212121;}.cls-37{fill:#545454;}.cls-38{fill:#7a7a7a;}.cls-39{fill:#656565;}.cls-40{fill:#343434;}.cls-41{fill:#898989;}.cls-42{fill:#3e3e3e;}.cls-43{fill:#292929;}.cls-44{fill:#797979;}.cls-45{fill:#313131;}.cls-46{fill:#b7b7b7;}.cls-47{fill:#646464;}.cls-48{fill:#272727;}.cls-49{fill:#7e7e7e;}.cls-50{fill:#414141;}.cls-51{fill:#4f4f4f;}.cls-52{fill:#535353;}.cls-53{fill:#757575;}.cls-54{fill:#444;}.cls-55{fill:#3f3f3f;}.cls-56{fill:#919191;}.cls-57{fill:#c2c2c2;}.cls-58{fill:#585858;}.cls-59{fill:#3d3d3d;}.cls-60{fill:#626262;}.cls-61{fill:#525252;}.cls-62{fill:#bdbdbd;}.cls-63{fill:#3a3a3a;}.cls-64{fill:#8f8f8f;}.cls-65{fill:#6c6c6c;}.cls-66{fill:#c3c3c3;}.cls-67{fill:#484848;}.cls-68{fill:#818181;}.cls-69{fill:#4c4c4c;}.cls-70{fill:#fefefe;}.cls-71{fill:#fafafa;}.cls-72{fill:#ddd;}</style></defs><path class="cls-1" d="M718.34,722c-16.69-9.69-34.55-16-53.82-17.54a228.78,228.78,0,0,0-57.44,2.3c-18.73,3.24-37.2,8.17-56,10.68-22.28,3-44.67,3.21-65.76-7.11-22.43-11-34.74-29.39-39.48-53.37-.56-2.87,0-6,0-9,1.09-.54,1.53.24,2,1,.06.81.13,1.62.18,2.44.56,10.12,1.8,11.56,12.08,14.14q-8.31-18,.71-35.59c.9-1.75,1.8-3.53,3.74-4.41a1.57,1.57,0,0,1,.15,2.36c-4.88,11.29-7,22.63-2.4,34.74,1.51,3.95,3.63,5.39,7.41,5.78,13.3,1.36,26-1.22,38.36-5.84a31.36,31.36,0,0,1,4.64-1.73c4.46-.89,6.23-2.59,1.83-7.11,6.89,7.1,12.18,1.13,17.54-1,31.77-12.84,61.7-29.43,91.28-46.51,12.44-7.19,24.57-15.12,36.47-23.31,13.88-9.56,27.1-20,40.69-29.91,1.29-.73,2.17-.71,2,1.13-37.66,32.13-79.65,57.54-123.59,80-17.61,9-35.4,17.59-53.7,25.09-3,1.23-3.49,2.35-1.47,4.86a66.56,66.56,0,0,0,31,21.57,5.78,5.78,0,0,0,4.77-.48,629.44,629.44,0,0,0,66.79-38.63c16.75-11.25,32.39-24,48.16-36.61,15.51-12.38,30.34-25.57,46.1-37.65a173.17,173.17,0,0,0,36.56-37.59c.86-1.22,1.35-3.18,4.26-2.75-3.33,6.77-7.83,12.29-12.61,17.66-12.87,14.52-28.65,25.68-43.41,38-21,17.62-41.72,35.62-64,51.64A546.72,546.72,0,0,1,566,685c-1.31.66-4.45.47-3,3.76.33.73-.8.94-1.38.78-5-1.44-8.55,2-12.5,3.77-15.76,7.17-31.74,13.65-48.77,17.2-.62.12-1.22.37-2.79.86,5.88,2.83,11.44,3.18,16.83,3.76,18.11,1.94,36,.07,53.81-3.4,19.3-3.75,38.48-8.28,58.17-9.74,30.51-2.25,60.34-.6,87.8,15,2.16,1.22,4.47,2.21,6.16,4.14C720.29,722.79,719.4,722.62,718.34,722Z" transform="translate(-193.6 -377.84)"></path><path class="cls-1" d="M371.72,569.84c-12.75,12-24.17,25-33.31,40.09-15.88,26.13-24.42,54.17-24.19,85,.14,18.22,3.95,35.22,13.41,50.77,13,21.32,32.36,33.66,56.24,39.57,20.37,5,41.05,4.39,61.76,3.66,1.2-.5,2.27-.75,2.08,1.19-14.49,2.38-29.1,2.43-43.66,1.41-15.29-1.06-30.3-4-44.07-11.2-20.32-10.61-34.7-26.52-42.63-48.24-10.62-29.09-7.6-58,1.17-86.72,6.5-21.27,17.83-40,31.83-57.1,1.53-1.87,1.36-3.54.89-5.52a398.69,398.69,0,0,1-9.81-68.84c-1.28-23-1.81-46,1.7-68.91a30.43,30.43,0,0,0,.11-7.46C338,445,335,453.45,332.88,462.24c-1.1,4.68-1.68,9.49-2.6,14.23-.19,1-.11,2.72-1.8,2.44-1.46-.25-1.29-1.74-1.21-2.89a90.11,90.11,0,0,1,9.29-34.25c1.16-2.34,1.82-5,3.9-6.9,1-.87,1.68-2.45,3.15-2.06,1.66.45,1.83,2.25,2,3.69.59,5.67-.25,11.28-.85,16.9-2.27,21.19-1.22,42.37,0,63.57,1.2,20.45,4.64,40.56,8.3,60.65.27,1.49-.12,3.82,1.84,4.11,1.61.24,2.39-1.8,3.53-2.88,3.79-3.6,8.08-6.68,12.18-10C371.61,568.47,371.78,569,371.72,569.84Z" transform="translate(-193.6 -377.84)"></path><path class="cls-2" d="M723.28,847.78c10.79-13.7,20.25-28.2,23.52-45.66,2.81-15,1.9-29.76-7-43-8.26-12.26-20.63-18.64-34-23.53-22.56-8.22-46-8.86-69.6-8.57-30,.36-59.82,4.07-89.68,6.78-15.57,1.41-31.31,2-46.76-1.94-.07-1.9,1.07-1.37,2.11-1.06,18.75,3.13,37.49,2,56.19-.24,32.09-3.9,64.25-6.64,96.61-6,21.37.4,42.2,3.65,61.74,12.77,28.09,13.11,37.58,34.33,33.28,63.56-2.84,19.28-13.3,35.12-26.19,49.38A2,2,0,0,1,723.28,847.78Z" transform="translate(-193.6 -377.84)"></path><path class="cls-3" d="M309.76,812.79c-1.11-4.4,0-8.6,1.08-12.82,3.12,2.37,1.07,5.43,1.1,8.21-1.42,3-1,6.31-1,9.49-.3,22.29,2.72,44,11.77,64.6a142.8,142.8,0,0,0,95.41,81c14.22,3.49,28.7,3.93,43.25,4.09,7.47.08,14.81-1.25,22.24-1.49,1.81-.3,3.8-1.6,5.05,1-24.74,4.65-49.51,5.11-74-1.14-20.63-5.27-38.8-15.5-55.23-29.14A140.66,140.66,0,0,1,319.63,883c-5.31-12.35-9-25.24-9.89-38.78A245.2,245.2,0,0,1,309.76,812.79Z" transform="translate(-193.6 -377.84)"></path><path class="cls-4" d="M315,602.93c-3.8-30-4.26-60.06-2.6-90.23a460.43,460.43,0,0,1,12.41-84.81,124.42,124.42,0,0,1,12.46-31.3c.66-1.18.87-3.31,2.9-2.86,2.22.5,1.59,2.57,1.7,4.16,1,2.42.53,4.83,0,7.24-1.09,11.37-6.89,28.6-12.44,35.42,1.85-14.19,9.46-25.94,9.25-40.69-5.24,7.46-7.7,14.79-9.64,22.24-7.63,29.33-11.33,59.24-13.39,89.44-1.87,27.38-.47,54.7.57,82,.07,1.81.29,3.62.43,5.43C315.59,600.09,317.57,602.46,315,602.93Z" transform="translate(-193.6 -377.84)"></path><path class="cls-4" d="M681.54,852c-.63-13-5.4-24.22-14.89-33.14-10.31-9.69-22.66-16-35.9-20.78C598,786.28,564.14,782.44,529.6,783c-1.66,0-3.32-.07-5-.11-.62-.42-1.52-.69-1-1.75a273.11,273.11,0,0,1,61.74,2.15c18.91,2.69,37.35,7.3,54.9,14.91,15,6.52,28.58,15.12,37.48,29.59,5.37,8.74,6.48,18.22,5.54,28.15C680.73,855.49,682.79,853,681.54,852Z" transform="translate(-193.6 -377.84)"></path><path class="cls-5" d="M486.69,857c11.89-4.7,24.39-7.25,36.74-10.3,20.5-5.06,41.26-7.93,62.44-6.54a52.94,52.94,0,0,1,18.79,4.28c13.44,6.12,19.85,19.71,16.14,34.17-4.2,16.39-14.11,29.16-26,40.6-4.4,4.24-9.32,7.93-14,11.88-2.9-.39-.8-1.47-.33-2.33,8.86-7.92,17.77-15.82,24.71-25.59,8.28-11.65,15.39-23.73,12.7-39-1.48-8.42-6.46-13.92-14.17-17.19-12.47-5.29-25.58-4.91-38.68-4.23-24.69,1.29-48.38,7.69-72,14.19-1.43.39-2.9.66-4.35,1C487.56,858.61,486.64,858.85,486.69,857Z" transform="translate(-193.6 -377.84)"></path><path class="cls-6" d="M438,760.83c31.51,2.9,63.06,1.08,94.59.81,24.91-.2,49.87-1.52,74.63,2,19.12,2.72,38.16,6.1,56.22,13.4-.38,2.22-1.7,1.43-2.94.91-11-2.91-22-6.12-33.24-8.28A284.29,284.29,0,0,0,594.88,765c-29.81-2.17-59.65-.71-89.48-.36-22.47.27-45,1.44-67.39-1.83a18.14,18.14,0,0,1-2.36-.69C435.59,760.1,436.79,760.45,438,760.83Z" transform="translate(-193.6 -377.84)"></path><path class="cls-7" d="M634.3,885.61c2.84-8.82,6.3-17.37,6.24-27-.12-17.75-7.41-31.21-22-41.12-17.81-12.13-37.94-17.5-58.84-20.75a189.58,189.58,0,0,0-30.66-2.14,60.31,60.31,0,0,1-13.84-1.21c11.48-.79,23-1.38,34.45-.29,17.52,1.67,34.84,4.46,51.14,11.67,11,4.84,21.43,10.27,29.67,19.31,13.53,14.84,15.26,32,10.23,50.54a41,41,0,0,1-5.23,12.33C634.51,887,633.92,886.74,634.3,885.61Z" transform="translate(-193.6 -377.84)"></path><path class="cls-5" d="M340.93,712.93c-4.38-8.49-5.18-17.85-5.78-27.06C334,667.71,337,650,343,632.86a111.43,111.43,0,0,1,39.9-53.81c1.18-.83,1.85-.66,1.82.92-32.22,26.14-46.68,60.44-46.68,101.45A132.78,132.78,0,0,0,342,711.73C342.35,712.77,341.82,713,340.93,712.93Z" transform="translate(-193.6 -377.84)"></path><path class="cls-8" d="M387.81,555.09c19.86-14.52,42.55-19,66.56-19,13.92,0,27.4,2.12,40.1,8,4.27,2,8.22,4.6,10.23,8.49-38.85-19.34-77-17.65-114.62,3.57C389,556.48,387.87,556.91,387.81,555.09Z" transform="translate(-193.6 -377.84)"></path><path class="cls-9" d="M533.59,747.89c-22.67,1.27-44.77-1.12-65.45-11.17-21.18-10.29-35.79-26.85-44.64-48.58-1.87-4.58-4-9.09-4.58-14.11a1,1,0,0,1,1.69,0c4.4,15.29,11.62,29.09,22.38,40.83,16.86,18.4,38.61,26.57,62.79,29.59,6.51.81,13.17.08,19.57,2.23,1.92.65,4.07-1.35,6.28-.59C532.15,746.83,534.14,746,533.59,747.89Z" transform="translate(-193.6 -377.84)"></path><path class="cls-10" d="M612.58,917.56c30.64-15,51.35-36.26,50.29-72.38,1.73,1.05,1.73,1.05,1.92,3.83,1.16,17.16-4.58,32.07-15.44,45a79.86,79.86,0,0,1-33,23.39,11.21,11.21,0,0,1-1.88.54A8.35,8.35,0,0,1,612.58,917.56Z" transform="translate(-193.6 -377.84)"></path><path class="cls-11" d="M660.51,778l2.94-.91c15.52,5.62,30.34,12.56,41.86,24.8,12.42,13.21,15.62,28.67,10,45.93-.92.43-1.28.2-1-.83,5.16-17.4-1.71-36.76-15.66-48.21C687.2,789.28,673.71,784,660.51,778Z" transform="translate(-193.6 -377.84)"></path><path class="cls-10" d="M346.68,388.83a15.81,15.81,0,0,1,5.37-9.71c2.42-2,4.56-1.86,5.21,1.94a22.61,22.61,0,0,1-.53,9.38,203,203,0,0,1-8.28,27.16,9.39,9.39,0,0,1-3.48,4.71c-.12-6.76,2.93-12.35,4.35-18.3s3-11.86,4.51-17.79c.36-1.42,1.15-3.35-.71-3.88s-2.08,1.74-2.81,2.92c-.95,1.53-1.75,3.16-2.61,4.74C346.77,390.13,346.14,390,346.68,388.83Z" transform="translate(-193.6 -377.84)"></path><path class="cls-9" d="M458.86,554.22c-2.43,4.24-6.26,7.24-9.56,10.69-3.61,3.78-6.58,7.86-8.07,12.93-2.47,8.41-1,12.45,6.5,17.1.94.59,2.53.91,1.77,2.4-.62,1.24-1.69.09-2.59-.11-7.77-1.76-11.8-9-9.8-17.69a26.63,26.63,0,0,1,6.75-13c4.51-4.6,9.2-9,13.82-13.53C458.64,552.86,459.14,553.16,458.86,554.22Z" transform="translate(-193.6 -377.84)"></path><path class="cls-12" d="M359.69,404.9c1.74-2.16,4-5.88,6.27-4.4,2.45,1.63.31,5.34-1,8.05a241.39,241.39,0,0,0-12.76,31.18c-.52,1.62-.45,3.63-2.89,4.67-.47-8.24,2.78-15.25,5.68-22.32,1.83-4.43,3.95-8.74,5.87-13.14.4-.9,1.72-1.95,0-2.88C359.85,406.27,359.41,405.93,359.69,404.9Z" transform="translate(-193.6 -377.84)"></path><path class="cls-13" d="M464.67,628l-.15-2.36c-4.75-2.2-10.31-1.74-14.9-4.5.3-2.44,1.81-1.55,3.15-1.14,15.76,3.56,30.05-1.4,44-7.77,1.85-.85,3.2-2.8,4.77-4.24,1.74-.06,1.81.75,1.05,2-2.75,4.27-7,6.42-11.62,7.85-6.6,2.06-13.27,4-20,5.52A8.58,8.58,0,0,0,464.67,628Z" transform="translate(-193.6 -377.84)"></path><path class="cls-2" d="M494.61,584c-1.23-1.45-1.78-3.77-4.59-3.14,1.45-3.37,4.52-4.35,6.83-6.09s3.07-2.82.68-5.32c-5.67-5.91-13-9.44-19.38-14.33-2.57-2-5.37-3.63-8.58-5.76,1.77-.62,3.21-.84,4.39-.11,8.66,5.38,17.68,10.31,24.91,17.62,5.83,5.89,5.52,7.14-1.52,11.36-1.55.93-3.67,1.37-1.72,3.79C496.41,583.29,496.31,584.07,494.61,584Z" transform="translate(-193.6 -377.84)"></path><path class="cls-14" d="M732.31,541c-6.87,9.67-17.29,15.52-25.47,23.89,6.29-11.57,17.4-19.58,22.5-31.86a1.29,1.29,0,0,1,2,0c-.07,3.11-1.84,5.71-2.88,8.59,1.62.28,2-1.11,3-1.54A1.48,1.48,0,0,1,732.31,541Z" transform="translate(-193.6 -377.84)"></path><path class="cls-15" d="M732.31,541l-.87-.91c5-7.7,11.55-14.15,17.79-20.82,1-1.06,1.89-3,4-2.15,1.84.75.56,2.74,1.4,3.91,1.1,4.36.52,8-4.08,10.09-3.13,4.6-6.42,9.06-12.16,13.25,4.44-8.57,11.21-14.23,13.22-22.51l-1.14-1Z" transform="translate(-193.6 -377.84)"></path><path class="cls-16" d="M247.77,764.89c.42-1.42.78-2.87,1.28-4.26.73-2,1.48-4.23,4.22-4.08s3.56,2,3.91,4.35a6.87,6.87,0,0,1,.33,2c-.65,4,0,6.27,4.95,6.61,3.15.23,4,3.66,3.56,6.7-.54,3.55-2.56,6.1-6.2,6.83a23.07,23.07,0,0,1-4.91,0c-.47-2.18.93-3.26,2.49-4.24,1-.58,2.22-1,2-2.45-.15-1-1.11-.89-1.95-1-6.15-.4-7-1.59-5.28-7.55-1.41,1.59-.74,5.5-4.73,4.2C246,769.53,245.86,767.16,247.77,764.89Z" transform="translate(-193.6 -377.84)"></path><path class="cls-17" d="M580.5,928.79l.33,2.33a140.21,140.21,0,0,1-53,26c-1.11.28-1.44-.21-1.22-1.24C546,949.63,564.6,942,580.5,928.79Z" transform="translate(-193.6 -377.84)"></path><path class="cls-6" d="M710.49,903.4c4.53-4.5,9.49-8.2,16.2-8.49,2.31-.1,4.35.44,5.32,2.81s-.55,4.2-2.25,5.54c-3.87,3.07-8.13,5.35-13.55,4.94,2.76-1.68,5.54-3.33,8.27-5.05,1.62-1,4.56-1.84,3.7-4-1-2.47-3.76-.83-5.76-.5C718.11,899.4,714.64,902.14,710.49,903.4Z" transform="translate(-193.6 -377.84)"></path><path class="cls-18" d="M442,596.84c-.7.66-.79.8-.92.85-2.55,1-6.91.07-6.71,4.32.19,3.91,4,5.08,7.25,5.82a26.47,26.47,0,0,0,14-.19c-6.16,7-21.14,4.36-23.94-3.7a6,6,0,0,1,1.6-6.88C435.77,594.91,438.64,595.24,442,596.84Z" transform="translate(-193.6 -377.84)"></path><path class="cls-19" d="M268.26,905.22a5.52,5.52,0,0,1,5.42,4.26c.52,2.15,2.31,4.69-1.07,6.73-1.87,1.12-2.95,3.65-5.23,4.4-1.42.47-3.24,1.84-4.47-.12a3.36,3.36,0,0,1,1.29-4.77c3-1.84,3.27-3.43,1.17-6.4C263.68,906.9,264.67,904.8,268.26,905.22Z" transform="translate(-193.6 -377.84)"></path><path class="cls-12" d="M766.19,509.74c.44-1.28,1.41-2.14,2.62-1.52.69.35,1.12,1.61,1.27,2.53a5.5,5.5,0,0,1-.59,2.39c-2,5.55-15,21.79-20.4,25.27-.25-2.3,2-3.37,2.41-5.23a25.48,25.48,0,0,1,6.7-11.42,26,26,0,0,0,5.35-7.58A11.3,11.3,0,0,0,766.19,509.74Z" transform="translate(-193.6 -377.84)"></path><path class="cls-2" d="M252.14,786.34c-1,2.1-2.08,4.39-4.82,4.14-2.15-.19-3.36-1.75-3.55-4.07-.17-2-1.78-1.61-3-1.37-3.27.62-7,.94-7.34-3.23s3.61-5.1,7.08-5.64c.81-.13,1.62-.22,2.44-.33.33-.14.78-.21.88,0,.88,1.86,5.62,6.53,7.95,7.75A2.61,2.61,0,0,1,252.14,786.34Z" transform="translate(-193.6 -377.84)"></path><path class="cls-20" d="M251,784c-.9,1.51-1.44,3.88-3.77,3.13-2-.64-.78-2.51-.58-3.9.56-3.73-1.77-2.82-3.65-2.11-2.25.85-5.58,3.25-6.47.65s3-3.46,5.63-3.9c1.4-.25,1.6-1,.77-2l1.1-.9a3,3,0,0,1,3.17-2,6.36,6.36,0,0,1,3.69,3,7.81,7.81,0,0,1,.81,2.24C251.64,780.11,252.13,782.16,251,784Z" transform="translate(-193.6 -377.84)"></path><path class="cls-17" d="M731.31,533h-2c-2.73-1.45-3.85,1.17-5.23,2.37-6.34,5.51-12.46,11.27-18.7,16.9a21,21,0,0,1-2.88,1.88l-2-1.13c8.4-7.65,17.54-14.43,25.67-22.41C728.9,527.94,730.58,528.88,731.31,533Z" transform="translate(-193.6 -377.84)"></path><path class="cls-21" d="M374.64,704c3.83,15.77,10.77,29.76,23.19,40.61.69.46.67.88-.06,1.27-9.34-5.56-14.32-14.72-18.94-23.92a46.77,46.77,0,0,1-5.13-16.86C373.15,704,373.76,703.9,374.64,704Z" transform="translate(-193.6 -377.84)"></path><path class="cls-22" d="M397.77,745.9l.06-1.27c11.91,9.08,25.79,13.28,40.18,16.2l-2.36,1.26C421.72,759.74,408.47,755.8,397.77,745.9Z" transform="translate(-193.6 -377.84)"></path><path class="cls-23" d="M683.72,919.54c-13.66,3.65-23.45,13.2-34.42,23.16C654,932,674.43,918.59,683.72,919.54Z" transform="translate(-193.6 -377.84)"></path><path class="cls-24" d="M277.1,914.45c10.59-2.3,30.08,11,31.53,20.92C300.35,925,291.26,917.08,277.1,914.45Z" transform="translate(-193.6 -377.84)"></path><path class="cls-11" d="M711,896.08c3.6-3.65,6.77-7.28,12.19-7.53-4.73,2.9-8.48,6.79-12.14,10.82-1.08,1.18-2.27,0-2.44-1.28-.74-5.43-4.92-8.73-8.29-13.41C707.22,885.83,708.43,891.47,711,896.08Z" transform="translate(-193.6 -377.84)"></path><path class="cls-19" d="M523.66,781.1l1,1.75L488,784.5,488,783C499.85,782.11,511.66,780.25,523.66,781.1Z" transform="translate(-193.6 -377.84)"></path><path class="cls-25" d="M486.69,857l2,.93c-10.69,3.58-21.43,6.79-33,4.83C466.37,862.63,476.3,858.63,486.69,857Z" transform="translate(-193.6 -377.84)"></path><path class="cls-26" d="M703.48,898.59a51.72,51.72,0,0,0-4.89-2.59c-1.26-.51-2.86-1.85-4-.09-.94,1.47.22,2.92,1.18,4s2.48,2.17,3.69,3.3,2.75,2.07,1.71,4.23c-3.77-2-7.42-4.09-9.25-8.29-.86-2-1.11-3.93.43-5.56a4.37,4.37,0,0,1,5.52-.6C700.06,894.26,703.36,894.74,703.48,898.59Z" transform="translate(-193.6 -377.84)"></path><path class="cls-27" d="M488.62,966.86c-1.55-1-3.34-.76-5.05-1l33-7c1.1-.53,2.12-.89,2,1C508.72,962.72,498.82,965.42,488.62,966.86Z" transform="translate(-193.6 -377.84)"></path><path class="cls-28" d="M313.91,781c1.54-10.53,3.85-20.87,8.38-30.71L315,785.2C313.17,784.16,315,782.22,313.91,781Z" transform="translate(-193.6 -377.84)"></path><path class="cls-29" d="M765.38,515,751.5,533.18l-1-2.08c2.36-3,2.59-6.78,4.08-10.09a.7.7,0,0,1,.49-.06c3.88-.74,4.61-4.79,7.22-6.91C764.19,512.53,764.05,512.36,765.38,515Z" transform="translate(-193.6 -377.84)"></path><path class="cls-30" d="M204.85,889.34c7.57-.45,20,9.52,20.18,16.14a1.22,1.22,0,0,1-.42.84c-.12.09-.49-.1-.74-.17a7.48,7.48,0,0,1-3-5.18c-4.71-5.72-10.85-9.12-17.91-11C203,888.51,203.16,888.47,204.85,889.34Z" transform="translate(-193.6 -377.84)"></path><path class="cls-31" d="M494.61,584l1-2c3.31,7.06,8.85,13.17,9.09,21.55.07,2.42-.27,4.6-2.1,6.35l-1.05-2c1.89-4,1.31-7.93-.68-11.75C498.78,592.15,496.71,588.09,494.61,584Z" transform="translate(-193.6 -377.84)"></path><path class="cls-32" d="M645.82,928.56c-3.06,8.52-9.24,14.57-9.82,24.24C633.16,947.09,638.73,934.42,645.82,928.56Z" transform="translate(-193.6 -377.84)"></path><path class="cls-27" d="M220.87,901c1.54,1.42,2.23,3.32,3,5.18-3.16-1.34-6.32-2.69-9.49-4s-6.64-1.24-9.94-2.35c3.85-2.16,7.55-.82,11.36.19C217.43,900.4,218.77,902.9,220.87,901Z" transform="translate(-193.6 -377.84)"></path><path class="cls-33" d="M246.78,773.88,244,774.94c-2.66-3.55-7.06-2.48-11.67-4.11,4.72-2.06,8.21-1.76,11.8,1.06v-7.95c.33-.73.6-1.57,1.69-.92l.21-.1C246.94,766.53,247.56,770.15,246.78,773.88Z" transform="translate(-193.6 -377.84)"></path><path class="cls-34" d="M313.91,781c.92,1.26.92,2.74,1.06,4.2l-3,23c-.61-2.71.44-5.63-1.1-8.21A125.4,125.4,0,0,1,313.91,781Z" transform="translate(-193.6 -377.84)"></path><path class="cls-16" d="M695.77,916.41c4.1.55,5-4.42,8.55-4.44.37,2.35-1.37,3.19-2.5,4.16-2.1,1.8-4.29,4-7.46,2.89a2.16,2.16,0,0,1-1.07-3c1.21-3.18,3.18-5.7,7.06-8.13C699.27,912,696.26,913.34,695.77,916.41Z" transform="translate(-193.6 -377.84)"></path><path class="cls-35" d="M323.42,933.71c-2.37-9.23-4.51-12.57-14.37-23.15C315.72,911.35,324.56,924.86,323.42,933.71Z" transform="translate(-193.6 -377.84)"></path><path class="cls-15" d="M476.26,565.36c1.84,5.23-1.14,6.93-3.81,8.33-3.49,1.83-7.23,2.65-12-.75C467.19,572.12,473.27,572.6,476.26,565.36Z" transform="translate(-193.6 -377.84)"></path><path class="cls-36" d="M713.07,913.33c2.46,2.29,3.48,7.14,6.09,5.53,2.92-1.8,0-5.16-1.58-7.6-.13-.2,0-.6.09-.91,4,2.22,5.66,5.52,4.53,9-.55,1.68-1.33,3.1-3.52,2.64C715.75,921.37,713.09,917.54,713.07,913.33Z" transform="translate(-193.6 -377.84)"></path><path class="cls-37" d="M501.82,730.83l-2.11,1.06c-7.93-1.51-15.39-4.19-22-9-.19-.92,0-1.48,1.1-1.07C486,726.22,494,728.36,501.82,730.83Z" transform="translate(-193.6 -377.84)"></path><path class="cls-34" d="M387.81,555.09l2.27,1.08-18.36,13.67-1.11-.94A88.73,88.73,0,0,1,387.81,555.09Z" transform="translate(-193.6 -377.84)"></path><path class="cls-15" d="M488.33,594.94a7.4,7.4,0,0,1-5.13-2c-.94-.83-2.58-1.69-1.81-3.11,1-1.8,2.3,0,3.36.34,2.07.58,4.05,1.25,6.25.84.83-.16,2-1.16,2.54.2s-.65,2.16-1.64,2.63A23.11,23.11,0,0,1,488.33,594.94Z" transform="translate(-193.6 -377.84)"></path><path class="cls-38" d="M374.11,672.13l-.47,15.94c-1.36,2.11,1.14,5.13-1.64,6.9a142.26,142.26,0,0,1,.88-27.83C375.53,668.26,373.85,670.43,374.11,672.13Z" transform="translate(-193.6 -377.84)"></path><path class="cls-39" d="M447.71,790.08l-2.08-1.19,24.67-3.34.19,1.24C462.77,787.19,455.6,790.63,447.71,790.08Z" transform="translate(-193.6 -377.84)"></path><path class="cls-40" d="M384.75,580l-1.82-.92a50.8,50.8,0,0,1,17.82-10.88Z" transform="translate(-193.6 -377.84)"></path><path class="cls-41" d="M664.63,946.64c5.28-4.24,10.47-8.69,17.94-7.09C676.21,941,670.55,944.18,664.63,946.64Z" transform="translate(-193.6 -377.84)"></path><path class="cls-42" d="M765.38,515c-2.48-3.21-2.63.73-3.69,1.35-2.3,1.34-2.59,5.57-6.58,4.59,3.89-3.54,5.76-9.08,11.08-11.21C767.29,511.71,767.31,513.51,765.38,515Z" transform="translate(-193.6 -377.84)"></path><path class="cls-43" d="M447.81,649l-2-1c-.49-6.5-.46-12.95,2-19.29Z" transform="translate(-193.6 -377.84)"></path><path class="cls-23" d="M315,602.93c.55-1.31,1.1-2.62,1.64-3.93L318,612.84c-.08,2.07,1.73,4.47-1.05,6.07C316.85,613.52,314.6,608.38,315,602.93Z" transform="translate(-193.6 -377.84)"></path><path class="cls-44" d="M478.83,721.83l-1.1,1.07c-6.15-3.35-11-8.17-15.31-13.67C467.75,713.64,473.13,718,478.83,721.83Z" transform="translate(-193.6 -377.84)"></path><path class="cls-34" d="M309.76,812.79q0,15.69,0,31.38A116.11,116.11,0,0,1,309.76,812.79Z" transform="translate(-193.6 -377.84)"></path><path class="cls-45" d="M420.61,674h-1.69a43.26,43.26,0,0,1-2.14-15c1.1-.6,1.38.17,1.63,1Z" transform="translate(-193.6 -377.84)"></path><path class="cls-46" d="M374.11,672.13c-.28-1.69-.08-3.51-1.23-5-.28-4.53,1.37-8.56,3.6-12.48Z" transform="translate(-193.6 -377.84)"></path><path class="cls-47" d="M736.43,918.1c4-4.14,8.56-6.89,14.52-6.44Z" transform="translate(-193.6 -377.84)"></path><path class="cls-48" d="M346.68,388.83l1,1.17q-2.91,7.58-5.84,15.13v-7.24C344.68,395.51,344.37,391.48,346.68,388.83Z" transform="translate(-193.6 -377.84)"></path><path class="cls-49" d="M316.94,618.91c1.32-1.85.84-4,1.05-6.07a42.33,42.33,0,0,1,1.55,16.31C317.39,625.41,317.66,622,316.94,618.91Z" transform="translate(-193.6 -377.84)"></path><path class="cls-50" d="M458.86,554.22,457.68,553c1.06-3.2,3.13-6.16,1.9-10.23C463.42,546.62,463.2,548.78,458.86,554.22Z" transform="translate(-193.6 -377.84)"></path><path class="cls-51" d="M278.83,859.24c6.31-.75,9.79,3,9.55,10.5C286.32,864.56,283.86,861.13,278.83,859.24Z" transform="translate(-193.6 -377.84)"></path><path class="cls-52" d="M418.41,660l-1.63-1,.06-14.91c3,1.31.48,4.13,1.64,5.94C418.7,653.36,419.05,656.68,418.41,660Z" transform="translate(-193.6 -377.84)"></path><path class="cls-53" d="M545.58,746c4-1.07,8.12-.16,12.2-.31a31.19,31.19,0,0,1-14.25,1.9C543.46,746.09,545.1,746.78,545.58,746Z" transform="translate(-193.6 -377.84)"></path><path class="cls-54" d="M452.77,620l-3.15,1.14c-3.21-.89-5.67-2.9-8.64-5.57C445.89,615.93,449.05,618.68,452.77,620Z" transform="translate(-193.6 -377.84)"></path><path class="cls-19" d="M545.58,746l-2.05,1.59a35.6,35.6,0,0,1-9.94.3l-2-1.81Z" transform="translate(-193.6 -377.84)"></path><path class="cls-55" d="M718.34,722l2-.91a27.25,27.25,0,0,1,9.14,6.78c.25,1-.12,1.38-1.12,1.12Z" transform="translate(-193.6 -377.84)"></path><path class="cls-56" d="M418.48,650l-1.64-5.94c-.32-3.26-.42-6.49,1.64-9.87Z" transform="translate(-193.6 -377.84)"></path><path class="cls-57" d="M246.78,773.88a37.73,37.73,0,0,1-.73-11l1.72,2c.85,2.29-.85,5,1.13,7.08,2.72,1.67,2.23,3.3-.05,4.92Z" transform="translate(-193.6 -377.84)"></path><path class="cls-58" d="M372,695q.81-3.45,1.64-6.9.5,8,1,15.95l-.94,1.1C371.91,701.94,372.83,698.31,372,695Z" transform="translate(-193.6 -377.84)"></path><path class="cls-59" d="M251,784a6,6,0,0,0-2-4.89c3.79-2.52,6.33-2,9.95,1.87l-4,2c-4.37-1.69-.53,3.35-2.77,3.4C251.76,785.56,251.37,784.79,251,784Z" transform="translate(-193.6 -377.84)"></path><path class="cls-60" d="M204.85,889.34,203,890H193.6C197.3,887.88,201,886.64,204.85,889.34Z" transform="translate(-193.6 -377.84)"></path><path class="cls-43" d="M681.54,852c.59,1.31,1.19,2.62,1.78,3.94a15.49,15.49,0,0,1-2.76,8.28.93.93,0,0,1-1.18-.2C680.85,860.11,681.19,856,681.54,852Z" transform="translate(-193.6 -377.84)"></path><path class="cls-61" d="M723.28,847.78c.06.82.11,1.65.17,2.48-2.34,2-3.53,5.51-7.15,5.8l-1.14-1.17Z" transform="translate(-193.6 -377.84)"></path><path class="cls-39" d="M518.6,959.89l-2-1,10-3,1.22,1.24C525,958.91,521.78,959.35,518.6,959.89Z" transform="translate(-193.6 -377.84)"></path><path class="cls-62" d="M679.38,864l1.18.2a11.33,11.33,0,0,1-4.34,8.22A22.78,22.78,0,0,1,679.38,864Z" transform="translate(-193.6 -377.84)"></path><path class="cls-63" d="M340.93,712.93l1.08-1.2c1.94,2.94,3.75,5.93,3.74,10.17A21.37,21.37,0,0,1,340.93,712.93Z" transform="translate(-193.6 -377.84)"></path><path class="cls-32" d="M337.77,948.7V937.24c3,4.35.68,7.91,1.54,11.28Z" transform="translate(-193.6 -377.84)"></path><path class="cls-64" d="M258.73,948.1,250,944.16c3.84-.56,7,.85,10,2.75C259.61,947.38,259.45,948,258.73,948.1Z" transform="translate(-193.6 -377.84)"></path><path class="cls-21" d="M258.73,948.1l1.21-1.19c2.77,2.31,6.16,4.1,6.77,8.29A47.51,47.51,0,0,0,258.73,948.1Z" transform="translate(-193.6 -377.84)"></path><path class="cls-65" d="M728.35,729l1.12-1.12c2.16,2.12,4.88,3.77,5.47,7.37Z" transform="translate(-193.6 -377.84)"></path><path class="cls-58" d="M610.71,941.39c3.74,2,4,5.48,3.73,10.55C612.24,947.88,612.75,944.14,610.71,941.39Z" transform="translate(-193.6 -377.84)"></path><path class="cls-66" d="M714.38,847l1,.83c-.6,2.47-1.31,4.87-3.8,6.21C712.23,851.51,712.55,848.92,714.38,847Z" transform="translate(-193.6 -377.84)"></path><path class="cls-24" d="M634.3,885.61l1.18,1.33c-1.58,2.43-2.12,5.65-5.3,6.9C631.49,891,631.92,887.82,634.3,885.61Z" transform="translate(-193.6 -377.84)"></path><path class="cls-67" d="M359.69,404.9l1.14,1.16-6,6.85C355.16,409.34,357.34,407.06,359.69,404.9Z" transform="translate(-193.6 -377.84)"></path><path class="cls-68" d="M451.15,861.41c-3.2,1.13-5.64,0-8.13-3.2Z" transform="translate(-193.6 -377.84)"></path><path class="cls-69" d="M245.84,763l-1.69.92c-.56-2.78-.74-5.52,1.14-8.39C246.59,758.19,245.68,760.65,245.84,763Z" transform="translate(-193.6 -377.84)"></path><path class="cls-70" d="M553.68,688.12c-15.39,7-29.87,13.52-45.22,17.7a110.59,110.59,0,0,1-14,3.09c-7.28,1-12.61-3.84-17.93-7.47A63.68,63.68,0,0,1,451,666.55a27.59,27.59,0,0,1-.47-2.76,52.64,52.64,0,0,0,27.17,7.92c11.84.25,23-3,33.88-7.11,7.32-2.78,7.28-2.9,12.08,3.08C531.29,677.23,541.14,683.7,553.68,688.12Z" transform="translate(-193.6 -377.84)"></path><path class="cls-71" d="M258.9,781c-3.53.51-6.44-2.26-9.95-1.87,0-.74-.06-1.48-.1-2.23,0-1.64.79-3.27.05-4.92.65-3.24,1.28-6.48,2-9.71.29-1.38,1-2.8,2.55-2.52s1.78,2,1.57,3.28c-.4,2.55.57,5.36-1.46,7.64a1.72,1.72,0,0,0,.24,2.63,1.49,1.49,0,0,0,2.2,0c2.48-2.55,5.56-3.56,7.39-.06C265.47,777.21,262.41,779.52,258.9,781Z" transform="translate(-193.6 -377.84)"></path><path class="cls-72" d="M265.06,918.28c.59-2.55,2.65-3,4.69-4C268.62,917.78,268.62,917.78,265.06,918.28Z" transform="translate(-193.6 -377.84)"></path></svg>